SplineFontDB: 3.2
FontName: Samaano-Thin-Slanted
FullName: Samaano Thin Slanted
FamilyName: Samaano
Weight: Thin
Copyright: Copyright 2024 The Samaano Project Authors (https://github.com/mitradranirban/samaano-fonts)
UComments: "2024-8-27: Created with FontForge (http://fontforge.org)"
Version: 1.512
StyleMapFamilyName: Samaano
ItalicAngle: -20
UnderlinePosition: 0
UnderlineWidth: 102
Ascent: 1638
Descent: 410
InvalidEm: 0
UFOAscent: 1638
UFODescent: -410
LayerCount: 2
Layer: 0 0 "Back" 1
Layer: 1 0 "public.default" 0 "glyphs"
StyleMap: 0x0001
FSType: 256
OS2Version: 0
OS2_WeightWidthSlopeOnly: 0
OS2_UseTypoMetrics: 0
CreationTime: 1730995900
ModificationTime: 1730998573
PfmFamily: 16
TTFWeight: 100
TTFWidth: 5
LineGap: 0
VLineGap: 0
Panose: 2 7 2 9 2 2 2 2 4 4
OS2TypoAscent: 2457
OS2TypoAOffset: 0
OS2TypoDescent: -615
OS2TypoDOffset: 0
OS2TypoLinegap: 0
OS2WinAscent: 3225
OS2WinAOffset: 0
OS2WinDescent: 978
OS2WinDOffset: 0
HheadAscent: 2457
HheadAOffset: 0
HheadDescent: -615
HheadDOffset: 0
OS2CapHeight: 1548
OS2XHeight: 1023
OS2FamilyClass: 1031
OS2Vendor: 'anir'
OS2CodePages: 00000193.00000000
Lookup: 4 0 1 "ligaStandardLigaturesinLatinlookup0" { "ligaStandardLigaturesinLatinlookup0 subtable"  } ['liga' ('latn' <'dflt' > 'DFLT' <'dflt' > ) ]
Lookup: 4 0 0 "nuktNuktaFormsinDevanagari2lookup0" { "nuktNuktaFormsinDevanagari2lookup0 subtable"  } ['nukt' ('dev2' <'dflt' > 'DFLT' <'dflt' > ) ]
Lookup: 4 0 0 "akhnAkhandinDevanagari2lookup0" { "akhnAkhandinDevanagari2lookup0 subtable"  } ['akhn' ('dev2' <'dflt' > 'DFLT' <'dflt' > ) ]
Lookup: 4 0 0 "rphfRephForminDevanagari2lookup0" { "rphfRephForminDevanagari2lookup0 subtable"  } ['rphf' ('dev2' <'dflt' > 'DFLT' <'dflt' > ) ]
Lookup: 4 0 0 "rkrfRakarVariantsinDevanagari2lookup0" { "rkrfRakarVariantsinDevanagari2lookup0 subtable"  } ['rkrf' ('dev2' <'dflt' > 'DFLT' <'dflt' > ) ]

StartChar: .notdef
Encoding: 0 0 0
GlifName: _notdef
Width: 1024
VWidth: 0
Flags: W
LayerCount: 2
Fore
SplineSet
-285.456 -100 m 257
 712.544 -100 l 257
 1309.46 1540 l 257
 311.456 1540 l 257
 -285.456 -100 l 257
-182.338 -20 m 257
 357.065 1462 l 257
 488.371 743 l 257
 -182.338 -20 l 257
-90.3379 -20 m 257
 498.346 666 l 257
 589.662 -20 l 257
 -90.3379 -20 l 257
481.434 1474 m 257
 1112.43 1474 l 257
 558.217 825 l 257
 481.434 1474 l 257
568.191 748 m 257
 1208.8 1475 l 257
 664.662 -20 l 257
 568.191 748 l 257
EndSplineSet
EndChar

StartChar: A
Encoding: 1 65 1
GlifName: A_
Width: 1024
VWidth: 0
GlyphClass: 2
Flags: W
AnchorPoint: "top" 1021.54 1629 basechar 0
AnchorPoint: "base" 567.535 -44 basechar 0
LayerCount: 2
Fore
SplineSet
107.824 16 m 257
 166.824 16 l 257
 726.246 1553 l 257
 667.246 1553 l 257
 107.824 16 l 257
704.045 1492 m 257
 1421.04 1492 l 257
 1443.25 1553 l 257
 726.246 1553 l 257
 704.045 1492 l 257
508.051 970 m 257
 486.578 911 l 257
 1209.58 911 l 257
 1231.05 970 l 257
 508.051 970 l 257
863.82 5 m 257
 923.82 5 l 257
 1487.25 1553 l 257
 1427.25 1553 l 257
 863.82 5 l 257
EndSplineSet
EndChar

StartChar: AE
Encoding: 2 198 2
GlifName: A_E_
Width: 1024
VWidth: 0
GlyphClass: 2
Flags: W
LayerCount: 2
Fore
SplineSet
279.489 62 m 257
 256.923 0 l 257
 676.923 0 l 257
 699.489 62 l 257
 279.489 62 l 257
-195.077 0 m 257
 -133.077 0 l 257
 431.077 1550 l 257
 369.077 1550 l 257
 -195.077 0 l 257
390.875 1489 m 257
 1196.88 1489 l 257
 1219.08 1550 l 257
 413.077 1550 l 257
 390.875 1489 l 257
225.265 1023 m 257
 203.79 964 l 257
 953.79 964 l 257
 975.265 1023 l 257
 225.265 1023 l 257
230.923 0 m 257
 290.923 0 l 257
 855.077 1550 l 257
 795.077 1550 l 257
 230.923 0 l 257
EndSplineSet
EndChar

StartChar: B
Encoding: 14 66 14
GlifName: B_
Width: 1024
VWidth: 0
GlyphClass: 2
Flags: W
HStem: 811 59<397.654 397.654 397.654 441.18 441.18 441.18 441.18 441.18>
AnchorPoint: "top" 709.227 1645 basechar 0
AnchorPoint: "base" 69.2266 -99 basechar 0
LayerCount: 2
Fore
SplineSet
27 0 m 257
 84 0 l 257
 649.246 1553 l 257
 592.246 1553 l 257
 27 0 l 257
666.771 1494 m 257
 1334.34 1023 l 257
 1355.45 1081 l 257
 687.154 1550 l 257
 666.771 1494 l 257
441.18 811 m 257
 1334.34 1023 l 257
 1354.72 1079 l 257
 462.654 870 l 257
 441.18 811 l 257
150.566 62 m 257
 128 0 l 257
 1153.96 434 l 257
 1177.99 500 l 257
 150.566 62 l 257
412.521 746 m 257
 1153.51 430 l 257
 1179.35 501 l 257
 435.088 808 l 257
 412.521 746 l 257
397.654 870 m 257
 376.18 811 l 257
 441.18 811 l 257
 462.654 870 l 257
 397.654 870 l 257
375.088 808 m 257
 353.25 748 l 257
 413.25 748 l 257
 435.088 808 l 257
 375.088 808 l 257
90.5664 62 m 257
 68 0 l 257
 128 0 l 257
 150.566 62 l 257
 90.5664 62 l 257
628.246 1553 m 257
 606.771 1494 l 257
 666.771 1494 l 257
 688.246 1553 l 257
 628.246 1553 l 257
EndSplineSet
PickledDataWithLists: "(dp0
Vcom.fontlab.hintData
p1
(dp2
Vhhints
p3
(lp4
(dp5
Vposition
p6
I811
sVwidth
p7
I59
sass."
EndChar

StartChar: C
Encoding: 15 67 15
GlifName: C_
Width: 1024
VWidth: 0
GlyphClass: 2
Flags: W
AnchorPoint: "top" 1007.62 1625 basechar 0
AnchorPoint: "base" 540.623 -39 basechar 0
LayerCount: 2
Fore
SplineSet
636.246 1553 m 257
 71 0 l 257
 131 0 l 257
 696.246 1553 l 257
 636.246 1553 l 257
665.246 1553 m 257
 644.136 1495 l 257
 1497.14 1495 l 257
 1518.25 1553 l 257
 665.246 1553 l 257
126.11 58 m 257
 105 0 l 257
 951 0 l 257
 972.11 58 l 257
 126.11 58 l 257
EndSplineSet
EndChar

StartChar: D
Encoding: 21 68 21
GlifName: D_
Width: 1024
VWidth: 0
GlyphClass: 2
Flags: W
AnchorPoint: "base" 161 -96 basechar 0
AnchorPoint: "top" 752.171 1641 basechar 0
LayerCount: 2
Fore
SplineSet
661.246 1553 m 257
 96 0 l 257
 156 0 l 257
 721.246 1553 l 257
 661.246 1553 l 257
800.154 1550 m 257
 779.407 1493 l 257
 1275.78 961 l 257
 1298.34 1023 l 257
 800.154 1550 l 257
257.11 58 m 257
 236 0 l 257
 1277.41 960 l 257
 1300.34 1023 l 257
 257.11 58 l 257
721.246 1553 m 257
 699.407 1493 l 257
 779.407 1493 l 257
 801.246 1553 l 257
 721.246 1553 l 257
179.11 58 m 257
 158 0 l 257
 236 0 l 257
 257.11 58 l 257
 179.11 58 l 257
EndSplineSet
EndChar

StartChar: Dcroat
Encoding: 23 272 23
GlifName: D_croat
Width: 1024
VWidth: 0
GlyphClass: 2
Flags: W
AnchorPoint: "top" 773 1662 basechar 0
AnchorPoint: "base" 300 -152 basechar 0
LayerCount: 2
Fore
SplineSet
157.142 935 m 257
 135.667 876 l 257
 611.667 876 l 257
 633.142 935 l 257
 157.142 935 l 257
486.983 1550 m 257
 -77.1709 0 l 257
 -15.1709 0 l 257
 548.983 1550 l 257
 486.983 1550 l 257
812.983 1550 m 257
 790.417 1488 l 257
 1058.59 906 l 257
 1101.17 1023 l 257
 812.983 1550 l 257
279.031 61 m 257
 256.829 0 l 257
 1061.86 915 l 257
 1101.17 1023 l 257
 279.031 61 l 257
532.983 1550 m 257
 510.417 1488 l 257
 790.417 1488 l 257
 812.983 1550 l 257
 532.983 1550 l 257
-12.9688 61 m 257
 -35.1709 0 l 257
 256.829 0 l 257
 279.031 61 l 257
 -12.9688 61 l 257
EndSplineSet
EndChar

StartChar: E
Encoding: 24 69 24
GlifName: E_
Width: 1024
VWidth: 0
GlyphClass: 2
Flags: W
AnchorPoint: "top" 1007.12 1633 basechar 0
AnchorPoint: "base" 565.123 -80 basechar 0
LayerCount: 2
Fore
SplineSet
670.154 1550 m 257
 106 0 l 257
 165 0 l 257
 729.154 1550 l 257
 670.154 1550 l 257
707.246 1553 m 257
 691.315 1490 l 257
 1445.32 1490 l 257
 1468.25 1553 l 257
 707.246 1553 l 257
170.838 60 m 257
 149 0 l 257
 918 0 l 257
 939.838 60 l 257
 170.838 60 l 257
460.65 859 m 257
 438.448 798 l 257
 962.448 798 l 257
 984.65 859 l 257
 460.65 859 l 257
EndSplineSet
EndChar

StartChar: Eng
Encoding: 33 330 33
GlifName: E_ng
Width: 1024
VWidth: 0
GlyphClass: 2
Flags: W
AnchorPoint: "top" 885 1630 basechar 0
AnchorPoint: "base" 149 -442 basechar 0
LayerCount: 2
Fore
SplineSet
108.625 -374 m 257
 93.9229 -408 l 257
 480.923 -408 l 257
 495.625 -374 l 257
 108.625 -374 l 257
372.738 1490 m 257
 -169.577 0 l 257
 -125.577 0 l 257
 416.738 1490 l 257
 372.738 1490 l 257
1111.64 1476 m 257
 425.923 -408 l 257
 481.923 -408 l 257
 1167.64 1476 l 257
 1111.64 1476 l 257
394.577 1550 m 257
 371.875 1478 l 257
 1170.88 1478 l 257
 1193.58 1550 l 257
 394.577 1550 l 257
EndSplineSet
EndChar

StartChar: Eth
Encoding: 35 208 35
GlifName: E_th
Width: 1024
VWidth: 0
GlyphClass: 2
Flags: W
AnchorPoint: "top" 680 1630 basechar 0
AnchorPoint: "base" 122 -122 basechar 0
LayerCount: 2
Fore
SplineSet
155.642 935 m 257
 133.075 873 l 257
 440.075 873 l 257
 462.642 935 l 257
 155.642 935 l 257
487.575 1553 m 257
 -77.6709 0 l 257
 -16.6709 0 l 257
 548.575 1553 l 257
 487.575 1553 l 257
813.575 1553 m 257
 788.461 1484 l 257
 1080.2 964 l 257
 1101.67 1023 l 257
 813.575 1553 l 257
278.167 60 m 257
 256.329 0 l 257
 1080.2 964 l 257
 1101.67 1023 l 257
 278.167 60 l 257
527.575 1553 m 257
 502.461 1484 l 257
 788.461 1484 l 257
 813.575 1553 l 257
 527.575 1553 l 257
-7.83301 60 m 257
 -29.6709 0 l 257
 256.329 0 l 257
 278.167 60 l 257
 -7.83301 60 l 257
EndSplineSet
EndChar

StartChar: Euro
Encoding: 36 8364 36
GlifName: E_uro
Width: 1024
VWidth: 0
GlyphClass: 2
Flags: W
LayerCount: 2
Fore
SplineSet
21.2393 520 m 257
 -3.875 451 l 257
 633.125 451 l 257
 658.239 520 l 257
 21.2393 520 l 257
155.533 856 m 257
 130.783 788 l 257
 739.783 788 l 257
 764.533 856 l 257
 155.533 856 l 257
472.316 1023 m 257
 165.125 179 l 257
 245.125 179 l 257
 552.316 1023 l 257
 472.316 1023 l 257
1012.34 1633 m 257
 472.316 1023 l 257
 552.316 1023 l 257
 1027.88 1607 l 257
 1012.34 1633 l 257
165.125 179 m 257
 296.203 -406 l 257
 356.203 -406 l 257
 245.125 179 l 257
 165.125 179 l 257
EndSplineSet
EndChar

StartChar: F
Encoding: 37 70 37
GlifName: F_
Width: 1024
VWidth: 0
GlyphClass: 2
Flags: W
AnchorPoint: "top" 1003 1652 basechar 0
AnchorPoint: "base" 266 -71 basechar 0
LayerCount: 2
Fore
SplineSet
671.246 1553 m 257
 106 0 l 257
 164 0 l 257
 729.246 1553 l 257
 671.246 1553 l 257
729.246 1553 m 257
 708.863 1497 l 257
 1462.86 1497 l 257
 1483.25 1553 l 257
 729.246 1553 l 257
470.471 864 m 257
 449.36 806 l 257
 1039.36 806 l 257
 1060.47 864 l 257
 470.471 864 l 257
EndSplineSet
EndChar

StartChar: G
Encoding: 38 71 38
GlifName: G_
Width: 1024
VWidth: 0
GlyphClass: 2
Flags: W
AnchorPoint: "top" 1014.26 1653 basechar 0
AnchorPoint: "base" 556.256 -50 basechar 0
LayerCount: 2
Fore
SplineSet
671.512 1529 m 257
 115 0 l 257
 174 0 l 257
 730.512 1529 l 257
 671.512 1529 l 257
724.512 1529 m 257
 702.672 1469 l 257
 1407.67 1469 l 257
 1429.51 1529 l 257
 724.512 1529 l 257
167.838 60 m 257
 146 0 l 257
 909 0 l 257
 930.838 60 l 257
 167.838 60 l 257
1052.19 561 m 257
 854.553 18 l 257
 915.553 18 l 257
 1113.19 561 l 257
 1052.19 561 l 257
EndSplineSet
EndChar

StartChar: H
Encoding: 42 72 42
GlifName: H_
Width: 1024
VWidth: 0
GlyphClass: 2
Flags: W
AnchorPoint: "top" 1004.62 1626 basechar 0
AnchorPoint: "base" 550.623 -54 basechar 0
LayerCount: 2
Fore
SplineSet
679.246 1553 m 257
 114 0 l 257
 173 0 l 257
 738.246 1553 l 257
 679.246 1553 l 257
1414.25 1553 m 257
 849 0 l 257
 910 0 l 257
 1475.25 1553 l 257
 1414.25 1553 l 257
491.944 923 m 257
 470.471 864 l 257
 1187.47 864 l 257
 1208.94 923 l 257
 491.944 923 l 257
EndSplineSet
EndChar

StartChar: Hbar
Encoding: 43 294 43
GlifName: H_bar
Width: 1024
VWidth: 0
GlyphClass: 2
Flags: W
LayerCount: 2
Fore
SplineSet
379.548 1540 m 257
 -180.967 0 l 257
 -120.967 0 l 257
 439.548 1540 l 257
 379.548 1540 l 257
1115.55 1540 m 257
 555.033 0 l 257
 615.033 0 l 257
 1175.55 1540 l 257
 1115.55 1540 l 257
231.375 1023 m 257
 208.081 959 l 257
 920.081 959 l 257
 943.375 1023 l 257
 231.375 1023 l 257
280.967 1434 m 257
 259.128 1374 l 257
 1183.13 1374 l 257
 1204.97 1434 l 257
 280.967 1434 l 257
EndSplineSet
EndChar

StartChar: I
Encoding: 45 73 45
GlifName: I_
Width: 1024
VWidth: 0
GlyphClass: 2
Flags: W
AnchorPoint: "top" 1041.67 1653 basechar 0
AnchorPoint: "base" 495.669 -82 basechar 0
LayerCount: 2
Fore
SplineSet
718.154 1550 m 257
 695.952 1489 l 257
 1396.95 1489 l 257
 1419.15 1550 l 257
 718.154 1550 l 257
1029.42 1515 m 257
 490.375 34 l 257
 549.375 34 l 257
 1088.42 1515 l 257
 1029.42 1515 l 257
158.022 66 m 257
 136.184 6 l 257
 892.184 6 l 257
 914.022 66 l 257
 158.022 66 l 257
EndSplineSet
EndChar

StartChar: J
Encoding: 56 74 56
GlifName: J_
Width: 1024
VWidth: 0
GlyphClass: 2
Flags: W
AnchorPoint: "base" 493 -72 basechar 0
AnchorPoint: "top" 1479.89 1625 basechar 0
LayerCount: 2
Fore
SplineSet
1395.78 1527 m 257
 840 0 l 257
 900 0 l 257
 1455.78 1527 l 257
 1395.78 1527 l 257
145.838 60 m 257
 124 0 l 257
 866 0 l 257
 887.838 60 l 257
 145.838 60 l 257
307.076 503 m 257
 133.826 27 l 257
 193.826 27 l 257
 367.076 503 l 257
 307.076 503 l 257
EndSplineSet
EndChar

StartChar: K
Encoding: 58 75 58
GlifName: K_
Width: 1024
VWidth: 0
GlyphClass: 2
Flags: W
AnchorPoint: "base" 417 -60 basechar 0
AnchorPoint: "top" 1024.99 1642 basechar 0
LayerCount: 2
Fore
SplineSet
737.246 1553 m 257
 173.82 5 l 257
 233.82 5 l 257
 797.246 1553 l 257
 737.246 1553 l 257
599.43 1015 m 257
 573.588 944 l 257
 1382.15 1550 l 257
 1312.15 1550 l 257
 599.43 1015 l 257
569.948 934 m 257
 517.19 844 l 257
 802 0 l 257
 852 0 l 257
 569.948 934 l 257
EndSplineSet
EndChar

StartChar: L
Encoding: 59 76 59
GlifName: L_
Width: 1024
VWidth: 0
GlyphClass: 2
Flags: W
AnchorPoint: "base" 493 -80 basechar 0
AnchorPoint: "top" 755.102 1622 basechar 0
LayerCount: 2
Fore
SplineSet
697.246 1553 m 257
 132 0 l 257
 192 0 l 257
 757.246 1553 l 257
 697.246 1553 l 257
169.203 61 m 257
 147 0 l 257
 892 0 l 257
 914.203 61 l 257
 169.203 61 l 257
EndSplineSet
EndChar

StartChar: Lcaron
Encoding: 61 317 61
GlifName: L_caron
Width: 1024
VWidth: 0
GlyphClass: 2
Flags: W
LayerCount: 2
Fore
SplineSet
583.992 1542 m 257
 22.75 0 l 257
 84.75 0 l 257
 645.992 1542 l 257
 583.992 1542 l 257
73.3164 62 m 257
 50.75 0 l 257
 858.75 0 l 257
 881.316 62 l 257
 73.3164 62 l 257
961.25 1496 m 257
 876.809 1264 l 257
 916.809 1264 l 257
 1001.25 1496 l 257
 961.25 1496 l 257
EndSplineSet
EndChar

StartChar: Lslash
Encoding: 63 321 63
GlifName: L_slash
Width: 1024
VWidth: 0
GlyphClass: 2
Flags: W
LayerCount: 2
Fore
SplineSet
644.096 1542 m 257
 82.8535 0 l 257
 142.854 0 l 257
 704.096 1542 l 257
 644.096 1542 l 257
130.146 64 m 257
 106.854 0 l 257
 917.854 0 l 257
 941.146 64 l 257
 130.146 64 l 257
256.154 902 m 257
 323.051 866 l 257
 830.572 1068 l 257
 763.676 1104 l 257
 256.154 902 l 257
EndSplineSet
EndChar

StartChar: M
Encoding: 64 77 64
GlifName: M_
Width: 1024
VWidth: 0
GlyphClass: 2
Flags: W
AnchorPoint: "base" 505 -48 basechar 0
AnchorPoint: "top" 1014.62 1630 basechar 0
LayerCount: 2
Fore
SplineSet
665.246 1553 m 257
 100 0 l 257
 160 0 l 257
 725.246 1553 l 257
 665.246 1553 l 257
1427.25 1553 m 257
 862 0 l 257
 924 0 l 257
 1489.25 1553 l 257
 1427.25 1553 l 257
665.246 1553 m 257
 851.981 1033 l 257
 919.981 1033 l 257
 725.246 1553 l 257
 665.246 1553 l 257
1427.25 1553 m 257
 851.981 1033 l 257
 919.981 1033 l 257
 1489.25 1553 l 257
 1427.25 1553 l 257
EndSplineSet
EndChar

StartChar: N
Encoding: 65 78 65
GlifName: N_
Width: 1024
VWidth: 0
GlyphClass: 2
Flags: W
AnchorPoint: "top" 1012.62 1642 basechar 0
AnchorPoint: "base" 540.623 -48 basechar 0
LayerCount: 2
Fore
SplineSet
663.246 1553 m 257
 98 0 l 257
 158 0 l 257
 723.246 1553 l 257
 663.246 1553 l 257
1431.25 1553 m 257
 866 0 l 257
 926 0 l 257
 1491.25 1553 l 257
 1431.25 1553 l 257
663.246 1553 m 257
 866 0 l 257
 926 0 l 257
 723.246 1553 l 257
 663.246 1553 l 257
EndSplineSet
EndChar

StartChar: O
Encoding: 69 79 69
GlifName: O_
Width: 1024
VWidth: 0
GlyphClass: 2
Flags: W
AnchorPoint: "top" 1021.62 1658 basechar 0
AnchorPoint: "base" 526.623 -66 basechar 0
LayerCount: 2
Fore
SplineSet
677.246 1553 m 257
 112 0 l 257
 171 0 l 257
 736.246 1553 l 257
 677.246 1553 l 257
1418.25 1553 m 257
 853 0 l 257
 912 0 l 257
 1477.25 1553 l 257
 1418.25 1553 l 257
715.246 1553 m 257
 693.407 1493 l 257
 1425.41 1493 l 257
 1447.25 1553 l 257
 715.246 1553 l 257
174.202 61 m 257
 152 0 l 257
 890 0 l 257
 912.202 61 l 257
 174.202 61 l 257
EndSplineSet
EndChar

StartChar: OE
Encoding: 70 338 70
GlifName: O_E_
Width: 1024
VWidth: 0
GlyphClass: 2
Flags: W
AnchorPoint: "top" 731 1646 basechar 0
AnchorPoint: "base" 150 -71 basechar 0
LayerCount: 2
Fore
SplineSet
409.623 1553 m 257
 -155.623 0 l 257
 -96.623 0 l 257
 468.623 1553 l 257
 409.623 1553 l 257
873.623 1553 m 257
 308.377 0 l 257
 367.377 0 l 257
 932.623 1553 l 257
 873.623 1553 l 257
447.623 1553 m 257
 425.784 1493 l 257
 1157.78 1493 l 257
 1179.62 1553 l 257
 447.623 1553 l 257
-93.4209 61 m 257
 -115.623 0 l 257
 622.377 0 l 257
 644.579 61 l 257
 -93.4209 61 l 257
653.027 859 m 257
 630.825 798 l 257
 853.825 798 l 257
 876.027 859 l 257
 653.027 859 l 257
EndSplineSet
EndChar

StartChar: Oslash
Encoding: 79 216 79
GlifName: O_slash
Width: 1024
VWidth: 0
GlyphClass: 2
Flags: W
AnchorPoint: "top" 794 1656 basechar 0
AnchorPoint: "base" 210 -70 basechar 0
LayerCount: 2
Fore
SplineSet
1212.01 1630 m 257
 -228.728 -48 l 257
 -198.555 -75 l 257
 1252.73 1588 l 257
 1212.01 1630 l 257
387.258 1540 m 257
 -173.257 0 l 257
 -113.257 0 l 257
 447.258 1540 l 257
 387.258 1540 l 257
1127.17 1537 m 257
 567.743 0 l 257
 626.743 0 l 257
 1186.17 1537 l 257
 1127.17 1537 l 257
416.529 1538 m 257
 394.691 1478 l 257
 1134.69 1478 l 257
 1156.53 1538 l 257
 416.529 1538 l 257
-105.959 75 m 257
 -133.257 0 l 257
 567.743 0 l 257
 595.041 75 l 257
 -105.959 75 l 257
EndSplineSet
EndChar

StartChar: P
Encoding: 82 80 82
GlifName: P_
Width: 1024
VWidth: 0
GlyphClass: 2
Flags: W
AnchorPoint: "base" 149 -80 basechar 0
AnchorPoint: "top" 1017.08 1634 basechar 0
LayerCount: 2
Fore
SplineSet
690.694 1535 m 257
 132 0 l 257
 191 0 l 257
 749.694 1535 l 257
 690.694 1535 l 257
696.154 1550 m 257
 667.765 1472 l 257
 1427.76 1472 l 257
 1456.15 1550 l 257
 696.154 1550 l 257
1390.06 1536 m 257
 1148.38 872 l 257
 1209.38 872 l 257
 1451.06 1536 l 257
 1390.06 1536 l 257
515.856 931 m 257
 494.019 871 l 257
 1181.02 871 l 257
 1202.86 931 l 257
 515.856 931 l 257
EndSplineSet
EndChar

StartChar: Q
Encoding: 83 81 83
GlifName: Q_
Width: 1024
VWidth: 0
GlyphClass: 2
Flags: W
VStem: 648 76
AnchorPoint: "base" 499 -41 basechar 0
AnchorPoint: "top" 1066 1652 basechar 0
LayerCount: 2
Fore
SplineSet
677.246 1553 m 257
 112 0 l 257
 170 0 l 257
 735.246 1553 l 257
 677.246 1553 l 257
1419.25 1553 m 257
 854 0 l 257
 912 0 l 257
 1477.25 1553 l 257
 1419.25 1553 l 257
717.246 1553 m 257
 696.499 1496 l 257
 1406.5 1496 l 257
 1427.25 1553 l 257
 717.246 1553 l 257
174.566 62 m 257
 152 0 l 257
 864 0 l 257
 886.566 62 l 257
 174.566 62 l 257
620.731 13 m 257
 647.75 -204 l 257
 723.945 -165 l 257
 682.927 52 l 257
 620.731 13 l 257
EndSplineSet
PickledDataWithLists: "(dp0
Vcom.fontlab.hintData
p1
(dp2
Vvhints
p3
(lp4
(dp5
Vposition
p6
I648
sVwidth
p7
I76
sass."
EndChar

StartChar: R
Encoding: 84 82 84
GlifName: R_
Width: 1024
VWidth: 0
GlyphClass: 2
Flags: W
HStem: 868 7<732.474 732.474 732.474 790.474>
VStem: 846 56<0 0>
AnchorPoint: "base" 469 -36 basechar 0
AnchorPoint: "top" 1024.08 1634 basechar 0
LayerCount: 2
Fore
SplineSet
686.154 1550 m 257
 122 0 l 257
 182 0 l 257
 746.154 1550 l 257
 686.154 1550 l 257
728.154 1550 m 257
 706.68 1491 l 257
 1398.68 1491 l 257
 1420.15 1550 l 257
 728.154 1550 l 257
1386.15 1550 m 257
 1139.38 872 l 257
 1201.38 872 l 257
 1448.15 1550 l 257
 1386.15 1550 l 257
490.128 929 m 257
 467.926 868 l 257
 1187.93 868 l 257
 1210.13 929 l 257
 490.128 929 l 257
732.474 875 m 257
 846 0 l 257
 902 0 l 257
 790.474 875 l 257
 732.474 875 l 257
EndSplineSet
PickledDataWithLists: "(dp0
Vcom.fontlab.hintData
p1
(dp2
Vhhints
p3
(lp4
(dp5
Vposition
p6
I868
sVwidth
p7
I7
sasVvhints
p8
(lp9
(dp10
g6
I846
sg7
I56
sass."
EndChar

StartChar: S
Encoding: 87 83 87
GlifName: S_
Width: 1024
VWidth: 0
GlyphClass: 2
Flags: W
AnchorPoint: "top" 993.623 1638 basechar 0
AnchorPoint: "base" 545.623 -54 basechar 0
LayerCount: 2
Fore
SplineSet
691.246 1553 m 257
 669.771 1494 l 257
 1267.77 1494 l 257
 1289.25 1553 l 257
 691.246 1553 l 257
687.242 1542 m 257
 500.161 1028 l 257
 559.161 1028 l 257
 746.242 1542 l 257
 687.242 1542 l 257
175.838 60 m 257
 154 0 l 257
 862 0 l 257
 883.838 60 l 257
 175.838 60 l 257
839 0 m 257
 898 0 l 257
 1027.21 355 l 257
 968.209 355 l 257
 839 0 l 257
500.161 1028 m 257
 968.209 355 l 257
 1027.21 355 l 257
 559.161 1028 l 257
 500.161 1028 l 257
EndSplineSet
EndChar

StartChar: T
Encoding: 92 84 92
GlifName: T_
Width: 1024
VWidth: 0
GlyphClass: 2
Flags: W
AnchorPoint: "top" 1066.81 1634 basechar 0
AnchorPoint: "base" 490.807 -70 basechar 0
LayerCount: 2
Fore
SplineSet
685.246 1553 m 257
 663.771 1494 l 257
 1447.77 1494 l 257
 1469.25 1553 l 257
 685.246 1553 l 257
1034.32 1512 m 257
 488.367 12 l 257
 546.367 12 l 257
 1092.32 1512 l 257
 1034.32 1512 l 257
EndSplineSet
EndChar

StartChar: Thorn
Encoding: 94 222 94
GlifName: T_horn
Width: 1024
VWidth: 0
GlyphClass: 2
Flags: W
LayerCount: 2
Fore
SplineSet
467.579 1542 m 257
 -90.3877 9 l 257
 -30.3877 9 l 257
 527.579 1542 l 257
 467.579 1542 l 257
405.66 1240 m 257
 386.369 1187 l 257
 1074.37 1187 l 257
 1093.66 1240 l 257
 405.66 1240 l 257
1054.39 1242 m 257
 795.605 531 l 257
 855.605 531 l 257
 1114.39 1242 l 257
 1054.39 1242 l 257
172.337 544 m 257
 150.498 484 l 257
 836.498 484 l 257
 858.337 544 l 257
 172.337 544 l 257
EndSplineSet
EndChar

StartChar: U
Encoding: 95 85 95
GlifName: U_
Width: 1024
VWidth: 0
GlyphClass: 2
Flags: W
AnchorPoint: "top" 1042.62 1626 basechar 0
AnchorPoint: "base" 518.623 -122 basechar 0
LayerCount: 2
Fore
SplineSet
722.246 1553 m 257
 157 0 l 257
 219 0 l 257
 784.246 1553 l 257
 722.246 1553 l 257
1372.25 1553 m 257
 807 0 l 257
 867 0 l 257
 1432.25 1553 l 257
 1372.25 1553 l 257
226.202 61 m 257
 204 0 l 257
 824 0 l 257
 846.202 61 l 257
 226.202 61 l 257
EndSplineSet
EndChar

StartChar: V
Encoding: 107 86 107
GlifName: V_
Width: 1024
VWidth: 0
GlyphClass: 2
Flags: W
VStem: 671 64
AnchorPoint: "top" 982.623 1642 basechar 0
AnchorPoint: "base" 530.623 -78 basechar 0
LayerCount: 2
Fore
SplineSet
671.246 1553 m 257
 514 0 l 257
 574 0 l 257
 735.246 1553 l 257
 671.246 1553 l 257
1413.25 1553 m 257
 514 0 l 257
 574 0 l 257
 1483.25 1553 l 257
 1413.25 1553 l 257
EndSplineSet
PickledDataWithLists: "(dp0
Vcom.fontlab.hintData
p1
(dp2
Vvhints
p3
(lp4
(dp5
Vposition
p6
I671
sVwidth
p7
I64
sass."
EndChar

StartChar: W
Encoding: 108 87 108
GlifName: W_
Width: 1024
VWidth: 0
GlyphClass: 2
Flags: W
AnchorPoint: "base" 488 -136 basechar 0
AnchorPoint: "top" 1091 1583 basechar 0
LayerCount: 2
Fore
SplineSet
667.154 1550 m 257
 103 0 l 257
 163 0 l 257
 727.154 1550 l 257
 667.154 1550 l 257
1418.97 1533 m 257
 865.367 12 l 257
 925.367 12 l 257
 1478.97 1533 l 257
 1418.97 1533 l 257
856.161 1028 m 257
 482 0 l 257
 542 0 l 257
 916.161 1028 l 257
 856.161 1028 l 257
132.838 60 m 257
 111 0 l 257
 921 0 l 257
 942.838 60 l 257
 132.838 60 l 257
EndSplineSet
EndChar

StartChar: X
Encoding: 113 88 113
GlifName: X_
Width: 1024
VWidth: 0
GlyphClass: 2
Flags: W
AnchorPoint: "top" 1025 1623 basechar 0
AnchorPoint: "base" 486 -32 basechar 0
LayerCount: 2
Fore
SplineSet
619.246 1553 m 257
 896 0 l 257
 970 0 l 257
 691.246 1553 l 257
 619.246 1553 l 257
70 0 m 257
 128 0 l 257
 1439.25 1553 l 257
 1363.25 1553 l 257
 70 0 l 257
EndSplineSet
EndChar

StartChar: Y
Encoding: 114 89 114
GlifName: Y_
Width: 1024
VWidth: 0
GlyphClass: 2
Flags: W
AnchorPoint: "top" 1076.06 1626 basechar 0
AnchorPoint: "base" 508.059 -74 basechar 0
LayerCount: 2
Fore
SplineSet
805.753 895 m 257
 480 0 l 257
 539 0 l 257
 864.753 895 l 257
 805.753 895 l 257
735.154 1550 m 257
 483.65 859 l 257
 544.65 859 l 257
 796.154 1550 l 257
 735.154 1550 l 257
1352.06 1536 m 257
 1105.65 859 l 257
 1165.65 859 l 257
 1412.06 1536 l 257
 1352.06 1536 l 257
551.488 919 m 257
 529.65 859 l 257
 1138.65 859 l 257
 1160.49 919 l 257
 551.488 919 l 257
EndSplineSet
EndChar

StartChar: Z
Encoding: 119 90 119
GlifName: Z_
Width: 1024
VWidth: 0
GlyphClass: 2
Flags: W
AnchorPoint: "top" 1061.15 1646 basechar 0
AnchorPoint: "base" 657.154 -50 basechar 0
LayerCount: 2
Fore
SplineSet
662.154 1550 m 257
 640.68 1491 l 257
 1468.68 1491 l 257
 1490.15 1550 l 257
 662.154 1550 l 257
120.838 60 m 257
 99 0 l 257
 926 0 l 257
 947.838 60 l 257
 120.838 60 l 257
1408.68 1491 m 257
 120.838 60 l 257
 180.838 60 l 257
 1468.68 1491 l 257
 1408.68 1491 l 257
EndSplineSet
EndChar

StartChar: a
Encoding: 123 97 123
GlifName: a
Width: 1024
VWidth: 0
GlyphClass: 2
Flags: W
AnchorPoint: "top" 888.342 1116 basechar 0
AnchorPoint: "base" 525.342 -74 basechar 0
LayerCount: 2
Fore
SplineSet
540.705 1024 m 257
 516.319 957 l 257
 1165.32 957 l 257
 1189.34 1023 l 257
 540.705 1024 l 257
1151.34 1023 m 257
 779 0 l 257
 856 0 l 257
 1228.34 1023 l 257
 1151.34 1023 l 257
389.382 600 m 257
 366.816 538 l 257
 990.816 538 l 257
 1013.38 600 l 257
 389.382 600 l 257
382.011 577 m 257
 172 0 l 257
 243 0 l 257
 453.011 577 l 257
 382.011 577 l 257
207.934 74 m 257
 181 0 l 257
 845 0 l 257
 871.934 74 l 257
 207.934 74 l 257
EndSplineSet
EndChar

StartChar: acute
Encoding: 127 180 127
GlifName: acute
Width: 1024
VWidth: 0
GlyphClass: 2
Flags: W
LayerCount: 2
Fore
SplineSet
585.822 1553 m 257
 364.465 1302 l 257
 435.723 1256 l 257
 659.535 1511 l 257
 585.822 1553 l 257
EndSplineSet
EndChar

StartChar: acutecomb
Encoding: 128 769 128
GlifName: acutecomb
Width: 0
VWidth: 0
GlyphClass: 4
Flags: W
AnchorPoint: "top" 10 763 mark 0
LayerCount: 2
Fore
SplineSet
144 976 m 257
 -3 791 l 257
 38 757 l 257
 184 942 l 257
 144 976 l 257
EndSplineSet
EndChar

StartChar: ae
Encoding: 130 230 130
GlifName: ae
Width: 1024
VWidth: 0
GlyphClass: 2
Flags: W
AnchorPoint: "top" 750 1125 basechar 0
AnchorPoint: "base" 302 -102 basechar 0
LayerCount: 2
Fore
SplineSet
227.171 1023 m 257
 204.604 961 l 257
 1094.6 961 l 257
 1117.17 1023 l 257
 227.171 1023 l 257
697.171 1023 m 257
 324.829 0 l 257
 384.829 0 l 257
 757.171 1023 l 257
 697.171 1023 l 257
96.8477 599 m 257
 74.6455 538 l 257
 914.646 538 l 257
 936.848 599 l 257
 96.8477 599 l 257
88.1123 575 m 257
 -121.171 0 l 257
 -61.1709 0 l 257
 148.112 575 l 257
 88.1123 575 l 257
-100.969 61 m 257
 -123.171 0 l 257
 796.829 0 l 257
 819.031 61 l 257
 -100.969 61 l 257
1085.17 1023 m 257
 908.646 538 l 257
 970.646 538 l 257
 1147.17 1023 l 257
 1085.17 1023 l 257
EndSplineSet
EndChar

StartChar: ampersand
Encoding: 134 38 134
GlifName: ampersand
Width: 1024
VWidth: 0
GlyphClass: 2
Flags: W
LayerCount: 2
Fore
SplineSet
593.709 1534 m 257
 569.029 43 l 257
 649.762 56 l 257
 671.709 1534 l 257
 593.709 1534 l 257
1113.32 1467 m 257
 1138.44 1536 l 257
 672.438 1536 l 257
 647.323 1467 l 257
 1113.32 1467 l 257
1061.88 1485 m 257
 887.533 1006 l 257
 945.533 1006 l 257
 1119.88 1485 l 257
 1061.88 1485 l 257
263.728 1045 m 257
 241.89 985 l 257
 937.89 985 l 257
 959.728 1045 l 257
 263.728 1045 l 257
263.728 1045 m 257
 -107.886 24 l 257
 -17.8857 24 l 257
 353.728 1045 l 257
 263.728 1045 l 257
-90.7793 71 m 257
 -114.438 6 l 257
 693.562 6 l 257
 717.221 71 l 257
 -90.7793 71 l 257
EndSplineSet
EndChar

StartChar: asciicircum
Encoding: 138 94 138
GlifName: asciicircum
Width: 1024
VWidth: 0
GlyphClass: 2
Flags: W
LayerCount: 2
Fore
SplineSet
735.48 1023 m 257
 663.48 1023 l 257
 175.273 407 l 257
 216.898 373 l 257
 735.48 1023 l 257
672.027 1030 m 257
 753.623 364 l 257
 848.727 400 l 257
 746.027 1030 l 257
 672.027 1030 l 257
EndSplineSet
EndChar

StartChar: asciitilde
Encoding: 139 126 139
GlifName: asciitilde
Width: 1024
VWidth: 0
GlyphClass: 2
Flags: W
LayerCount: 2
Fore
SplineSet
372.732 766 m 257
 354.535 716 l 257
 678.693 645 l 257
 696.891 695 l 257
 372.732 766 l 257
112.352 710 m 257
 105.24 652 l 257
 354.535 716 l 257
 372.732 766 l 257
 112.352 710 l 257
696.891 695 m 257
 678.693 645 l 257
 915.652 796 l 257
 918.76 843 l 257
 696.891 695 l 257
EndSplineSet
EndChar

StartChar: asterisk
Encoding: 140 42 140
GlifName: asterisk
Width: 1024
VWidth: 0
GlyphClass: 2
Flags: W
LayerCount: 2
Fore
SplineSet
689.986 1297 m 257
 323.105 289 l 257
 423.105 289 l 257
 789.986 1297 l 257
 689.986 1297 l 257
291.574 1153 m 257
 750.24 424 l 257
 844.447 496 l 257
 376.689 1222 l 257
 291.574 1153 l 257
1008.68 1200 m 257
 -12.6602 449 l 257
 25.1426 399 l 257
 1036.66 1134 l 257
 1008.68 1200 l 257
EndSplineSet
EndChar

StartChar: at
Encoding: 141 64 141
GlifName: at
Width: 1024
VWidth: 0
GlyphClass: 2
Flags: W
LayerCount: 2
Fore
SplineSet
454.342 1023 m 257
 429.955 956 l 257
 1327.95 956 l 257
 1352.34 1023 l 257
 454.342 1023 l 257
957.654 598 m 257
 740 0 l 257
 808 0 l 257
 1025.65 598 l 257
 957.654 598 l 257
538.746 601 m 257
 520.549 551 l 257
 944.549 551 l 257
 962.746 601 l 257
 538.746 601 l 257
530.379 589 m 257
 320.367 12 l 257
 374.367 12 l 257
 584.379 589 l 257
 530.379 589 l 257
341.662 76 m 257
 314 0 l 257
 808 0 l 257
 835.662 76 l 257
 341.662 76 l 257
400.342 1023 m 257
 -53.1641 -223 l 257
 12.8359 -223 l 257
 466.342 1023 l 257
 400.342 1023 l 257
-39.1504 -179 m 257
 -67.9043 -258 l 257
 880.096 -258 l 257
 908.85 -179 l 257
 -39.1504 -179 l 257
1287.98 1033 m 257
 912 0 l 257
 998 0 l 257
 1373.98 1033 l 257
 1287.98 1033 l 257
781.662 76 m 257
 754 0 l 257
 944 0 l 257
 971.662 76 l 257
 781.662 76 l 257
EndSplineSet
EndChar

StartChar: b
Encoding: 143 98 143
GlifName: b
Width: 1024
VWidth: 0
GlyphClass: 2
Flags: W
AnchorPoint: "base" 469 -72 basechar 0
AnchorPoint: "top" 745.98 1622 basechar 0
LayerCount: 2
Fore
SplineSet
694.059 1536 m 257
 135 0 l 257
 195 0 l 257
 754.059 1536 l 257
 694.059 1536 l 257
553.98 1033 m 257
 531.779 972 l 257
 1195.78 972 l 257
 1217.98 1033 l 257
 553.98 1033 l 257
1204.98 1033 m 257
 829 0 l 257
 889 0 l 257
 1264.98 1033 l 257
 1204.98 1033 l 257
191.838 60 m 257
 170 0 l 257
 867 0 l 257
 888.838 60 l 257
 191.838 60 l 257
EndSplineSet
EndChar

StartChar: backslash
Encoding: 144 92 144
GlifName: backslash
Width: 1024
VWidth: 0
GlyphClass: 2
Flags: W
LayerCount: 2
Fore
SplineSet
474.577 1550 m 257
 466.423 0 l 257
 544.423 0 l 257
 557.577 1550 l 257
 474.577 1550 l 257
EndSplineSet
EndChar

StartChar: bar
Encoding: 145 124 145
GlifName: bar
Width: 1024
VWidth: 0
GlyphClass: 2
Flags: W
LayerCount: 2
Fore
SplineSet
749.527 1435 m 257
 194.473 -90 l 257
 274.473 -90 l 257
 829.527 1435 l 257
 749.527 1435 l 257
EndSplineSet
EndChar

StartChar: braceleft
Encoding: 146 123 146
GlifName: braceleft
Width: 1024
VWidth: 0
GlyphClass: 2
Flags: W
LayerCount: 2
Fore
SplineSet
691.795 1544 m 257
 434.832 838 l 257
 518.832 838 l 257
 775.795 1544 l 257
 691.795 1544 l 257
296.148 424 m 257
 37.7305 -286 l 257
 127.73 -286 l 257
 386.148 424 l 257
 296.148 424 l 257
91.9648 690 m 257
 70.127 630 l 257
 518.832 838 l 257
 434.832 838 l 257
 91.9648 690 l 257
91.9648 690 m 257
 70.127 630 l 257
 294.514 425 l 257
 387.514 425 l 257
 91.9648 690 l 257
714.27 1603 m 257
 659.311 1452 l 257
 971.715 1574 l 257
 986.27 1603 l 257
 714.27 1603 l 257
91.8691 -140 m 257
 38.3672 -287 l 257
 314.367 -287 l 257
 319.098 -274 l 257
 91.8691 -140 l 257
EndSplineSet
EndChar

StartChar: braceright
Encoding: 147 125 147
GlifName: braceright
Width: 1024
VWidth: 0
GlyphClass: 2
Flags: W
LayerCount: 2
Fore
SplineSet
985.932 1544 m 257
 885.932 1544 l 257
 628.969 838 l 257
 728.969 838 l 257
 985.932 1544 l 257
564.285 424 m 257
 471.285 424 l 257
 212.865 -286 l 257
 305.865 -286 l 257
 564.285 424 l 257
948.102 690 m 257
 723.969 838 l 257
 624.969 838 l 257
 926.262 630 l 257
 948.102 690 l 257
948.102 690 m 257
 471.285 424 l 257
 564.285 424 l 257
 926.262 630 l 257
 948.102 690 l 257
1008.41 1603 m 257
 733.406 1603 l 257
 726.85 1574 l 257
 953.445 1452 l 257
 1008.41 1603 l 257
344.006 -140 m 257
 19.2344 -274 l 257
 15.5938 -284 l 257
 291.594 -284 l 257
 344.006 -140 l 257
EndSplineSet
EndChar

StartChar: bracketleft
Encoding: 148 91 148
GlifName: bracketleft
Width: 1024
VWidth: 0
GlyphClass: 2
Flags: W
LayerCount: 2
Fore
SplineSet
704.979 1542 m 257
 55.6562 -242 l 257
 112.656 -242 l 257
 761.979 1542 l 257
 704.979 1542 l 257
759.344 1543 m 257
 736.777 1481 l 257
 945.777 1481 l 257
 968.344 1543 l 257
 759.344 1543 l 257
118.59 -168 m 257
 91.6562 -242 l 257
 323.656 -242 l 257
 350.59 -168 l 257
 118.59 -168 l 257
EndSplineSet
EndChar

StartChar: bracketright
Encoding: 149 93 149
GlifName: bracketright
Width: 1024
VWidth: 0
GlyphClass: 2
Flags: W
LayerCount: 2
Fore
SplineSet
911.662 1542 m 257
 262.338 -242 l 257
 324.338 -242 l 257
 973.662 1542 l 257
 911.662 1542 l 257
700.025 1543 m 257
 676.367 1478 l 257
 904.367 1478 l 257
 928.025 1543 l 257
 700.025 1543 l 257
78.3652 -165 m 257
 50.3379 -242 l 257
 289.338 -242 l 257
 317.365 -165 l 257
 78.3652 -165 l 257
EndSplineSet
EndChar

StartChar: breve
Encoding: 150 728 150
GlifName: breve
Width: 1024
VWidth: 0
GlyphClass: 2
Flags: W
LayerCount: 2
Fore
SplineSet
659.711 1550 m 257
 634.232 1480 l 257
 824.711 1550 l 257
 859.289 1645 l 257
 659.711 1550 l 257
335.711 1550 m 257
 310.232 1480 l 257
 634.232 1480 l 257
 659.711 1550 l 257
 335.711 1550 l 257
193.828 1630 m 257
 164.711 1550 l 257
 310.232 1480 l 257
 335.711 1550 l 257
 193.828 1630 l 257
EndSplineSet
EndChar

StartChar: brokenbar
Encoding: 151 166 151
GlifName: brokenbar
Width: 1024
VWidth: 0
GlyphClass: 2
Flags: W
LayerCount: 2
Fore
SplineSet
131.854 -332 m 257
 175.854 -332 l 257
 544.919 682 l 257
 500.919 682 l 257
 131.854 -332 l 257
547.228 790 m 257
 584.228 790 l 257
 892.146 1636 l 257
 855.146 1636 l 257
 547.228 790 l 257
EndSplineSet
EndChar

StartChar: bullet
Encoding: 152 8226 152
GlifName: bullet
Width: 1024
VWidth: 0
GlyphClass: 2
Flags: W
LayerCount: 2
Fore
SplineSet
465.027 1009 m 257
 404.973 844 l 257
 558.973 844 l 257
 619.027 1009 l 257
 465.027 1009 l 257
EndSplineSet
EndChar

StartChar: c
Encoding: 153 99 153
GlifName: c
Width: 1024
VWidth: 0
GlyphClass: 2
Flags: W
AnchorPoint: "base" 448 -69 basechar 0
AnchorPoint: "top" 932.342 1114 basechar 0
LayerCount: 2
Fore
SplineSet
536.342 1023 m 257
 515.959 967 l 257
 1211.96 967 l 257
 1232.34 1023 l 257
 536.342 1023 l 257
524.146 984 m 257
 166 0 l 257
 226 0 l 257
 584.146 984 l 257
 524.146 984 l 257
235.838 60 m 257
 214 0 l 257
 854 0 l 257
 875.838 60 l 257
 235.838 60 l 257
EndSplineSet
EndChar

StartChar: caron
Encoding: 155 711 155
GlifName: caron
Width: 1024
VWidth: 0
GlyphClass: 2
Flags: W
LayerCount: 2
Fore
SplineSet
397.441 1068 m 257
 375.459 1395 l 257
 342.271 1378 l 257
 361.441 1068 l 257
 397.441 1068 l 257
364.078 1067 m 257
 401.078 1067 l 257
 681.729 1382 l 257
 647.279 1400 l 257
 364.078 1067 l 257
EndSplineSet
EndChar

StartChar: cedilla
Encoding: 160 184 160
GlifName: cedilla
Width: 1024
VWidth: 0
GlyphClass: 2
Flags: W
LayerCount: 2
Fore
SplineSet
422.765 236 m 257
 336.867 0 l 257
 394.867 0 l 257
 480.765 236 l 257
 422.765 236 l 257
236.952 -291 m 257
 214.75 -352 l 257
 660.75 -352 l 257
 682.952 -291 l 257
 236.952 -291 l 257
750.25 56 m 257
 614.853 -316 l 257
 673.853 -316 l 257
 809.25 56 l 257
 750.25 56 l 257
363.25 56 m 257
 342.867 0 l 257
 788.867 0 l 257
 809.25 56 l 257
 363.25 56 l 257
EndSplineSet
EndChar

StartChar: cent
Encoding: 161 162 161
GlifName: cent
Width: 1024
VWidth: 0
GlyphClass: 2
Flags: W
LayerCount: 2
Fore
SplineSet
847.406 1183 m 257
 787.406 1183 l 257
 325.527 -86 l 257
 385.527 -86 l 257
 847.406 1183 l 257
349.171 1023 m 257
 328.425 966 l 257
 1024.42 966 l 257
 1045.17 1023 l 257
 349.171 1023 l 257
336.976 984 m 257
 -21.1709 0 l 257
 43.8291 0 l 257
 401.976 984 l 257
 336.976 984 l 257
50.0312 61 m 257
 27.8291 0 l 257
 666.829 0 l 257
 689.031 61 l 257
 50.0312 61 l 257
EndSplineSet
EndChar

StartChar: circumflex
Encoding: 162 710 162
GlifName: circumflex
Width: 1024
VWidth: 0
GlyphClass: 2
Flags: W
LayerCount: 2
Fore
SplineSet
624.559 2308 m 257
 588.559 2308 l 257
 343.729 1998 l 257
 364.541 1981 l 257
 624.559 2308 l 257
592.287 2310 m 257
 632.721 1976 l 257
 680.271 1994 l 257
 629.287 2310 l 257
 592.287 2310 l 257
EndSplineSet
EndChar

StartChar: colon
Encoding: 163 58 163
GlifName: colon
Width: 1024
VWidth: 0
GlyphClass: 2
Flags: W
HStem: 7 546<446.549 645.275 582.549 645.275>
LayerCount: 2
Fore
SplineSet
503.691 164 m 257
 446.549 7 l 257
 582.549 7 l 257
 639.691 164 l 257
 503.691 164 l 257
645.275 553 m 257
 588.133 396 l 257
 724.133 396 l 257
 781.275 553 l 257
 645.275 553 l 257
EndSplineSet
PickledDataWithLists: "(dp0
Vcom.fontlab.hintData
p1
(dp2
Vhhints
p3
(lp4
(dp5
Vposition
p6
I7
sVwidth
p7
I546
sass."
EndChar

StartChar: comma
Encoding: 164 44 164
GlifName: comma
Width: 1024
VWidth: 0
GlyphClass: 2
Flags: W
LayerCount: 2
Fore
SplineSet
472.571 165 m 257
 415.429 8 l 257
 551.429 8 l 257
 608.571 165 l 257
 472.571 165 l 257
545.652 135 m 257
 418.483 -99 l 257
 450.649 -148 l 257
 555.979 26 l 257
 545.652 135 l 257
EndSplineSet
EndChar

StartChar: copyright
Encoding: 165 169 165
GlifName: copyright
Width: 1024
VWidth: 0
GlyphClass: 2
Flags: W
LayerCount: 2
Fore
SplineSet
292.804 1540 m 257
 -267.711 0 l 257
 -207.711 0 l 257
 352.804 1540 l 257
 292.804 1540 l 257
1231.71 1537 m 257
 672.289 0 l 257
 732.289 0 l 257
 1291.71 1537 l 257
 1231.71 1537 l 257
344.075 1538 m 257
 321.509 1476 l 257
 1265.51 1476 l 257
 1288.08 1538 l 257
 344.075 1538 l 257
-233.873 60 m 257
 -255.711 0 l 257
 714.289 0 l 257
 736.127 60 l 257
 -233.873 60 l 257
413.962 1197 m 257
 391.396 1135 l 257
 825.396 1135 l 257
 847.962 1197 l 257
 413.962 1197 l 257
398.311 1154 m 257
 102.039 340 l 257
 162.039 340 l 257
 458.311 1154 l 257
 398.311 1154 l 257
107.862 356 m 257
 85.2959 294 l 257
 525.296 294 l 257
 547.862 356 l 257
 107.862 356 l 257
EndSplineSet
EndChar

StartChar: currency
Encoding: 166 164 166
GlifName: currency
Width: 1024
VWidth: 0
GlyphClass: 2
Flags: W
LayerCount: 2
Fore
SplineSet
284.533 1182 m 257
 -87.4453 160 l 257
 -27.4453 160 l 257
 344.533 1182 l 257
 284.533 1182 l 257
1043.26 1184 m 257
 670.555 160 l 257
 730.555 160 l 257
 1103.26 1184 l 257
 1043.26 1184 l 257
348.352 1187 m 257
 326.514 1127 l 257
 1026.51 1127 l 257
 1048.35 1187 l 257
 348.352 1187 l 257
-18.8789 222 m 257
 -41.4453 160 l 257
 678.555 160 l 257
 701.121 222 l 257
 -18.8789 222 l 257
235.646 1251 m 257
 194.154 1137 l 257
 338.154 1137 l 257
 379.646 1251 l 257
 235.646 1251 l 257
1068.01 1241 m 257
 1026.51 1127 l 257
 1168.51 1127 l 257
 1210.01 1241 l 257
 1068.01 1241 l 257
-144.516 223 m 257
 -186.008 109 l 257
 -42.0078 109 l 257
 -0.515625 223 l 257
 -144.516 223 l 257
698.393 220 m 257
 656.9 106 l 257
 800.9 106 l 257
 842.393 220 l 257
 698.393 220 l 257
EndSplineSet
EndChar

StartChar: d
Encoding: 167 100 167
GlifName: d
Width: 1024
VWidth: 0
GlyphClass: 2
Flags: W
AnchorPoint: "base" 484 -69 basechar 0
AnchorPoint: "top" 1478.78 1648 basechar 0
LayerCount: 2
Fore
SplineSet
1387.78 1527 m 257
 832 0 l 257
 892 0 l 257
 1447.78 1527 l 257
 1387.78 1527 l 257
548.342 1023 m 257
 527.596 966 l 257
 1217.6 966 l 257
 1238.34 1023 l 257
 548.342 1023 l 257
504.342 1023 m 257
 132 0 l 257
 192 0 l 257
 564.342 1023 l 257
 504.342 1023 l 257
193.475 59 m 257
 172 0 l 257
 844 0 l 257
 865.475 59 l 257
 193.475 59 l 257
EndSplineSet
EndChar

StartChar: dagger
Encoding: 168 8224 168
GlifName: dagger
Width: 1024
VWidth: 0
GlyphClass: 2
Flags: W
LayerCount: 2
Fore
SplineSet
300.664 1251 m 257
 282.102 1200 l 257
 888.102 1200 l 257
 906.664 1251 l 257
 300.664 1251 l 257
681.49 1550 m 257
 117.336 0 l 257
 183.336 0 l 257
 747.49 1550 l 257
 681.49 1550 l 257
EndSplineSet
EndChar

StartChar: daggerdbl
Encoding: 169 8225 169
GlifName: daggerdbl
Width: 1024
VWidth: 0
GlyphClass: 2
Flags: W
LayerCount: 2
Fore
SplineSet
140.392 823 m 257
 121.829 772 l 257
 727.829 772 l 257
 746.392 823 l 257
 140.392 823 l 257
296.171 1251 m 257
 277.608 1200 l 257
 883.608 1200 l 257
 902.171 1251 l 257
 296.171 1251 l 257
685.998 1550 m 257
 121.844 0 l 257
 183.844 0 l 257
 747.998 1550 l 257
 685.998 1550 l 257
EndSplineSet
EndChar

StartChar: dcaron
Encoding: 170 271 170
GlifName: dcaron
Width: 1024
VWidth: 0
GlyphClass: 2
Flags: W
LayerCount: 2
Fore
SplineSet
1041.53 1527 m 257
 485.75 0 l 257
 545.75 0 l 257
 1101.53 1527 l 257
 1041.53 1527 l 257
202.092 1023 m 257
 179.891 962 l 257
 855.891 962 l 257
 878.092 1023 l 257
 202.092 1023 l 257
158.092 1023 m 257
 -214.25 0 l 257
 -156.25 0 l 257
 216.092 1023 l 257
 158.092 1023 l 257
-176.412 60 m 257
 -198.25 0 l 257
 497.75 0 l 257
 519.588 60 l 257
 -176.412 60 l 257
1188.25 1496 m 257
 1103.81 1264 l 257
 1153.81 1264 l 257
 1238.25 1496 l 257
 1188.25 1496 l 257
EndSplineSet
EndChar

StartChar: dcroat
Encoding: 171 273 171
GlifName: dcroat
Width: 1024
VWidth: 0
GlyphClass: 2
Flags: W
AnchorPoint: "top" 1170 1632 basechar 0
AnchorPoint: "base" 259 -107 basechar 0
LayerCount: 2
Fore
SplineSet
1106.48 1527 m 257
 550.699 0 l 257
 610.699 0 l 257
 1166.48 1527 l 257
 1106.48 1527 l 257
253.041 1023 m 257
 230.838 962 l 257
 922.838 962 l 257
 945.041 1023 l 257
 253.041 1023 l 257
221.041 1023 m 257
 -151.301 0 l 257
 -91.3008 0 l 257
 281.041 1023 l 257
 221.041 1023 l 257
-81.0996 61 m 257
 -103.301 0 l 257
 562.699 0 l 257
 584.9 61 l 257
 -81.0996 61 l 257
867.301 1260 m 257
 846.191 1202 l 257
 1154.19 1202 l 257
 1175.3 1260 l 257
 867.301 1260 l 257
EndSplineSet
EndChar

StartChar: degree
Encoding: 172 176 172
GlifName: degree
Width: 1024
VWidth: 0
GlyphClass: 2
Flags: W
LayerCount: 2
Fore
SplineSet
429.398 1439 m 257
 679.398 1439 l 257
 603.692 1231 l 257
 353.692 1231 l 257
 429.398 1439 l 257
388.233 1488 m 257
 275.767 1179 l 257
 635.767 1179 l 257
 748.233 1488 l 257
 388.233 1488 l 257
EndSplineSet
EndChar

StartChar: dieresis
Encoding: 173 168 173
GlifName: dieresis
Width: 1024
VWidth: 0
GlyphClass: 2
Flags: W
LayerCount: 2
Fore
SplineSet
353.199 1023 m 257
 316.801 923 l 257
 428.801 923 l 257
 465.199 1023 l 257
 353.199 1023 l 257
595.199 1023 m 257
 558.801 923 l 257
 670.801 923 l 257
 707.199 1023 l 257
 595.199 1023 l 257
EndSplineSet
EndChar

StartChar: divide
Encoding: 174 247 174
GlifName: divide
Width: 1024
VWidth: 0
GlyphClass: 2
Flags: W
LayerCount: 2
Fore
SplineSet
343.423 264 m 257
 320.493 201 l 257
 422.493 201 l 257
 445.423 264 l 257
 343.423 264 l 257
640.706 1111 m 257
 617.412 1047 l 257
 708.412 1047 l 257
 731.706 1111 l 257
 640.706 1111 l 257
110.283 662 m 257
 87.7168 600 l 257
 913.717 600 l 257
 936.283 662 l 257
 110.283 662 l 257
EndSplineSet
EndChar

StartChar: dollar
Encoding: 175 36 175
GlifName: dollar
Width: 1024
VWidth: 0
GlyphClass: 2
Flags: W
LayerCount: 2
Fore
SplineSet
479.075 1539 m 257
 449.229 1457 l 257
 1047.23 1457 l 257
 1077.08 1539 l 257
 479.075 1539 l 257
480.167 1542 m 257
 293.086 1028 l 257
 377.086 1028 l 257
 564.167 1542 l 257
 480.167 1542 l 257
-27.9609 69 m 257
 -53.0752 0 l 257
 654.925 0 l 257
 680.039 69 l 257
 -27.9609 69 l 257
610.925 0 m 257
 690.925 0 l 257
 820.134 355 l 257
 740.134 355 l 257
 610.925 0 l 257
293.086 1028 m 257
 739.134 355 l 257
 820.134 355 l 257
 377.086 1028 l 257
 293.086 1028 l 257
809.38 1636 m 257
 135.671 -215 l 257
 205.671 -215 l 257
 879.38 1636 l 257
 809.38 1636 l 257
EndSplineSet
EndChar

StartChar: dotaccent
Encoding: 176 729 176
GlifName: dotaccent
Width: 1024
VWidth: 0
GlyphClass: 2
Flags: W
LayerCount: 2
Fore
SplineSet
474.381 1078 m 257
 437.619 977 l 257
 549.619 977 l 257
 586.381 1078 l 257
 474.381 1078 l 257
EndSplineSet
EndChar

StartChar: dotbelowcomb
Encoding: 177 803 177
GlifName: dotbelowcomb
Width: 0
VWidth: 0
GlyphClass: 4
Flags: W
HStem: -365 75<-145.553 -145.553 -145.553 -92.8496 -92.8496 -92.8496>
AnchorPoint: "base" -108 -290 mark 0
LayerCount: 2
Fore
SplineSet
-145.553 -290 m 257
 -172.85 -365 l 257
 -92.8496 -365 l 257
 -65.5527 -290 l 257
 -145.553 -290 l 257
EndSplineSet
PickledDataWithLists: "(dp0
Vcom.fontlab.hintData
p1
(dp2
Vhhints
p3
(lp4
(dp5
Vposition
p6
I-365
sVwidth
p7
I75
sass."
EndChar

StartChar: dotlessi
Encoding: 178 305 178
GlifName: dotlessi
Width: 1024
VWidth: 0
GlyphClass: 2
Flags: W
AnchorPoint: "top" 912 1155 basechar 0
AnchorPoint: "base" 482 -93 basechar 0
LayerCount: 2
Fore
SplineSet
852.671 1023 m 257
 499.256 52 l 257
 559.256 52 l 257
 912.671 1023 l 257
 852.671 1023 l 257
133.167 60 m 257
 111.329 0 l 257
 853.329 0 l 257
 875.167 60 l 257
 133.167 60 l 257
533.671 1023 m 257
 511.469 962 l 257
 847.469 962 l 257
 869.671 1023 l 257
 533.671 1023 l 257
EndSplineSet
EndChar

StartChar: e
Encoding: 179 101 179
GlifName: e
Width: 1024
VWidth: 0
GlyphClass: 2
Flags: W
AnchorPoint: "top" 713 1133 basechar 0
AnchorPoint: "base" 366 -87 basechar 0
LayerCount: 2
Fore
SplineSet
404.171 1023 m 257
 371.608 972 l 257
 1010.61 972 l 257
 1043.17 1023 l 257
 404.171 1023 l 257
352.171 1023 m 257
 -20.1709 0 l 257
 37.8291 0 l 257
 410.171 1023 l 257
 352.171 1023 l 257
44.0312 61 m 257
 21.8291 0 l 257
 666.829 0 l 257
 689.031 61 l 257
 44.0312 61 l 257
184.998 506 m 257
 171.16 446 l 257
 800.16 446 l 257
 821.998 506 l 257
 184.998 506 l 257
985.171 1023 m 257
 774.796 445 l 257
 833.796 445 l 257
 1044.17 1023 l 257
 985.171 1023 l 257
EndSplineSet
EndChar

StartChar: eight
Encoding: 187 56 187
GlifName: eight
Width: 1024
VWidth: 0
GlyphClass: 2
Flags: W
LayerCount: 2
Fore
SplineSet
619.654 1550 m 257
 55.5 0 l 257
 968.5 0 l 257
 1532.65 1550 l 257
 619.654 1550 l 257
1233.71 899 m 257
 927.246 57 l 257
 139.246 57 l 257
 445.709 899 l 257
 1233.71 899 l 257
1256.55 959 m 257
 466.548 959 l 257
 659.452 1489 l 257
 1449.45 1489 l 257
 1256.55 959 l 257
EndSplineSet
EndChar

StartChar: ellipsis
Encoding: 188 8230 188
GlifName: ellipsis
Width: 1024
VWidth: 0
GlyphClass: 2
Flags: W
LayerCount: 2
Fore
SplineSet
200.746 114 m 257
 159.254 0 l 257
 301.254 0 l 257
 342.746 114 l 257
 200.746 114 l 257
456.746 114 m 257
 415.254 0 l 257
 559.254 0 l 257
 600.746 114 l 257
 456.746 114 l 257
722.746 114 m 257
 681.254 0 l 257
 823.254 0 l 257
 864.746 114 l 257
 722.746 114 l 257
EndSplineSet
EndChar

StartChar: emdash
Encoding: 190 8212 190
GlifName: emdash
Width: 1024
VWidth: 0
GlyphClass: 2
Flags: W
HStem: 600 51<236.944 1242.38 1242.38 1242.38>
LayerCount: 2
Fore
SplineSet
218.382 600 m 257
 1242.38 600 l 257
 1260.94 651 l 257
 236.944 651 l 257
 218.382 600 l 257
EndSplineSet
PickledDataWithLists: "(dp0
Vcom.fontlab.hintData
p1
(dp2
Vhhints
p3
(lp4
(dp5
Vposition
p6
I600
sVwidth
p7
I51
sass."
EndChar

StartChar: endash
Encoding: 191 8211 191
GlifName: endash
Width: 1024
VWidth: 0
GlyphClass: 2
Flags: W
HStem: 600 80<147 943 943 943>
LayerCount: 2
Fore
SplineSet
117 600 m 257
 943 600 l 257
 973 680 l 257
 147 680 l 257
 117 600 l 257
EndSplineSet
PickledDataWithLists: "(dp0
Vcom.fontlab.hintData
p1
(dp2
Vhhints
p3
(lp4
(dp5
Vposition
p6
I600
sVwidth
p7
I80
sass."
EndChar

StartChar: eng
Encoding: 192 331 192
GlifName: eng
Width: 1024
VWidth: 0
GlyphClass: 2
Flags: W
AnchorPoint: "top" 724 1094 basechar 0
AnchorPoint: "base" 228 -466 basechar 0
LayerCount: 2
Fore
SplineSet
109.531 -366 m 257
 89.8291 -408 l 257
 476.829 -408 l 257
 496.531 -366 l 257
 109.531 -366 l 257
386.659 990 m 257
 26.3291 0 l 257
 83.3291 0 l 257
 443.659 990 l 257
 386.659 990 l 257
921.564 976 m 257
 417.829 -408 l 257
 477.829 -408 l 257
 981.564 976 l 257
 921.564 976 l 257
219.671 1023 m 257
 200.969 970 l 257
 978.969 970 l 257
 997.671 1023 l 257
 219.671 1023 l 257
EndSplineSet
EndChar

StartChar: equal
Encoding: 194 61 194
GlifName: equal
Width: 1024
VWidth: 0
GlyphClass: 2
Flags: W
HStem: 450 374<403.911 403.911 403.911 1083.79 1083.79 1083.79>
LayerCount: 2
Fore
SplineSet
403.911 824 m 257
 367.515 724 l 257
 1183.51 724 l 257
 1219.91 824 l 257
 403.911 824 l 257
300.544 540 m 257
 267.786 450 l 257
 1083.79 450 l 257
 1116.54 540 l 257
 300.544 540 l 257
EndSplineSet
PickledDataWithLists: "(dp0
Vcom.fontlab.hintData
p1
(dp2
Vhhints
p3
(lp4
(dp5
Vposition
p6
I450
sVwidth
p7
I374
sass."
EndChar

StartChar: eth
Encoding: 195 240 195
GlifName: eth
Width: 1024
VWidth: 0
GlyphClass: 2
Flags: W
AnchorPoint: "top" 767 1633 basechar 0
AnchorPoint: "base" 503 -143 basechar 0
LayerCount: 2
Fore
SplineSet
740.463 1550 m 257
 780.309 0 l 257
 828.309 0 l 257
 796.463 1550 l 257
 740.463 1550 l 257
480.65 1023 m 257
 459.176 964 l 257
 783.176 964 l 257
 804.65 1023 l 257
 480.65 1023 l 257
440.65 1023 m 257
 68.3086 0 l 257
 128.309 0 l 257
 500.65 1023 l 257
 440.65 1023 l 257
135.783 59 m 257
 114.309 0 l 257
 780.309 0 l 257
 801.783 59 l 257
 135.783 59 l 257
611.691 1416 m 257
 588.033 1351 l 257
 932.033 1351 l 257
 955.691 1416 l 257
 611.691 1416 l 257
EndSplineSet
EndChar

StartChar: exclam
Encoding: 196 33 196
GlifName: exclam
Width: 1024
VWidth: 0
GlyphClass: 2
Flags: W
LayerCount: 2
Fore
SplineSet
230.773 9 m 257
 297.773 9 l 257
 333.443 107 l 257
 266.443 107 l 257
 230.773 9 l 257
350.705 344 m 257
 422.705 344 l 257
 793.227 1362 l 257
 721.227 1362 l 257
 350.705 344 l 257
EndSplineSet
EndChar

StartChar: exclamdown
Encoding: 197 161 197
GlifName: exclamdown
Width: 1024
VWidth: 0
GlyphClass: 2
Flags: W
LayerCount: 2
Fore
SplineSet
814.523 1520 m 257
 754.523 1520 l 257
 664.259 1272 l 257
 724.259 1272 l 257
 814.523 1520 l 257
633.998 1035 m 257
 579.998 1035 l 257
 209.477 17 l 257
 267.477 17 l 257
 633.998 1035 l 257
EndSplineSet
EndChar

StartChar: f
Encoding: 198 102 198
GlifName: f
Width: 1024
VWidth: 0
GlyphClass: 2
Flags: W
AnchorPoint: "top" 794 1640 basechar 0
AnchorPoint: "base" 448 -116 basechar 0
LayerCount: 2
Fore
SplineSet
604 1551 m 257
 53 -6 l 257
 113 -6 l 257
 664 1551 l 257
 604 1551 l 257
604 1551 m 257
 582 1491 l 257
 980 1491 l 257
 1002 1551 l 257
 604 1551 l 257
159 862 m 257
 137 802 l 257
 615 802 l 257
 637 862 l 257
 159 862 l 257
EndSplineSet
EndChar

StartChar: five
Encoding: 199 53 199
GlifName: five
Width: 1024
VWidth: 0
GlyphClass: 2
Flags: W
LayerCount: 2
Fore
SplineSet
1233.21 899 m 257
 927.11 58 l 257
 69.1104 58 l 257
 48 0 l 257
 966 0 l 257
 1315.05 959 l 257
 458.048 959 l 257
 652.044 1492 l 257
 1519.04 1492 l 257
 1540.15 1550 l 257
 613.154 1550 l 257
 376.209 899 l 257
 1233.21 899 l 257
EndSplineSet
EndChar

StartChar: four
Encoding: 200 52 200
GlifName: four
Width: 1024
VWidth: 0
GlyphClass: 2
Flags: W
LayerCount: 2
Fore
SplineSet
369.982 761 m 257
 1150.98 761 l 257
 876.549 7 l 257
 933.549 7 l 257
 1495.15 1550 l 257
 1435.15 1550 l 257
 1169.82 821 l 257
 451.82 821 l 257
 717.154 1550 l 257
 657.154 1550 l 257
 369.982 761 l 257
EndSplineSet
EndChar

StartChar: g
Encoding: 201 103 201
GlifName: g
Width: 1024
VWidth: 0
GlyphClass: 2
Flags: W
AnchorPoint: "top" 578 1176 basechar 0
AnchorPoint: "base" 570 -460 basechar 0
LayerCount: 2
Fore
SplineSet
464.33 1023 m 257
 91.9883 0 l 257
 151.988 0 l 257
 524.33 1023 l 257
 464.33 1023 l 257
504.33 1023 m 257
 482.129 962 l 257
 998.129 962 l 257
 1020.33 1023 l 257
 504.33 1023 l 257
982.33 1023 m 257
 460.396 -411 l 257
 520.396 -411 l 257
 1042.33 1023 l 257
 982.33 1023 l 257
176.1 58 m 257
 154.988 0 l 257
 611.988 0 l 257
 633.1 58 l 257
 176.1 58 l 257
3.14258 -354 m 257
 -18.3301 -413 l 257
 470.67 -413 l 257
 492.143 -354 l 257
 3.14258 -354 l 257
EndSplineSet
EndChar

StartChar: germandbls
Encoding: 205 223 205
GlifName: germandbls
Width: 1024
VWidth: 0
GlyphClass: 2
Flags: W
LayerCount: 2
Fore
SplineSet
96.4668 1084 m 257
 74.2646 1023 l 257
 325.265 1023 l 257
 347.467 1084 l 257
 96.4668 1084 l 257
451.077 1550 m 257
 -113.077 0 l 257
 -49.0771 0 l 257
 515.077 1550 l 257
 451.077 1550 l 257
503.077 1550 m 257
 480.511 1488 l 257
 1087.51 1488 l 257
 1110.08 1550 l 257
 503.077 1550 l 257
1076.08 1550 m 257
 884.265 1023 l 257
 945.265 1023 l 257
 1137.08 1550 l 257
 1076.08 1550 l 257
902.459 1062 m 257
 664.459 1062 l 257
 578.562 826 l 257
 816.562 826 l 257
 902.459 1062 l 257
822.569 848 m 257
 577.617 175 l 257
 635.617 175 l 257
 880.569 848 l 257
 822.569 848 l 257
298.985 187 m 257
 278.603 131 l 257
 621.603 131 l 257
 641.985 187 l 257
 298.985 187 l 257
EndSplineSet
EndChar

StartChar: grave
Encoding: 206 96 206
GlifName: grave
Width: 1024
VWidth: 0
GlyphClass: 2
Flags: W
LayerCount: 2
Fore
SplineSet
457.665 1286 m 257
 458.316 1057 l 257
 566.335 1112 l 257
 557.319 1340 l 257
 457.665 1286 l 257
EndSplineSet
EndChar

StartChar: gravecomb
Encoding: 207 768 207
GlifName: gravecomb
Width: 0
VWidth: 0
GlyphClass: 4
Flags: W
AnchorPoint: "top" 9 784 mark 0
LayerCount: 2
Fore
SplineSet
-78 997 m 257
 -28 793 l 257
 52 847 l 257
 2 1052 l 257
 -78 997 l 257
EndSplineSet
EndChar

StartChar: greater
Encoding: 208 62 208
GlifName: greater
Width: 1024
VWidth: 0
GlyphClass: 2
Flags: W
LayerCount: 2
Fore
SplineSet
1151.03 632 m 257
 473.702 1013 l 257
 451.5 952 l 257
 1128.1 569 l 257
 1151.03 632 l 257
1151.03 632 m 257
 170.698 186 l 257
 147.404 122 l 257
 1128.1 569 l 257
 1151.03 632 l 257
EndSplineSet
EndChar

StartChar: guillemotleft
Encoding: 209 171 209
GlifName: guillemotleft
Width: 1024
VWidth: 0
GlyphClass: 2
Flags: W
LayerCount: 2
Fore
SplineSet
47.5898 509 m 257
 34.123 472 l 257
 574.854 757 l 257
 584.682 784 l 257
 47.5898 509 l 257
47.5898 509 m 257
 34.123 472 l 257
 274.733 122 l 257
 296.564 160 l 257
 47.5898 509 l 257
472.142 527 m 257
 461.586 498 l 257
 975.317 783 l 257
 989.877 823 l 257
 472.142 527 l 257
471.142 527 m 257
 460.223 497 l 257
 689.733 122 l 257
 716.561 149 l 257
 471.142 527 l 257
EndSplineSet
EndChar

StartChar: guillemotright
Encoding: 210 187 210
GlifName: guillemotright
Width: 1024
VWidth: 0
GlyphClass: 2
Flags: W
LayerCount: 2
Fore
SplineSet
977.515 509 m 257
 640.606 784 l 257
 630.779 757 l 257
 963.048 472 l 257
 977.515 509 l 257
977.515 509 m 257
 474.489 160 l 257
 468.658 122 l 257
 963.048 472 l 257
 977.515 509 l 257
566.066 527 m 257
 263.802 823 l 257
 249.242 783 l 257
 556.511 498 l 257
 566.066 527 l 257
567.066 527 m 257
 46.4854 149 l 257
 53.6582 122 l 257
 556.147 497 l 257
 567.066 527 l 257
EndSplineSet
EndChar

StartChar: guilsinglleft
Encoding: 211 8249 211
GlifName: guilsinglleft
Width: 1024
VWidth: 0
GlyphClass: 2
Flags: W
LayerCount: 2
Fore
SplineSet
52.4082 652 m 257
 22.1982 569 l 257
 977.415 946 l 257
 1001.8 1013 l 257
 52.4082 652 l 257
52.4082 652 m 257
 22.1982 569 l 257
 671.504 122 l 257
 699.529 199 l 257
 52.4082 652 l 257
EndSplineSet
EndChar

StartChar: guilsinglright
Encoding: 212 8250 212
GlifName: guilsinglright
Width: 1024
VWidth: 0
GlyphClass: 2
Flags: W
LayerCount: 2
Fore
SplineSet
1013.81 632 m 257
 336.485 1013 l 257
 314.283 952 l 257
 990.882 569 l 257
 1013.81 632 l 257
1013.81 632 m 257
 33.4814 186 l 257
 10.1875 122 l 257
 990.882 569 l 257
 1013.81 632 l 257
EndSplineSet
EndChar

StartChar: h
Encoding: 213 104 213
GlifName: h
Width: 1024
VWidth: 0
GlyphClass: 2
Flags: W
AnchorPoint: "top" 590 1631 basechar 0
AnchorPoint: "base" 341 -52 basechar 0
LayerCount: 2
Fore
SplineSet
540.883 1525 m 257
 -11.9883 6 l 257
 47.0117 6 l 257
 599.883 1525 l 257
 540.883 1525 l 257
399.988 1028 m 257
 378.15 968 l 257
 967.15 968 l 257
 988.988 1028 l 257
 399.988 1028 l 257
976.988 1028 m 257
 602.828 0 l 257
 661.828 0 l 257
 1035.99 1028 l 257
 976.988 1028 l 257
EndSplineSet
EndChar

StartChar: hbar
Encoding: 214 295 214
GlifName: hbar
Width: 1024
VWidth: 0
GlyphClass: 2
Flags: W
LayerCount: 2
Fore
SplineSet
547.615 1541 m 257
 -11.0791 6 l 257
 48.9209 6 l 257
 607.615 1541 l 257
 547.615 1541 l 257
393.079 1023 m 257
 372.333 966 l 257
 1006.33 966 l 257
 1027.08 1023 l 257
 393.079 1023 l 257
976.079 1023 m 257
 603.737 0 l 257
 662.737 0 l 257
 1035.08 1023 l 257
 976.079 1023 l 257
370.851 1429 m 257
 349.013 1369 l 257
 805.013 1369 l 257
 826.851 1429 l 257
 370.851 1429 l 257
EndSplineSet
EndChar

StartChar: hookabovecomb
Encoding: 216 777 216
GlifName: hookabovecomb
Width: 0
VWidth: 0
GlyphClass: 4
Flags: W
VStem: 346 460
AnchorPoint: "top" 9 778 mark 0
LayerCount: 2
Fore
SplineSet
100 1148 m 257
 86 1109 l 257
 289 1109 l 257
 303 1148 l 257
 100 1148 l 257
277 1148 m 257
 209 962 l 257
 238 962 l 257
 306 1148 l 257
 277 1148 l 257
75 973 m 257
 62 937 l 257
 228 937 l 257
 241 973 l 257
 75 973 l 257
75 973 m 257
 23 830 l 257
 51 830 l 257
 103 973 l 257
 75 973 l 257
EndSplineSet
PickledDataWithLists: "(dp0
Vcom.fontlab.hintData
p1
(dp2
Vvhints
p3
(lp4
(dp5
Vposition
p6
I346
sVwidth
p7
I460
sass."
EndChar

StartChar: hungarumlaut
Encoding: 217 733 217
GlifName: hungarumlaut
Width: 1024
VWidth: 0
GlyphClass: 2
Flags: W
LayerCount: 2
Fore
SplineSet
235.367 122 m 257
 300.367 122 l 257
 390.633 370 l 257
 325.633 370 l 257
 235.367 122 l 257
638.367 122 m 257
 698.367 122 l 257
 788.633 370 l 257
 728.633 370 l 257
 638.367 122 l 257
EndSplineSet
EndChar

StartChar: hyphen
Encoding: 218 45 218
GlifName: hyphen
Width: 1024
VWidth: 0
GlyphClass: 2
Flags: W
LayerCount: 2
Fore
SplineSet
116.834 793 m 257
 81.166 695 l 257
 907.166 695 l 257
 942.834 793 l 257
 116.834 793 l 257
EndSplineSet
EndChar

StartChar: i
Encoding: 219 105 219
GlifName: i
Width: 1024
VWidth: 0
GlyphClass: 2
Flags: W
AnchorPoint: "top" 847 1405 basechar 0
AnchorPoint: "base" 548 -78 basechar 0
LayerCount: 2
Fore
SplineSet
852.671 1023 m 257
 499.256 52 l 257
 559.256 52 l 257
 912.671 1023 l 257
 852.671 1023 l 257
133.167 60 m 257
 111.329 0 l 257
 853.329 0 l 257
 875.167 60 l 257
 133.167 60 l 257
764.579 1292 m 257
 721.63 1174 l 257
 834.63 1174 l 257
 877.579 1292 l 257
 764.579 1292 l 257
533.671 1023 m 257
 511.469 962 l 257
 847.469 962 l 257
 869.671 1023 l 257
 533.671 1023 l 257
EndSplineSet
EndChar

StartChar: j
Encoding: 229 106 229
GlifName: j
Width: 1024
VWidth: 0
GlyphClass: 2
Flags: W
AnchorPoint: "top" 1111 1348 basechar 0
AnchorPoint: "base" 204 -486 basechar 0
LayerCount: 2
Fore
SplineSet
995.664 1023 m 257
 473.73 -411 l 257
 531.73 -411 l 257
 1053.66 1023 l 257
 995.664 1023 l 257
-73.3398 -348 m 257
 -94.4492 -406 l 257
 495.551 -406 l 257
 516.66 -348 l 257
 -73.3398 -348 l 257
51.1387 -6 m 257
 -84.2598 -378 l 257
 -24.2598 -378 l 257
 111.139 -6 l 257
 51.1387 -6 l 257
1058.45 1201 m 257
 1036.98 1142 l 257
 1096.98 1142 l 257
 1118.45 1201 l 257
 1058.45 1201 l 257
EndSplineSet
EndChar

StartChar: k
Encoding: 231 107 231
GlifName: k
Width: 1024
VWidth: 0
GlyphClass: 2
Flags: W
AnchorPoint: "base" 343 -24 basechar 0
AnchorPoint: "top" 607 1638 basechar 0
LayerCount: 2
Fore
SplineSet
530.613 1535 m 257
 -26.2607 5 l 257
 33.7393 5 l 257
 590.613 1535 l 257
 530.613 1535 l 257
174.15 421 m 257
 149.036 352 l 257
 1050.26 1023 l 257
 990.261 1023 l 257
 174.15 421 l 257
490.669 612 m 257
 433.018 569 l 257
 782.919 0 l 257
 843.919 0 l 257
 490.669 612 l 257
EndSplineSet
EndChar

StartChar: l
Encoding: 232 108 232
GlifName: l
Width: 1024
VWidth: 0
GlyphClass: 2
Flags: W
AnchorPoint: "base" 361 -87 basechar 0
AnchorPoint: "top" 967 1630 basechar 0
LayerCount: 2
Fore
SplineSet
82.083 72 m 257
 55.877 0 l 257
 689.877 0 l 257
 716.083 72 l 257
 82.083 72 l 257
908.123 1553 m 257
 363.623 57 l 257
 423.623 57 l 257
 968.123 1553 l 257
 908.123 1553 l 257
682.123 1553 m 257
 660.648 1494 l 257
 895.648 1494 l 257
 917.123 1553 l 257
 682.123 1553 l 257
EndSplineSet
EndChar

StartChar: lcaron
Encoding: 234 318 234
GlifName: lcaron
Width: 1024
VWidth: 0
GlyphClass: 2
Flags: W
LayerCount: 2
Fore
SplineSet
19.3164 62 m 257
 -3.25 0 l 257
 630.75 0 l 257
 653.316 62 l 257
 19.3164 62 l 257
856.904 1550 m 257
 309.492 46 l 257
 367.492 46 l 257
 914.904 1550 l 257
 856.904 1550 l 257
558.904 1550 m 257
 536.703 1489 l 257
 848.703 1489 l 257
 870.904 1550 l 257
 558.904 1550 l 257
975.25 1496 m 257
 890.809 1264 l 257
 942.809 1264 l 257
 1027.25 1496 l 257
 975.25 1496 l 257
EndSplineSet
EndChar

StartChar: less
Encoding: 236 60 236
GlifName: less
Width: 1024
VWidth: 0
GlyphClass: 2
Flags: W
LayerCount: 2
Fore
SplineSet
340.309 652 m 257
 310.099 569 l 257
 1265.32 946 l 257
 1289.7 1013 l 257
 340.309 652 l 257
340.309 652 m 257
 310.099 569 l 257
 959.404 122 l 257
 987.43 199 l 257
 340.309 652 l 257
EndSplineSet
EndChar

StartChar: logicalnot
Encoding: 237 172 237
GlifName: logicalnot
Width: 1024
VWidth: 0
GlyphClass: 2
Flags: W
LayerCount: 2
Fore
SplineSet
739.92 935 m 257
 632.549 640 l 257
 685.549 640 l 257
 792.92 935 l 257
 739.92 935 l 257
252.92 935 m 257
 231.08 875 l 257
 765.08 875 l 257
 786.92 935 l 257
 252.92 935 l 257
EndSplineSet
EndChar

StartChar: lslash
Encoding: 238 322 238
GlifName: lslash
Width: 1024
VWidth: 0
GlyphClass: 2
Flags: W
LayerCount: 2
Fore
SplineSet
-16.2441 60 m 257
 -38.082 0 l 257
 595.918 0 l 257
 617.756 60 l 257
 -16.2441 60 l 257
884.164 1553 m 257
 326.926 22 l 257
 386.926 22 l 257
 944.164 1553 l 257
 884.164 1553 l 257
588.164 1553 m 257
 566.324 1493 l 257
 888.324 1493 l 257
 910.164 1553 l 257
 588.164 1553 l 257
960.082 1039 m 257
 258.424 702 l 257
 360.424 702 l 257
 1062.08 1039 l 257
 960.082 1039 l 257
EndSplineSet
EndChar

StartChar: m
Encoding: 239 109 239
GlifName: m
Width: 1024
VWidth: 0
GlyphClass: 2
Flags: W
AnchorPoint: "base" 307 -108 basechar 0
AnchorPoint: "top" 715 1116 basechar 0
LayerCount: 2
Fore
SplineSet
272.252 993 m 257
 -89.1709 0 l 257
 -29.1709 0 l 257
 332.252 993 l 257
 272.252 993 l 257
648.608 972 m 257
 294.829 0 l 257
 354.829 0 l 257
 708.608 972 l 257
 648.608 972 l 257
1036.06 976 m 257
 680.829 0 l 257
 740.829 0 l 257
 1096.06 976 l 257
 1036.06 976 l 257
209.171 1023 m 257
 188.425 966 l 257
 1092.42 966 l 257
 1113.17 1023 l 257
 209.171 1023 l 257
EndSplineSet
EndChar

StartChar: macron
Encoding: 240 175 240
GlifName: macron
Width: 1024
VWidth: 0
GlyphClass: 2
Flags: W
LayerCount: 2
Fore
SplineSet
240.189 1015 m 257
 223.811 970 l 257
 783.811 970 l 257
 800.189 1015 l 257
 240.189 1015 l 257
EndSplineSet
EndChar

StartChar: mu
Encoding: 242 181 242
GlifName: mu
Width: 1024
VWidth: 0
GlyphClass: 2
Flags: W
LayerCount: 2
Fore
SplineSet
1022.41 935 m 257
 682.098 0 l 257
 742.098 0 l 257
 1082.41 935 l 257
 1022.41 935 l 257
165.936 60 m 257
 144.098 0 l 257
 712.098 0 l 257
 733.936 60 l 257
 165.936 60 l 257
438.41 935 m 257
 -58.4102 -430 l 257
 3.58984 -430 l 257
 500.41 935 l 257
 438.41 935 l 257
EndSplineSet
EndChar

StartChar: multiply
Encoding: 243 215 243
GlifName: multiply
Width: 1024
VWidth: 0
GlyphClass: 2
Flags: W
LayerCount: 2
Fore
SplineSet
-87.0801 295 m 257
 8.91992 295 l 257
 1111.08 1323 l 257
 1029.08 1323 l 257
 -87.0801 295 l 257
284.717 1322 m 257
 656.371 288 l 257
 744.371 288 l 257
 368.717 1322 l 257
 284.717 1322 l 257
EndSplineSet
EndChar

StartChar: n
Encoding: 244 110 244
GlifName: n
Width: 1024
VWidth: 0
GlyphClass: 2
Flags: W
AnchorPoint: "base" 295 -57 basechar 0
AnchorPoint: "top" 720 1113 basechar 0
LayerCount: 2
Fore
SplineSet
387.159 990 m 257
 26.8291 0 l 257
 87.8291 0 l 257
 448.159 990 l 257
 387.159 990 l 257
922.064 976 m 257
 566.829 0 l 257
 626.829 0 l 257
 982.064 976 l 257
 922.064 976 l 257
219.171 1023 m 257
 198.788 967 l 257
 976.788 967 l 257
 997.171 1023 l 257
 219.171 1023 l 257
EndSplineSet
EndChar

StartChar: nine
Encoding: 247 57 247
GlifName: nine
Width: 1024
VWidth: 0
GlyphClass: 2
Flags: W
LayerCount: 2
Fore
SplineSet
1192.25 759 m 257
 937.475 59 l 257
 95.4746 59 l 257
 74 0 l 257
 972 0 l 257
 1537.25 1553 l 257
 617.246 1553 l 257
 612.878 1541 l 257
 328.253 759 l 257
 1192.25 759 l 257
1210.73 818 m 257
 409.728 818 l 257
 656.136 1495 l 257
 1457.14 1495 l 257
 1210.73 818 l 257
EndSplineSet
EndChar

StartChar: numbersign
Encoding: 249 35 249
GlifName: numbersign
Width: 1024
VWidth: 0
GlyphClass: 2
Flags: W
LayerCount: 2
Fore
SplineSet
407.478 1184 m 257
 12.5703 99 l 257
 71.5703 99 l 257
 466.478 1184 l 257
 407.478 1184 l 257
905.39 1192 m 257
 506.114 95 l 257
 577.114 95 l 257
 976.39 1192 l 257
 905.39 1192 l 257
214.688 995 m 257
 193.577 937 l 257
 994.577 937 l 257
 1015.69 995 l 257
 214.688 995 l 257
35.9746 493 m 257
 8.3125 417 l 257
 818.312 417 l 257
 845.975 493 l 257
 35.9746 493 l 257
EndSplineSet
EndChar

StartChar: o
Encoding: 250 111 250
GlifName: o
Width: 1024
VWidth: 0
GlyphClass: 2
Flags: W
AnchorPoint: "top" 744 1128 basechar 0
AnchorPoint: "base" 335 -50 basechar 0
LayerCount: 2
Fore
SplineSet
289.171 1023 m 257
 -83.1709 0 l 257
 -24.1709 0 l 257
 348.171 1023 l 257
 289.171 1023 l 257
1046.17 1023 m 257
 673.829 0 l 257
 734.829 0 l 257
 1107.17 1023 l 257
 1046.17 1023 l 257
350.171 1023 m 257
 329.788 967 l 257
 1030.79 967 l 257
 1051.17 1023 l 257
 350.171 1023 l 257
-14.6045 62 m 257
 -37.1709 0 l 257
 681.829 0 l 257
 704.396 62 l 257
 -14.6045 62 l 257
EndSplineSet
EndChar

StartChar: oe
Encoding: 255 339 255
GlifName: oe
Width: 1024
VWidth: 0
GlyphClass: 2
Flags: W
AnchorPoint: "top" 780 1183 basechar 0
AnchorPoint: "base" 388 -97 basechar 0
LayerCount: 2
Fore
SplineSet
589.498 506 m 257
 567.66 446 l 257
 867.66 446 l 257
 889.498 506 l 257
 589.498 506 l 257
1052.67 1023 m 257
 842.296 445 l 257
 901.296 445 l 257
 1111.67 1023 l 257
 1052.67 1023 l 257
283.671 1023 m 257
 -88.6709 0 l 257
 -29.6709 0 l 257
 342.671 1023 l 257
 283.671 1023 l 257
738.671 1023 m 257
 366.329 0 l 257
 427.329 0 l 257
 799.671 1023 l 257
 738.671 1023 l 257
338.671 1023 m 257
 317.196 964 l 257
 1091.2 964 l 257
 1112.67 1023 l 257
 338.671 1023 l 257
-20.1045 62 m 257
 -42.6709 0 l 257
 749.329 0 l 257
 771.896 62 l 257
 -20.1045 62 l 257
EndSplineSet
EndChar

StartChar: ogonek
Encoding: 256 731 256
GlifName: ogonek
Width: 1024
VWidth: 0
GlyphClass: 2
Flags: W
LayerCount: 2
Fore
SplineSet
188.042 -300 m 257
 166.204 -360 l 257
 707.204 -360 l 257
 729.042 -300 l 257
 188.042 -300 l 257
315.796 51 m 257
 166.204 -360 l 257
 226.204 -360 l 257
 375.796 51 l 257
 315.796 51 l 257
315.796 51 m 257
 294.321 -8 l 257
 836.321 -8 l 257
 857.796 51 l 257
 315.796 51 l 257
EndSplineSet
EndChar

StartChar: one
Encoding: 261 49 261
GlifName: one
Width: 1024
VWidth: 0
GlyphClass: 2
Flags: W
LayerCount: 2
Fore
SplineSet
541.5 0 m 257
 601.5 0 l 257
 1165.65 1550 l 257
 1105.65 1550 l 257
 541.5 0 l 257
1105.65 1550 m 257
 941.521 1426 l 257
 982.33 1398 l 257
 1165.65 1550 l 257
 1105.65 1550 l 257
EndSplineSet
EndChar

StartChar: onehalf
Encoding: 262 189 262
GlifName: onehalf
Width: 1024
VWidth: 0
GlyphClass: 2
Flags: W
LayerCount: 2
Fore
SplineSet
1021.52 1480 m 257
 -100.518 10 l 257
 2.48242 10 l 257
 1124.52 1480 l 257
 1021.52 1480 l 257
466 1017 m 257
 530 1017 l 257
 723.996 1550 l 257
 659.996 1550 l 257
 466 1017 l 257
659.996 1550 m 257
 517.709 1508 l 257
 568.07 1498 l 257
 723.996 1550 l 257
 659.996 1550 l 257
630.596 623 m 257
 920.596 623 l 257
 832.516 381 l 257
 545.516 381 l 257
 406.842 0 l 257
 711.842 0 l 257
 720.941 25 l 257
 438.941 25 l 257
 559.416 356 l 257
 846.416 356 l 257
 952.695 648 l 257
 639.695 648 l 257
 630.596 623 l 257
EndSplineSet
EndChar

StartChar: onequarter
Encoding: 263 188 263
GlifName: onequarter
Width: 1024
VWidth: 0
GlyphClass: 2
Flags: W
LayerCount: 2
Fore
SplineSet
1021.52 1480 m 257
 -100.518 10 l 257
 2.48242 10 l 257
 1124.52 1480 l 257
 1021.52 1480 l 257
504.191 1045 m 257
 558.191 1045 l 257
 741.996 1550 l 257
 687.996 1550 l 257
 504.191 1045 l 257
692.996 1550 m 257
 538.592 1428 l 257
 545.125 1391 l 257
 718.721 1541 l 257
 692.996 1550 l 257
522.787 379 m 257
 861.787 379 l 257
 726.391 7 l 257
 751.391 7 l 257
 1028.37 768 l 257
 1002.37 768 l 257
 871.707 409 l 257
 559.707 409 l 257
 691.1 770 l 257
 665.1 770 l 257
 522.787 379 l 257
EndSplineSet
EndChar

StartChar: ordfeminine
Encoding: 264 170 264
GlifName: ordfeminine
Width: 1024
VWidth: 0
GlyphClass: 2
Flags: W
LayerCount: 2
Fore
SplineSet
459.357 1319 m 257
 434.971 1252 l 257
 1083.97 1252 l 257
 1108.36 1319 l 257
 459.357 1319 l 257
1070.72 1320 m 257
 698.016 296 l 257
 775.016 296 l 257
 1147.72 1320 l 257
 1070.72 1320 l 257
308.033 895 m 257
 285.467 833 l 257
 909.467 833 l 257
 932.033 895 l 257
 308.033 895 l 257
300.662 872 m 257
 90.2871 294 l 257
 161.287 294 l 257
 371.662 872 l 257
 300.662 872 l 257
126.584 369 m 257
 99.2871 294 l 257
 763.287 294 l 257
 790.584 369 l 257
 126.584 369 l 257
-99.334 67 m 257
 -123.721 0 l 257
 744.279 0 l 257
 768.666 67 l 257
 -99.334 67 l 257
EndSplineSet
EndChar

StartChar: ordmasculine
Encoding: 265 186 265
GlifName: ordmasculine
Width: 1024
VWidth: 0
GlyphClass: 2
Flags: W
LayerCount: 2
Fore
SplineSet
367.921 1023 m 257
 -4.4209 0 l 257
 54.5791 0 l 257
 426.921 1023 l 257
 367.921 1023 l 257
1124.92 1023 m 257
 752.579 0 l 257
 813.579 0 l 257
 1185.92 1023 l 257
 1124.92 1023 l 257
428.921 1023 m 257
 408.538 967 l 257
 1109.54 967 l 257
 1129.92 1023 l 257
 428.921 1023 l 257
64.1455 62 m 257
 41.5791 0 l 257
 760.579 0 l 257
 783.146 62 l 257
 64.1455 62 l 257
-137.898 -70 m 257
 -161.921 -136 l 257
 862.079 -136 l 257
 886.102 -70 l 257
 -137.898 -70 l 257
EndSplineSet
EndChar

StartChar: oslash
Encoding: 266 248 266
GlifName: oslash
Width: 1024
VWidth: 0
GlyphClass: 2
Flags: W
AnchorPoint: "top" 786 1110 basechar 0
AnchorPoint: "base" 326 -131 basechar 0
LayerCount: 2
Fore
SplineSet
1136.75 1125 m 257
 -135.821 -36 l 257
 -108.196 -70 l 257
 1159.82 1073 l 257
 1136.75 1125 l 257
283.623 1023 m 257
 -88.7188 0 l 257
 -28.7188 0 l 257
 343.623 1023 l 257
 283.623 1023 l 257
1039.62 1023 m 257
 667.281 0 l 257
 727.281 0 l 257
 1099.62 1023 l 257
 1039.62 1023 l 257
325.623 1023 m 257
 303.784 963 l 257
 1049.78 963 l 257
 1071.62 1023 l 257
 325.623 1023 l 257
-21.7891 63 m 257
 -44.7188 0 l 257
 703.281 0 l 257
 726.211 63 l 257
 -21.7891 63 l 257
EndSplineSet
EndChar

StartChar: p
Encoding: 269 112 269
GlifName: p
Width: 1024
VWidth: 0
GlyphClass: 2
Flags: W
AnchorPoint: "base" -53 -465 basechar 0
AnchorPoint: "top" 859 1232 basechar 0
LayerCount: 2
Fore
SplineSet
509.563 1181 m 257
 -68.0566 -406 l 257
 -8.05664 -406 l 257
 569.563 1181 l 257
 509.563 1181 l 257
496.057 1023 m 257
 474.582 964 l 257
 1060.58 964 l 257
 1082.06 1023 l 257
 496.057 1023 l 257
147.917 61 m 257
 125.715 0 l 257
 721.715 0 l 257
 743.917 61 l 257
 147.917 61 l 257
1034.06 1023 m 257
 661.715 0 l 257
 719.715 0 l 257
 1092.06 1023 l 257
 1034.06 1023 l 257
EndSplineSet
EndChar

StartChar: paragraph
Encoding: 270 182 270
GlifName: paragraph
Width: 1024
VWidth: 0
GlyphClass: 2
Flags: W
LayerCount: 2
Fore
SplineSet
8.65234 1044 m 257
 -12.8223 985 l 257
 551.178 985 l 257
 572.652 1044 l 257
 8.65234 1044 l 257
192.822 1550 m 257
 -7.36133 1000 l 257
 54.6387 1000 l 257
 254.822 1550 l 257
 192.822 1550 l 257
192.822 1550 m 257
 172.074 1493 l 257
 992.074 1493 l 257
 1012.82 1550 l 257
 192.822 1550 l 257
742.822 1550 m 257
 178.668 0 l 257
 242.668 0 l 257
 806.822 1550 l 257
 742.822 1550 l 257
974.822 1550 m 257
 410.668 0 l 257
 472.668 0 l 257
 1036.82 1550 l 257
 974.822 1550 l 257
EndSplineSet
EndChar

StartChar: parenleft
Encoding: 271 40 271
GlifName: parenleft
Width: 1024
VWidth: 0
GlyphClass: 2
Flags: W
LayerCount: 2
Fore
SplineSet
358.585 1023 m 257
 51.3936 179 l 257
 179.394 179 l 257
 486.585 1023 l 257
 358.585 1023 l 257
945.698 1636 m 257
 358.585 1023 l 257
 486.585 1023 l 257
 972.606 1633 l 257
 945.698 1636 l 257
51.3936 179 m 257
 211.776 -309 l 257
 239.776 -309 l 257
 179.394 179 l 257
 51.3936 179 l 257
EndSplineSet
EndChar

StartChar: parenright
Encoding: 272 41 272
GlifName: parenright
Width: 1024
VWidth: 0
GlyphClass: 2
Flags: W
LayerCount: 2
Fore
SplineSet
792.404 1023 m 257
 485.213 179 l 257
 613.213 179 l 257
 920.404 1023 l 257
 792.404 1023 l 257
811.154 1635 m 257
 792.404 1023 l 257
 920.404 1023 l 257
 849.154 1635 l 257
 811.154 1635 l 257
485.213 179 m 257
 103.596 -309 l 257
 131.596 -309 l 257
 613.213 179 l 257
 485.213 179 l 257
EndSplineSet
EndChar

StartChar: percent
Encoding: 273 37 273
GlifName: percent
Width: 1024
VWidth: 0
GlyphClass: 2
Flags: W
LayerCount: 2
Fore
SplineSet
63.7627 444 m 257
 82.9355 417 l 257
 960.237 775 l 257
 950.7 801 l 257
 63.7627 444 l 257
425.998 1148 m 257
 300.429 803 l 257
 331.429 803 l 257
 456.998 1148 l 257
 425.998 1148 l 257
427.454 1152 m 257
 417.99 1126 l 257
 764.99 1126 l 257
 774.454 1152 l 257
 427.454 1152 l 257
308.8 826 m 257
 295.333 789 l 257
 639.333 789 l 257
 652.8 826 l 257
 308.8 826 l 257
738.454 1152 m 257
 607.061 791 l 257
 643.061 791 l 257
 774.454 1152 l 257
 738.454 1152 l 257
493.852 436 m 257
 369.373 94 l 257
 412.373 94 l 257
 536.852 436 l 257
 493.852 436 l 257
495.307 440 m 257
 479.656 397 l 257
 826.656 397 l 257
 842.307 440 l 257
 495.307 440 l 257
374.833 109 m 257
 363.186 77 l 257
 707.186 77 l 257
 718.833 109 l 257
 374.833 109 l 257
808.307 440 m 257
 676.914 79 l 257
 710.914 79 l 257
 842.307 440 l 257
 808.307 440 l 257
EndSplineSet
EndChar

StartChar: period
Encoding: 274 46 274
GlifName: period
Width: 1024
VWidth: 0
GlyphClass: 2
Flags: W
HStem: 0 113<481.129 481.129 481.129 584 584 584>
LayerCount: 2
Fore
SplineSet
481.129 113 m 257
 440 0 l 257
 584 0 l 257
 625.129 113 l 257
 481.129 113 l 257
EndSplineSet
PickledDataWithLists: "(dp0
Vcom.fontlab.hintData
p1
(dp2
Vhhints
p3
(lp4
(dp5
Vposition
p6
I0
sVwidth
p7
I113
sass."
EndChar

StartChar: periodcentered
Encoding: 275 183 275
GlifName: periodcentered
Width: 1024
VWidth: 0
GlyphClass: 2
Flags: W
LayerCount: 2
Fore
SplineSet
482.381 1056 m 257
 445.619 955 l 257
 541.619 955 l 257
 578.381 1056 l 257
 482.381 1056 l 257
EndSplineSet
EndChar

StartChar: perthousand
Encoding: 276 8240 276
GlifName: perthousand
Width: 1024
VWidth: 0
GlyphClass: 2
Flags: W
LayerCount: 2
Fore
SplineSet
642.743 436 m 257
 524.089 110 l 257
 568.089 110 l 257
 686.743 436 l 257
 642.743 436 l 257
644.198 440 m 257
 624.544 386 l 257
 970.544 386 l 257
 990.198 440 l 257
 644.198 440 l 257
529.548 125 m 257
 512.077 77 l 257
 856.077 77 l 257
 873.548 125 l 257
 529.548 125 l 257
942.198 440 m 257
 810.806 79 l 257
 858.806 79 l 257
 990.198 440 l 257
 942.198 440 l 257
28.0439 522 m 257
 48.5703 463 l 257
 995.956 802 l 257
 973.066 860 l 257
 28.0439 522 l 257
395.89 1148 m 257
 277.235 822 l 257
 321.235 822 l 257
 439.89 1148 l 257
 395.89 1148 l 257
397.346 1152 m 257
 375.507 1092 l 257
 721.507 1092 l 257
 743.346 1152 l 257
 397.346 1152 l 257
282.695 837 m 257
 265.225 789 l 257
 609.225 789 l 257
 626.695 837 l 257
 282.695 837 l 257
697.346 1152 m 257
 565.952 791 l 257
 611.952 791 l 257
 743.346 1152 l 257
 697.346 1152 l 257
240.743 436 m 257
 122.089 110 l 257
 168.089 110 l 257
 286.743 436 l 257
 240.743 436 l 257
242.198 440 m 257
 222.544 386 l 257
 570.544 386 l 257
 590.198 440 l 257
 242.198 440 l 257
127.548 125 m 257
 110.077 77 l 257
 454.077 77 l 257
 471.548 125 l 257
 127.548 125 l 257
542.198 440 m 257
 410.806 79 l 257
 458.806 79 l 257
 590.198 440 l 257
 542.198 440 l 257
EndSplineSet
EndChar

StartChar: plus
Encoding: 277 43 277
GlifName: plus
Width: 1024
VWidth: 0
GlyphClass: 2
Flags: W
LayerCount: 2
Fore
SplineSet
607.432 1221 m 257
 223.078 165 l 257
 333.078 165 l 257
 717.432 1221 l 257
 607.432 1221 l 257
79.7441 796 m 257
 42.2559 693 l 257
 944.256 693 l 257
 981.744 796 l 257
 79.7441 796 l 257
EndSplineSet
EndChar

StartChar: plusminus
Encoding: 278 177 278
GlifName: plusminus
Width: 1024
VWidth: 0
GlyphClass: 2
Flags: W
LayerCount: 2
Fore
SplineSet
-24.0957 110 m 257
 -46.6621 48 l 257
 779.338 48 l 257
 801.904 110 l 257
 -24.0957 110 l 257
747.275 1221 m 257
 385.854 228 l 257
 446.854 228 l 257
 808.275 1221 l 257
 747.275 1221 l 257
168.662 744 m 257
 147.551 686 l 257
 1049.55 686 l 257
 1070.66 744 l 257
 168.662 744 l 257
EndSplineSet
EndChar

StartChar: q
Encoding: 279 113 279
GlifName: q
Width: 1024
VWidth: 0
GlyphClass: 2
Flags: W
AnchorPoint: "top" 1039 1300 basechar 0
AnchorPoint: "base" 457 -496 basechar 0
LayerCount: 2
Fore
SplineSet
1004.2 1188 m 257
 424.03 -406 l 257
 484.03 -406 l 257
 1064.2 1188 l 257
 1004.2 1188 l 257
340.144 1023 m 257
 317.577 961 l 257
 965.577 961 l 257
 988.144 1023 l 257
 340.144 1023 l 257
-5.45215 57 m 257
 -26.1982 0 l 257
 589.802 0 l 257
 610.548 57 l 257
 -5.45215 57 l 257
332.144 1023 m 257
 -40.1982 0 l 257
 17.8018 0 l 257
 390.144 1023 l 257
 332.144 1023 l 257
450.596 -344 m 257
 428.03 -406 l 257
 560.03 -406 l 257
 582.596 -344 l 257
 450.596 -344 l 257
EndSplineSet
EndChar

StartChar: question
Encoding: 280 63 280
GlifName: question
Width: 1024
VWidth: 0
GlyphClass: 2
Flags: W
LayerCount: 2
Fore
SplineSet
416.772 134 m 257
 368 0 l 257
 480 0 l 257
 528.772 134 l 257
 416.772 134 l 257
744.871 1519 m 257
 711.021 1426 l 257
 1347.02 1426 l 257
 1380.87 1519 l 257
 744.871 1519 l 257
1297.05 1514 m 257
 1097.6 966 l 257
 1183.6 966 l 257
 1383.05 1514 l 257
 1297.05 1514 l 257
737.43 1015 m 257
 713.044 948 l 257
 1177.04 948 l 257
 1201.43 1015 l 257
 737.43 1015 l 257
735.974 1011 m 257
 510.677 392 l 257
 606.677 392 l 257
 831.974 1011 l 257
 735.974 1011 l 257
EndSplineSet
EndChar

StartChar: questiondown
Encoding: 281 191 281
GlifName: questiondown
Width: 1024
VWidth: 0
GlyphClass: 2
Flags: W
LayerCount: 2
Fore
SplineSet
929.988 1273 m 257
 1019.53 1519 l 257
 961.525 1519 l 257
 871.624 1272 l 257
 929.988 1273 l 257
642.654 0 m 257
 664.856 61 l 257
 28.8564 61 l 257
 6.6543 0 l 257
 642.654 0 l 257
64.4746 5 m 257
 263.93 553 l 257
 203.93 553 l 257
 4.47461 5 l 257
 64.4746 5 l 257
650.096 504 m 257
 672.661 566 l 257
 208.661 566 l 257
 186.096 504 l 257
 650.096 504 l 257
651.551 508 m 257
 876.849 1127 l 257
 818.849 1127 l 257
 593.551 508 l 257
 651.551 508 l 257
EndSplineSet
EndChar

StartChar: quotedbl
Encoding: 282 34 282
GlifName: quotedbl
Width: 1024
VWidth: 0
GlyphClass: 2
Flags: W
LayerCount: 2
Fore
SplineSet
234.868 1326 m 257
 300.868 1326 l 257
 391.132 1574 l 257
 325.132 1574 l 257
 234.868 1326 l 257
638.868 1326 m 257
 698.868 1326 l 257
 789.132 1574 l 257
 729.132 1574 l 257
 638.868 1326 l 257
EndSplineSet
EndChar

StartChar: quotedblbase
Encoding: 283 8222 283
GlifName: quotedblbase
Width: 1024
VWidth: 0
GlyphClass: 2
Flags: W
LayerCount: 2
Fore
SplineSet
424.404 126 m 257
 381.456 8 l 257
 490.456 8 l 257
 533.404 126 l 257
 424.404 126 l 257
381.456 8 m 257
 265.596 -118 l 257
 315.592 -129 l 257
 490.456 8 l 257
 381.456 8 l 257
649.404 126 m 257
 606.456 8 l 257
 715.456 8 l 257
 758.404 126 l 257
 649.404 126 l 257
606.456 8 m 257
 490.596 -118 l 257
 540.592 -129 l 257
 715.456 8 l 257
 606.456 8 l 257
EndSplineSet
EndChar

StartChar: quotedblleft
Encoding: 284 8220 284
GlifName: quotedblleft
Width: 1024
VWidth: 0
GlyphClass: 2
Flags: W
LayerCount: 2
Fore
SplineSet
450.24 1953 m 257
 491.732 2067 l 257
 367.732 2067 l 257
 326.24 1953 l 257
 450.24 1953 l 257
419.803 2004 m 257
 529.76 2144 l 257
 468.678 2174 l 257
 369.461 2069 l 257
 419.803 2004 l 257
618.24 1953 m 257
 659.732 2067 l 257
 535.732 2067 l 257
 494.24 1953 l 257
 618.24 1953 l 257
587.803 2004 m 257
 697.76 2144 l 257
 636.678 2174 l 257
 537.461 2069 l 257
 587.803 2004 l 257
EndSplineSet
EndChar

StartChar: quotedblright
Encoding: 285 8221 285
GlifName: quotedblright
Width: 1024
VWidth: 0
GlyphClass: 2
Flags: W
LayerCount: 2
Fore
SplineSet
568.76 2174 m 257
 527.266 2060 l 257
 651.266 2060 l 257
 692.76 2174 l 257
 568.76 2174 l 257
600.197 2123 m 257
 490.24 1983 l 257
 550.322 1953 l 257
 649.539 2058 l 257
 600.197 2123 l 257
409.76 2174 m 257
 368.266 2060 l 257
 492.266 2060 l 257
 533.76 2174 l 257
 409.76 2174 l 257
441.197 2123 m 257
 331.24 1983 l 257
 391.322 1953 l 257
 490.539 2058 l 257
 441.197 2123 l 257
EndSplineSet
EndChar

StartChar: quoteleft
Encoding: 286 8216 286
GlifName: quoteleft
Width: 1024
VWidth: 0
GlyphClass: 2
Flags: W
LayerCount: 2
Fore
SplineSet
495.895 1913 m 257
 555.949 2078 l 257
 423.949 2078 l 257
 365.35 1917 l 257
 495.895 1913 l 257
516.582 2066 m 257
 658.65 2275 l 257
 592.291 2285 l 257
 422.213 2054 l 257
 516.582 2066 l 257
EndSplineSet
EndChar

StartChar: quoteright
Encoding: 287 8217 287
GlifName: quoteright
Width: 1024
VWidth: 0
GlyphClass: 2
Flags: W
LayerCount: 2
Fore
SplineSet
490.858 2168 m 257
 450.094 2056 l 257
 566.094 2056 l 257
 606.858 2168 l 257
 490.858 2168 l 257
539.667 2140 m 257
 417.142 1927 l 257
 454.763 1882 l 257
 566.094 2056 l 257
 539.667 2140 l 257
EndSplineSet
EndChar

StartChar: quotesinglbase
Encoding: 288 8218 288
GlifName: quotesinglbase
Width: 1024
VWidth: 0
GlyphClass: 2
Flags: W
LayerCount: 2
Fore
SplineSet
536.904 126 m 257
 493.956 8 l 257
 602.956 8 l 257
 645.904 126 l 257
 536.904 126 l 257
493.956 8 m 257
 378.096 -118 l 257
 428.092 -129 l 257
 602.956 8 l 257
 493.956 8 l 257
EndSplineSet
EndChar

StartChar: quotesingle
Encoding: 289 39 289
GlifName: quotesingle
Width: 1024
VWidth: 0
GlyphClass: 2
Flags: W
LayerCount: 2
Fore
SplineSet
512.575 1496 m 257
 447.425 1317 l 257
 511.425 1317 l 257
 576.575 1496 l 257
 512.575 1496 l 257
EndSplineSet
EndChar

StartChar: r
Encoding: 290 114 290
GlifName: r
Width: 1024
VWidth: 0
GlyphClass: 2
Flags: W
AnchorPoint: "top" 675 1114 basechar 0
AnchorPoint: "base" 77 -91 basechar 0
LayerCount: 2
Fore
SplineSet
225.171 1023 m 257
 202.604 961 l 257
 934.604 961 l 257
 957.171 1023 l 257
 225.171 1023 l 257
426.796 989 m 257
 66.8291 0 l 257
 126.829 0 l 257
 486.796 989 l 257
 426.796 989 l 257
880.064 976 m 257
 761.41 650 l 257
 821.41 650 l 257
 940.064 976 l 257
 880.064 976 l 257
EndSplineSet
EndChar

StartChar: registered
Encoding: 293 174 293
GlifName: registered
Width: 1024
VWidth: 0
GlyphClass: 2
Flags: W
LayerCount: 2
Fore
SplineSet
492.906 1032 m 257
 299.638 501 l 257
 336.638 501 l 257
 529.906 1032 l 257
 492.906 1032 l 257
517.906 1032 m 257
 504.075 994 l 257
 733.075 994 l 257
 746.906 1032 l 257
 517.906 1032 l 257
717.906 1032 m 257
 634.193 802 l 257
 672.193 802 l 257
 755.906 1032 l 257
 717.906 1032 l 257
446.936 848 m 257
 429.829 801 l 257
 667.829 801 l 257
 684.936 848 l 257
 446.936 848 l 257
479.741 809 m 257
 566.274 500 l 257
 609.274 500 l 257
 514.741 809 l 257
 479.741 809 l 257
321.804 1540 m 257
 -238.711 0 l 257
 -176.711 0 l 257
 383.804 1540 l 257
 321.804 1540 l 257
1200.71 1537 m 257
 641.289 0 l 257
 703.289 0 l 257
 1262.71 1537 l 257
 1200.71 1537 l 257
360.075 1538 m 257
 338.237 1478 l 257
 1210.24 1478 l 257
 1232.08 1538 l 257
 360.075 1538 l 257
-181.509 61 m 257
 -203.711 0 l 257
 688.289 0 l 257
 710.491 61 l 257
 -181.509 61 l 257
EndSplineSet
EndChar

StartChar: ring
Encoding: 294 730 294
GlifName: ring
Width: 1024
VWidth: 0
GlyphClass: 2
Flags: W
LayerCount: 2
Fore
SplineSet
411.496 1302 m 257
 701.496 1302 l 257
 609.412 1049 l 257
 319.412 1049 l 257
 411.496 1302 l 257
388.051 1331 m 257
 275.949 1023 l 257
 635.949 1023 l 257
 748.051 1331 l 257
 388.051 1331 l 257
EndSplineSet
EndChar

StartChar: s
Encoding: 295 115 295
GlifName: s
Width: 1024
VWidth: 0
GlyphClass: 2
Flags: W
AnchorPoint: "top" 703 1113 basechar 0
AnchorPoint: "base" 344 -69 basechar 0
LayerCount: 2
Fore
SplineSet
394.171 1023 m 257
 372.696 964 l 257
 980.696 964 l 257
 1002.17 1023 l 257
 394.171 1023 l 257
394.171 1023 m 257
 289.711 736 l 257
 349.711 736 l 257
 454.171 1023 l 257
 394.171 1023 l 257
43.3037 59 m 257
 21.8291 0 l 257
 627.829 0 l 257
 649.304 59 l 257
 43.3037 59 l 257
674.656 299 m 257
 570.196 12 l 257
 632.196 12 l 257
 736.656 299 l 257
 674.656 299 l 257
289.711 736 m 257
 674.656 299 l 257
 736.656 299 l 257
 349.711 736 l 257
 289.711 736 l 257
EndSplineSet
EndChar

StartChar: section
Encoding: 300 167 300
GlifName: section
Width: 1024
VWidth: 0
GlyphClass: 2
Flags: W
LayerCount: 2
Fore
SplineSet
396.14 1237 m 257
 374.665 1178 l 257
 972.665 1178 l 257
 994.14 1237 l 257
 396.14 1237 l 257
396.14 1237 m 257
 166.11 605 l 257
 229.11 605 l 257
 459.14 1237 l 257
 396.14 1237 l 257
-89.8857 -200 m 257
 -111.724 -260 l 257
 596.276 -260 l 257
 618.114 -200 l 257
 -89.8857 -200 l 257
563.64 -259 m 257
 623.64 -259 l 257
 752.485 95 l 257
 692.485 95 l 257
 563.64 -259 l 257
166.475 606 m 257
 688.938 88 l 257
 749.938 88 l 257
 224.475 606 l 257
 166.475 606 l 257
537.724 1626 m 257
 515.886 1566 l 257
 1113.89 1566 l 257
 1135.72 1626 l 257
 537.724 1626 l 257
538.815 1629 m 257
 396.14 1237 l 257
 459.14 1237 l 257
 601.815 1629 l 257
 538.815 1629 l 257
5.9375 88 m 257
 -11.8965 39 l 257
 696.104 39 l 257
 713.938 88 l 257
 5.9375 88 l 257
688.938 88 m 257
 749.938 88 l 257
 878.783 442 l 257
 817.783 442 l 257
 688.938 88 l 257
396.14 1237 m 257
 818.783 442 l 257
 878.783 442 l 257
 459.14 1237 l 257
 396.14 1237 l 257
EndSplineSet
EndChar

StartChar: semicolon
Encoding: 301 59 301
GlifName: semicolon
Width: 1024
VWidth: 0
GlyphClass: 2
Flags: W
LayerCount: 2
Fore
SplineSet
503.691 164 m 257
 446.548 7 l 257
 582.548 7 l 257
 639.691 164 l 257
 503.691 164 l 257
577.136 135 m 257
 449.967 -99 l 257
 482.133 -148 l 257
 587.463 26 l 257
 577.136 135 l 257
627.077 503 m 257
 569.934 346 l 257
 705.934 346 l 257
 763.077 503 l 257
 627.077 503 l 257
EndSplineSet
EndChar

StartChar: seven
Encoding: 302 55 302
GlifName: seven
Width: 1024
VWidth: 0
GlyphClass: 2
Flags: W
LayerCount: 2
Fore
SplineSet
599.637 1495 m 257
 1450.64 1495 l 257
 906.5 0 l 257
 968.5 0 l 257
 1533.75 1553 l 257
 620.746 1553 l 257
 599.637 1495 l 257
EndSplineSet
EndChar

StartChar: six
Encoding: 303 54 303
GlifName: six
Width: 1024
VWidth: 0
GlyphClass: 2
Flags: W
LayerCount: 2
Fore
SplineSet
604.154 1550 m 257
 113.158 201 l 257
 40 0 l 257
 979 0 l 257
 1277.09 819 l 257
 400.092 819 l 257
 643.588 1488 l 257
 1525.59 1488 l 257
 1548.15 1550 l 257
 604.154 1550 l 257
1193.25 759 m 257
 939.93 63 l 257
 130.93 63 l 257
 384.253 759 l 257
 1193.25 759 l 257
EndSplineSet
EndChar

StartChar: slash
Encoding: 304 47 304
GlifName: slash
Width: 1024
VWidth: 0
GlyphClass: 2
Flags: W
LayerCount: 2
Fore
SplineSet
1292.67 1480 m 257
 170.641 10 l 257
 273.641 10 l 257
 1395.67 1480 l 257
 1292.67 1480 l 257
EndSplineSet
EndChar

StartChar: sterling
Encoding: 306 163 306
GlifName: sterling
Width: 1024
VWidth: 0
GlyphClass: 2
Flags: W
LayerCount: 2
Fore
SplineSet
815.303 1543 m 257
 793.102 1482 l 257
 982.102 1482 l 257
 1004.3 1543 l 257
 815.303 1543 l 257
195.953 770 m 257
 172.295 705 l 257
 898.295 705 l 257
 921.953 770 l 257
 195.953 770 l 257
790.939 1542 m 257
 229.697 0 l 257
 305.697 0 l 257
 866.939 1542 l 257
 790.939 1542 l 257
45.9023 72 m 257
 19.6973 0 l 257
 745.697 0 l 257
 771.902 72 l 257
 45.9023 72 l 257
EndSplineSet
EndChar

StartChar: t
Encoding: 307 116 307
GlifName: t
Width: 1024
VWidth: 0
GlyphClass: 2
Flags: W
AnchorPoint: "top" 767 1642 basechar 0
AnchorPoint: "base" 308 -121 basechar 0
LayerCount: 2
Fore
SplineSet
699.34 1529 m 257
 142.829 0 l 257
 202.829 0 l 257
 759.34 1529 l 257
 699.34 1529 l 257
176.667 60 m 257
 154.829 0 l 257
 546.829 0 l 257
 568.667 60 l 257
 176.667 60 l 257
207.171 1023 m 257
 186.061 965 l 257
 860.061 965 l 257
 881.171 1023 l 257
 207.171 1023 l 257
EndSplineSet
EndChar

StartChar: tcaron
Encoding: 308 357 308
GlifName: tcaron
Width: 1024
VWidth: 0
GlyphClass: 2
Flags: W
LayerCount: 2
Fore
SplineSet
670.262 1529 m 257
 113.75 0 l 257
 173.75 0 l 257
 730.262 1529 l 257
 670.262 1529 l 257
147.588 60 m 257
 125.75 0 l 257
 517.75 0 l 257
 539.588 60 l 257
 147.588 60 l 257
178.092 1023 m 257
 156.982 965 l 257
 830.982 965 l 257
 852.092 1023 l 257
 178.092 1023 l 257
848.25 1496 m 257
 783.1 1317 l 257
 845.1 1317 l 257
 910.25 1496 l 257
 848.25 1496 l 257
EndSplineSet
EndChar

StartChar: thorn
Encoding: 309 254 309
GlifName: thorn
Width: 1024
VWidth: 0
GlyphClass: 2
Flags: W
LayerCount: 2
Fore
SplineSet
470.848 1034 m 257
 -53.2695 -406 l 257
 4.73047 -406 l 257
 528.848 1034 l 257
 470.848 1034 l 257
389.27 667 m 257
 366.703 605 l 257
 1054.7 605 l 257
 1077.27 667 l 257
 389.27 667 l 257
83.3652 -135 m 257
 61.5273 -195 l 257
 763.527 -195 l 257
 785.365 -135 l 257
 83.3652 -135 l 257
1009.63 646 m 257
 712.627 -170 l 257
 772.627 -170 l 257
 1069.63 646 l 257
 1009.63 646 l 257
EndSplineSet
EndChar

StartChar: three
Encoding: 310 51 310
GlifName: three
Width: 1024
VWidth: 0
GlyphClass: 2
Flags: W
LayerCount: 2
Fore
SplineSet
369.882 736 m 257
 1171.88 736 l 257
 922.927 52 l 257
 78.9268 52 l 257
 66.0879 -8 l 257
 961.088 -8 l 257
 1528.15 1550 l 257
 654.154 1550 l 257
 633.407 1493 l 257
 1445.41 1493 l 257
 1191.72 796 l 257
 391.721 796 l 257
 369.882 736 l 257
EndSplineSet
EndChar

StartChar: threequarters
Encoding: 311 190 311
GlifName: threequarters
Width: 1024
VWidth: 0
GlyphClass: 2
Flags: W
LayerCount: 2
Fore
SplineSet
1057.58 1483 m 257
 -50.0078 6 l 257
 -33.5762 -67 l 257
 1074.01 1410 l 257
 1057.58 1483 l 257
354.779 1272 m 257
 672.779 1272 l 257
 604.354 1084 l 257
 268.354 1084 l 257
 243.238 1015 l 257
 625.238 1015 l 257
 821.055 1553 l 257
 452.055 1553 l 257
 426.941 1484 l 257
 748.941 1484 l 257
 696.529 1340 l 257
 379.529 1340 l 257
 354.779 1272 l 257
581.559 340 m 257
 884.559 340 l 257
 763.357 7 l 257
 806.357 7 l 257
 1053.86 687 l 257
 1009.86 687 l 257
 900.301 386 l 257
 645.301 386 l 257
 755.584 689 l 257
 708.584 689 l 257
 581.559 340 l 257
EndSplineSet
EndChar

StartChar: tilde
Encoding: 312 732 312
GlifName: tilde
Width: 1024
VWidth: 0
GlyphClass: 2
Flags: W
LayerCount: 2
Fore
SplineSet
372.734 279 m 257
 354.535 229 l 257
 678.693 158 l 257
 696.893 208 l 257
 372.734 279 l 257
112.352 223 m 257
 105.24 165 l 257
 354.535 229 l 257
 372.734 279 l 257
 112.352 223 l 257
696.893 208 m 257
 678.693 158 l 257
 915.652 309 l 257
 918.76 356 l 257
 696.893 208 l 257
EndSplineSet
EndChar

StartChar: tildecomb
Encoding: 313 771 313
GlifName: tildecomb
Width: 0
VWidth: 0
GlyphClass: 4
Flags: W
AnchorPoint: "top" 5 784 mark 0
LayerCount: 2
Fore
SplineSet
-165 916 m 257
 -183 866 l 257
 141 795 l 257
 160 845 l 257
 -165 916 l 257
-425 860 m 257
 -432 802 l 257
 -183 866 l 257
 -165 916 l 257
 -425 860 l 257
160 845 m 257
 141 795 l 257
 378 946 l 257
 381 993 l 257
 160 845 l 257
EndSplineSet
EndChar

StartChar: two
Encoding: 314 50 314
GlifName: two
Width: 1024
VWidth: 0
GlyphClass: 2
Flags: W
LayerCount: 2
Fore
SplineSet
655.132 1484 m 257
 1389.13 1484 l 257
 1179.49 908 l 257
 452.485 908 l 257
 122.001 0 l 257
 895.001 0 l 257
 916.476 59 l 257
 203.476 59 l 257
 491.011 849 l 257
 1218.01 849 l 257
 1470.97 1544 l 257
 676.97 1544 l 257
 655.132 1484 l 257
EndSplineSet
EndChar

StartChar: u
Encoding: 315 117 315
GlifName: u
Width: 1024
VWidth: 0
GlyphClass: 2
Flags: W
AnchorPoint: "top" 689 1128 basechar 0
AnchorPoint: "base" 355 -74 basechar 0
LayerCount: 2
Fore
SplineSet
384.355 1034 m 257
 8.00977 0 l 257
 68.0098 0 l 257
 444.355 1034 l 257
 384.355 1034 l 257
957.99 1033 m 257
 582.01 0 l 257
 640.01 0 l 257
 1015.99 1033 l 257
 957.99 1033 l 257
76.2109 61 m 257
 54.0098 0 l 257
 756.01 0 l 257
 778.211 61 l 257
 76.2109 61 l 257
EndSplineSet
EndChar

StartChar: underscore
Encoding: 324 95 324
GlifName: underscore
Width: 1024
VWidth: 0
GlyphClass: 2
Flags: W
LayerCount: 2
Fore
SplineSet
7.2793 0 m 257
 -7.2793 -40 l 257
 1016.72 -40 l 257
 1031.28 0 l 257
 7.2793 0 l 257
EndSplineSet
EndChar

StartChar: uni00B2
Encoding: 326 178 326
GlifName: uni00B_2
Width: 1024
VWidth: 0
GlyphClass: 2
Flags: W
LayerCount: 2
Fore
SplineSet
416.135 1522 m 257
 769.135 1522 l 257
 690.881 1307 l 257
 340.881 1307 l 257
 217.859 969 l 257
 589.859 969 l 257
 597.865 991 l 257
 254.865 991 l 257
 361.873 1285 l 257
 711.873 1285 l 257
 806.141 1544 l 257
 424.141 1544 l 257
 416.135 1522 l 257
EndSplineSet
EndChar

StartChar: uni00B3
Encoding: 327 179 327
GlifName: uni00B_3
Width: 1024
VWidth: 0
GlyphClass: 2
Flags: W
LayerCount: 2
Fore
SplineSet
271.45 1246 m 257
 728.45 1246 l 257
 634.91 989 l 257
 152.91 989 l 257
 150.902 967 l 257
 660.902 967 l 257
 873.098 1550 l 257
 374.098 1550 l 257
 366.454 1529 l 257
 829.454 1529 l 257
 734.458 1268 l 257
 279.458 1268 l 257
 271.45 1246 l 257
EndSplineSet
EndChar

StartChar: uni00B9
Encoding: 328 185 328
GlifName: uni00B_9
Width: 1024
VWidth: 0
GlyphClass: 2
Flags: W
LayerCount: 2
Fore
SplineSet
355.961 887.5 m 257
 385.961 887.5 l 257
 668.039 1662.5 l 257
 638.039 1662.5 l 257
 355.961 887.5 l 257
638.039 1662.5 m 257
 555.973 1600.5 l 257
 576.377 1586.5 l 257
 668.039 1662.5 l 257
 638.039 1662.5 l 257
EndSplineSet
EndChar

StartChar: uni0192
Encoding: 341 402 341
GlifName: uni0192
Width: 1024
VWidth: 0
GlyphClass: 2
Flags: W
LayerCount: 2
Fore
SplineSet
695.057 1023 m 257
 174.943 -406 l 257
 235.943 -406 l 257
 756.057 1023 l 257
 695.057 1023 l 257
722.057 1023 m 257
 701.311 966 l 257
 1146.31 966 l 257
 1167.06 1023 l 257
 722.057 1023 l 257
270.174 559 m 257
 248.7 500 l 257
 879.7 500 l 257
 901.174 559 l 257
 270.174 559 l 257
-120.854 -345 m 257
 -143.057 -406 l 257
 228.943 -406 l 257
 251.146 -345 l 257
 -120.854 -345 l 257
EndSplineSet
EndChar

StartChar: uni0237
Encoding: 384 567 384
GlifName: uni0237
Width: 1024
VWidth: 0
GlyphClass: 2
Flags: W
AnchorPoint: "top" 720 1182 basechar 0
LayerCount: 2
Fore
SplineSet
1028.06 1023 m 257
 506.123 -411 l 257
 564.123 -411 l 257
 1086.06 1023 l 257
 1028.06 1023 l 257
-40.9473 -348 m 257
 -62.0566 -406 l 257
 527.943 -406 l 257
 549.053 -348 l 257
 -40.9473 -348 l 257
83.5312 -6 m 257
 -51.8662 -378 l 257
 8.13379 -378 l 257
 143.531 -6 l 257
 83.5312 -6 l 257
EndSplineSet
EndChar

StartChar: uni02C9
Encoding: 388 713 388
GlifName: uni02C_9
Width: 1024
VWidth: 0
GlyphClass: 2
Flags: W
LayerCount: 2
Fore
SplineSet
246.559 1630 m 257
 217.441 1550 l 257
 777.441 1550 l 257
 806.559 1630 l 257
 246.559 1630 l 257
EndSplineSet
EndChar

StartChar: uni02CA
Encoding: 389 714 389
GlifName: uni02C_A_
Width: 1024
VWidth: 0
GlyphClass: 2
Flags: W
LayerCount: 2
Fore
SplineSet
564.855 949 m 257
 418.52 764 l 257
 459.145 730 l 257
 605.48 915 l 257
 564.855 949 l 257
EndSplineSet
EndChar

StartChar: uni02CB
Encoding: 390 715 390
GlifName: uni02C_B_
Width: 1024
VWidth: 0
GlyphClass: 2
Flags: W
LayerCount: 2
Fore
SplineSet
447.298 877 m 257
 497.048 673 l 257
 576.702 727 l 257
 527.316 932 l 257
 447.298 877 l 257
EndSplineSet
EndChar

StartChar: uni0302
Encoding: 391 770 391
GlifName: uni0302
Width: 0
VWidth: 0
GlyphClass: 4
Flags: W
VStem: 618 47
AnchorPoint: "top" -8 769 mark 0
LayerCount: 2
Fore
SplineSet
101 1101 m 257
 65 1101 l 257
 -180 791 l 257
 -159 774 l 257
 101 1101 l 257
68 1103 m 257
 109 769 l 257
 156 787 l 257
 105 1103 l 257
 68 1103 l 257
EndSplineSet
PickledDataWithLists: "(dp0
Vcom.fontlab.hintData
p1
(dp2
Vvhints
p3
(lp4
(dp5
Vposition
p6
I618
sVwidth
p7
I47
sass."
EndChar

StartChar: uni0304
Encoding: 392 772 392
GlifName: uni0304
Width: 0
VWidth: 0
GlyphClass: 4
Flags: W
HStem: 1550 52
AnchorPoint: "top" -1 779 mark 0
LayerCount: 2
Fore
SplineSet
-279 894 m 257
 -298 842 l 257
 262 842 l 257
 281 894 l 257
 -279 894 l 257
EndSplineSet
PickledDataWithLists: "(dp0
Vcom.fontlab.hintData
p1
(dp2
Vhhints
p3
(lp4
(dp5
Vposition
p6
I1550
sVwidth
p7
I52
sass."
EndChar

StartChar: uni0305
Encoding: 393 773 393
GlifName: uni0305
Width: 0
VWidth: 0
GlyphClass: 4
Flags: W
HStem: 1542 60<195.161 949.161>
AnchorPoint: "top" 590.161 1480 mark 0
LayerCount: 2
Fore
SplineSet
195.161 1602 m 257
 195.161 1542 l 257
 949.161 1542 l 257
 949.161 1602 l 257
 195.161 1602 l 257
EndSplineSet
PickledDataWithLists: "(dp0
Vcom.fontlab.hintData
p1
(dp2
Vhhints
p3
(lp4
(dp5
Vposition
p6
I1542
sVwidth
p7
I60
sass."
EndChar

StartChar: uni0306
Encoding: 394 774 394
GlifName: uni0306
Width: 0
VWidth: 0
GlyphClass: 4
Flags: W
AnchorPoint: "top" -1 765 mark 0
LayerCount: 2
Fore
SplineSet
156 875 m 257
 130 805 l 257
 321 875 l 257
 355 970 l 257
 156 875 l 257
-168 875 m 257
 -194 805 l 257
 130 805 l 257
 156 875 l 257
 -168 875 l 257
-310 955 m 257
 -339 875 l 257
 -194 805 l 257
 -168 875 l 257
 -310 955 l 257
EndSplineSet
EndChar

StartChar: uni0307
Encoding: 395 775 395
GlifName: uni0307
Width: 0
VWidth: 0
GlyphClass: 4
Flags: W
HStem: 1637 101
AnchorPoint: "top" -3 783 mark 0
LayerCount: 2
Fore
SplineSet
-25 914 m 257
 -62 813 l 257
 50 813 l 257
 87 914 l 257
 -25 914 l 257
EndSplineSet
PickledDataWithLists: "(dp0
Vcom.fontlab.hintData
p1
(dp2
Vhhints
p3
(lp4
(dp5
Vposition
p6
I1637
sVwidth
p7
I101
sass."
EndChar

StartChar: uni0308
Encoding: 396 776 396
GlifName: uni0308
Width: 0
VWidth: 0
GlyphClass: 4
Flags: W
HStem: 1637 101<455.58 455.58 455.58 530.818 530.818 530.818 697.58 772.818 772.818 772.818>
AnchorPoint: "top" 618.199 1592 mark 0
LayerCount: 2
Fore
SplineSet
455.58 1738 m 257
 418.818 1637 l 257
 530.818 1637 l 257
 567.58 1738 l 257
 455.58 1738 l 257
697.58 1738 m 257
 660.818 1637 l 257
 772.818 1637 l 257
 809.58 1738 l 257
 697.58 1738 l 257
EndSplineSet
PickledDataWithLists: "(dp0
Vcom.fontlab.hintData
p1
(dp2
Vhhints
p3
(lp4
(dp5
Vposition
p6
I1637
sVwidth
p7
I101
sass."
EndChar

StartChar: uni030A
Encoding: 397 778 397
GlifName: uni030A_
Width: 0
VWidth: 0
GlyphClass: 4
Flags: W
HStem: 1538 309
AnchorPoint: "top" -2 785 mark 0
LayerCount: 2
Fore
SplineSet
-11 1084 m 257
 279 1084 l 257
 187 831 l 257
 -103 831 l 257
 -11 1084 l 257
-34 1113 m 257
 -147 804 l 257
 213 804 l 257
 326 1113 l 257
 -34 1113 l 257
EndSplineSet
PickledDataWithLists: "(dp0
Vcom.fontlab.hintData
p1
(dp2
Vhhints
p3
(lp4
(dp5
Vposition
p6
I1538
sVwidth
p7
I309
sass."
EndChar

StartChar: uni030B
Encoding: 398 779 398
GlifName: uni030B_
Width: 0
VWidth: 0
GlyphClass: 4
Flags: W
AnchorPoint: "top" -2 775 mark 0
LayerCount: 2
Fore
SplineSet
-267.508 809 m 257
 -201.508 809 l 257
 -20.9792 1057 l 257
 -86.9792 1057 l 257
 -267.508 809 l 257
136.492 809 m 257
 196.492 809 l 257
 377.021 1057 l 257
 317.021 1057 l 257
 136.492 809 l 257
EndSplineSet
EndChar

StartChar: uni030C
Encoding: 399 780 399
GlifName: uni030C_
Width: 0
VWidth: 0
GlyphClass: 4
Flags: W
VStem: 412 33
AnchorPoint: "top" -12 726 mark 0
LayerCount: 2
Fore
SplineSet
0 791 m 257
 -22 1118 l 257
 -55 1101 l 257
 -36 791 l 257
 0 791 l 257
-33 790 m 257
 4 790 l 257
 284 1105 l 257
 250 1123 l 257
 -33 790 l 257
EndSplineSet
PickledDataWithLists: "(dp0
Vcom.fontlab.hintData
p1
(dp2
Vvhints
p3
(lp4
(dp5
Vposition
p6
I412
sVwidth
p7
I33
sass."
EndChar

StartChar: uni030F
Encoding: 400 783 400
GlifName: uni030F_
Width: 0
VWidth: 0
GlyphClass: 4
Flags: W
AnchorPoint: "top" 0 772 mark 0
LayerCount: 2
Fore
SplineSet
-32 1036 m 257
 88 800 l 257
 135 824 l 257
 16 1061 l 257
 -32 1036 l 257
-178 1033 m 257
 -58 797 l 257
 -39 846 l 257
 -158 1083 l 257
 -178 1033 l 257
EndSplineSet
EndChar

StartChar: uni0311
Encoding: 401 785 401
GlifName: uni0311
Width: 0
VWidth: 0
GlyphClass: 4
Flags: W
VStem: 229 660
AnchorPoint: "top" -10 776 mark 0
LayerCount: 2
Fore
SplineSet
-180 865 m 257
 -180 933 l 257
 -345 865 l 257
 -345 768 l 257
 -180 865 l 257
144 865 m 257
 144 933 l 257
 -180 933 l 257
 -180 865 l 257
 144 865 l 257
315 783 m 257
 315 865 l 257
 144 933 l 257
 144 865 l 257
 315 783 l 257
EndSplineSet
PickledDataWithLists: "(dp0
Vcom.fontlab.hintData
p1
(dp2
Vvhints
p3
(lp4
(dp5
Vposition
p6
I229
sVwidth
p7
I660
sass."
EndChar

StartChar: uni031B
Encoding: 402 795 402
GlifName: uni031B_
Width: 0
VWidth: 0
GlyphClass: 4
Flags: W
AnchorPoint: "top" 10 774 mark 0
LayerCount: 2
Fore
SplineSet
58 1087 m 257
 0 930 l 257
 136 930 l 257
 194 1087 l 257
 58 1087 l 257
131 1057 m 257
 3 823 l 257
 36 774 l 257
 141 948 l 257
 131 1057 l 257
EndSplineSet
EndChar

StartChar: uni0326
Encoding: 403 806 403
GlifName: uni0326
Width: 0
VWidth: 0
GlyphClass: 4
Flags: W
AnchorPoint: "base" -22.7686 -5 mark 0
LayerCount: 2
Fore
SplineSet
-34 0 m 257
 -82.0439 -132 l 257
 29.9561 -132 l 257
 78 0 l 257
 -34 0 l 257
-82.0439 -132 m 257
 -167.537 -246 l 257
 -113.364 -273 l 257
 29.9561 -132 l 257
 -82.0439 -132 l 257
EndSplineSet
EndChar

StartChar: uni0327
Encoding: 404 807 404
GlifName: uni0327
Width: 0
VWidth: 0
GlyphClass: 4
Flags: W
HStem: -406 586<-160.485 -160.485 -160.485 -102.485 -160.485 78.2285 -160.485 78.2285>
AnchorPoint: "base" -516.886 90 mark 0
LayerCount: 2
Fore
SplineSet
-160.485 180 m 257
 -247.838 -60 l 257
 -189.838 -60 l 257
 -102.485 180 l 257
 -160.485 180 l 257
-346.298 -347 m 257
 -367.771 -406 l 257
 78.2285 -406 l 257
 99.7021 -347 l 257
 -346.298 -347 l 257
167 0 m 257
 31.6035 -372 l 257
 90.6035 -372 l 257
 226 0 l 257
 167 0 l 257
-220 0 m 257
 -241.838 -60 l 257
 204.162 -60 l 257
 226 0 l 257
 -220 0 l 257
EndSplineSet
PickledDataWithLists: "(dp0
Vcom.fontlab.hintData
p1
(dp2
Vhhints
p3
(lp4
(dp5
Vposition
p6
I-406
sVwidth
p7
I586
sass."
EndChar

StartChar: uni0328
Encoding: 405 808 405
GlifName: uni0328
Width: 0
VWidth: 0
GlyphClass: 4
Flags: W
HStem: -411 411<-271 -271 -271 120.408 -420.592 -271 -360.592 -271 120.408 120.408>
AnchorPoint: "base" -241.796 0 mark 0
LayerCount: 2
Fore
SplineSet
-398.754 -351 m 257
 -420.592 -411 l 257
 120.408 -411 l 257
 142.246 -351 l 257
 -398.754 -351 l 257
-271 0 m 257
 -420.592 -411 l 257
 -360.592 -411 l 257
 -211 0 l 257
 -271 0 l 257
-271 0 m 257
 -292.475 -59 l 257
 249.525 -59 l 257
 271 0 l 257
 -271 0 l 257
EndSplineSet
PickledDataWithLists: "(dp0
Vcom.fontlab.hintData
p1
(dp2
Vhhints
p3
(lp4
(dp5
Vposition
p6
I-411
sVwidth
p7
I411
sass."
EndChar

StartChar: uni0331
Encoding: 406 817 406
GlifName: uni0331
Width: 0
VWidth: 0
GlyphClass: 4
Flags: W
HStem: -248 44<-354.25 -354.25 -354.25 189.734 189.734 189.734>
AnchorPoint: "base" -78.2578 -163 mark 0
LayerCount: 2
Fore
SplineSet
-354.25 -204 m 257
 -370.266 -248 l 257
 189.734 -248 l 257
 205.75 -204 l 257
 -354.25 -204 l 257
EndSplineSet
PickledDataWithLists: "(dp0
Vcom.fontlab.hintData
p1
(dp2
Vhhints
p3
(lp4
(dp5
Vposition
p6
I-248
sVwidth
p7
I44
sass."
EndChar

StartChar: uni0900
Encoding: 407 2304 407
GlifName: uni0900
Width: 0
VWidth: 0
GlyphClass: 4
Flags: W
HStem: 1639 482<264.047 439.48 324.047 439.48>
AnchorPoint: "abvm_deva" 42 1648 mark 0
LayerCount: 2
Fore
SplineSet
439.48 2121 m 257
 264.047 1639 l 257
 324.047 1639 l 257
 499.48 2121 l 257
 439.48 2121 l 257
453.845 2122 m 257
 431.642 2061 l 257
 1044.64 2061 l 257
 1066.84 2122 l 257
 453.845 2122 l 257
651.959 1919 m 257
 607.191 1796 l 257
 724.191 1796 l 257
 768.959 1919 l 257
 651.959 1919 l 257
1044.84 2122 m 257
 867.954 1636 l 257
 927.954 1636 l 257
 1104.84 2122 l 257
 1044.84 2122 l 257
EndSplineSet
PickledDataWithLists: "(dp0
Vcom.fontlab.hintData
p1
(dp2
Vhhints
p3
(lp4
(dp5
Vposition
p6
I1639
sVwidth
p7
I482
sass."
EndChar

StartChar: uni0901
Encoding: 408 2305 408
GlifName: uni0901
Width: 0
VWidth: 0
GlyphClass: 4
Flags: W
HStem: 1639 485<247.547 424.073 424.073 424.073 424.073 484.073 424.073 916.547 307.547 424.073 424.073 945.547>
AnchorPoint: "abvm_deva" 0 1618 mark 0
LayerCount: 2
Fore
SplineSet
424.073 2124 m 257
 247.547 1639 l 257
 307.547 1639 l 257
 484.073 2124 l 257
 424.073 2124 l 257
304.386 1699 m 257
 282.547 1639 l 257
 916.547 1639 l 257
 938.386 1699 l 257
 304.386 1699 l 257
667.109 1962 m 257
 622.34 1839 l 257
 739.34 1839 l 257
 784.109 1962 l 257
 667.109 1962 l 257
1064.26 2130 m 257
 885.547 1639 l 257
 945.547 1639 l 257
 1124.26 2130 l 257
 1064.26 2130 l 257
EndSplineSet
PickledDataWithLists: "(dp0
Vcom.fontlab.hintData
p1
(dp2
Vhhints
p3
(lp4
(dp5
Vposition
p6
I1639
sVwidth
p7
I485
sass."
EndChar

StartChar: uni0902
Encoding: 409 2306 409
GlifName: uni0902
Width: 0
VWidth: 0
GlyphClass: 4
Flags: W
HStem: 1580 120<558.749 558.749 558.749 635.073 635.073 635.073>
AnchorPoint: "abvm_deva" -318 1636 mark 0
LayerCount: 2
Fore
SplineSet
558.749 1700 m 257
 515.073 1580 l 257
 635.073 1580 l 257
 678.749 1700 l 257
 558.749 1700 l 257
EndSplineSet
PickledDataWithLists: "(dp0
Vcom.fontlab.hintData
p1
(dp2
Vhhints
p3
(lp4
(dp5
Vposition
p6
I1580
sVwidth
p7
I120
sass."
EndChar

StartChar: uni0903
Encoding: 410 2307 410
GlifName: uni0903
Width: 1024
VWidth: 0
GlyphClass: 2
Flags: W
LayerCount: 2
Fore
SplineSet
330.507 410 m 257
 286.831 290 l 257
 406.831 290 l 257
 450.507 410 l 257
 330.507 410 l 257
617.169 1302 m 257
 573.492 1182 l 257
 693.492 1182 l 257
 737.169 1302 l 257
 617.169 1302 l 257
EndSplineSet
EndChar

StartChar: uni0904
Encoding: 411 2308 411
GlifName: uni0904
Width: 1024
VWidth: 0
GlyphClass: 2
Flags: W
AnchorPoint: "abvm_deva" 636 1972 basechar 0
LayerCount: 2
Fore
SplineSet
702.422 2062 m 257
 615.434 1823 l 257
 676.434 1823 l 257
 763.422 2062 l 257
 702.422 2062 l 257
630.084 1866 m 257
 609.338 1809 l 257
 1292.34 1809 l 257
 1313.08 1866 l 257
 630.084 1866 l 257
1251.99 1863 m 257
 1136.25 1545 l 257
 1196.25 1545 l 257
 1311.99 1863 l 257
 1251.99 1863 l 257
986.07 1550 m 257
 963.504 1488 l 257
 1260.5 1488 l 257
 1283.07 1550 l 257
 986.07 1550 l 257
1153.42 1518 m 257
 600.916 0 l 257
 661.916 0 l 257
 1214.42 1518 l 257
 1153.42 1518 l 257
300.07 1550 m 257
 277.139 1487 l 257
 800.139 1487 l 257
 823.07 1550 l 257
 300.07 1550 l 257
790.07 1550 m 257
 238.291 34 l 257
 297.291 34 l 257
 849.07 1550 l 257
 790.07 1550 l 257
145.305 894 m 257
 123.83 835 l 257
 931.83 835 l 257
 953.305 894 l 257
 145.305 894 l 257
-265.426 65 m 257
 -289.084 0 l 257
 284.916 0 l 257
 308.574 65 l 257
 -265.426 65 l 257
EndSplineSet
EndChar

StartChar: uni0905
Encoding: 412 2309 412
GlifName: uni0905
Width: 1024
VWidth: 0
GlyphClass: 2
Flags: W
AnchorPoint: "abvm_deva" 852 1618 basechar 0
LayerCount: 2
Fore
SplineSet
1000.58 1550 m 257
 978.011 1488 l 257
 1275.01 1488 l 257
 1297.58 1550 l 257
 1000.58 1550 l 257
1168.93 1518 m 257
 616.423 0 l 257
 677.423 0 l 257
 1229.93 1518 l 257
 1168.93 1518 l 257
315.577 1550 m 257
 292.646 1487 l 257
 815.646 1487 l 257
 838.577 1550 l 257
 315.577 1550 l 257
805.577 1550 m 257
 253.798 34 l 257
 312.798 34 l 257
 864.577 1550 l 257
 805.577 1550 l 257
160.812 894 m 257
 139.338 835 l 257
 947.338 835 l 257
 968.812 894 l 257
 160.812 894 l 257
-249.919 65 m 257
 -273.577 0 l 257
 300.423 0 l 257
 324.081 65 l 257
 -249.919 65 l 257
EndSplineSet
EndChar

StartChar: uni0906
Encoding: 413 2310 413
GlifName: uni0906
Width: 1024
VWidth: 0
GlyphClass: 2
Flags: W
AnchorPoint: "abvm_deva" 762 1606 basechar 0
LayerCount: 2
Fore
SplineSet
798.077 1550 m 257
 775.511 1488 l 257
 1276.51 1488 l 257
 1299.08 1550 l 257
 798.077 1550 l 257
969.43 1518 m 257
 416.923 0 l 257
 477.923 0 l 257
 1030.43 1518 l 257
 969.43 1518 l 257
314.077 1550 m 257
 291.146 1487 l 257
 614.146 1487 l 257
 637.077 1550 l 257
 314.077 1550 l 257
604.077 1550 m 257
 52.2979 34 l 257
 111.298 34 l 257
 663.077 1550 l 257
 604.077 1550 l 257
159.312 894 m 257
 137.838 835 l 257
 745.838 835 l 257
 767.312 894 l 257
 159.312 894 l 257
-251.419 65 m 257
 -275.077 0 l 257
 98.9229 0 l 257
 122.581 65 l 257
 -251.419 65 l 257
1152.43 1518 m 257
 599.923 0 l 257
 660.923 0 l 257
 1213.43 1518 l 257
 1152.43 1518 l 257
EndSplineSet
EndChar

StartChar: uni0907
Encoding: 414 2311 414
GlifName: uni0907
Width: 1024
VWidth: 0
GlyphClass: 2
Flags: W
AnchorPoint: "abvm_deva" 630 1600 basechar 0
LayerCount: 2
Fore
SplineSet
187.481 1550 m 257
 164.915 1488 l 257
 1198.92 1488 l 257
 1221.48 1550 l 257
 187.481 1550 l 257
871.834 1518 m 257
 746.265 1173 l 257
 805.265 1173 l 257
 930.834 1518 l 257
 871.834 1518 l 257
235.911 1205 m 257
 213.709 1144 l 257
 793.709 1144 l 257
 815.911 1205 l 257
 235.911 1205 l 257
227.176 1181 m 257
 104.882 845 l 257
 162.882 845 l 257
 285.176 1181 l 257
 227.176 1181 l 257
117.985 881 m 257
 95.4189 819 l 257
 741.419 819 l 257
 763.985 881 l 257
 117.985 881 l 257
729.985 881 m 257
 513.059 285 l 257
 573.059 285 l 257
 789.985 881 l 257
 729.985 881 l 257
-116.21 298 m 257
 -138.412 237 l 257
 556.588 237 l 257
 578.79 298 l 257
 -116.21 298 l 257
-0.209961 298 m 257
 -197.481 -244 l 257
 -137.481 -244 l 257
 59.79 298 l 257
 -0.209961 298 l 257
EndSplineSet
EndChar

StartChar: uni0908
Encoding: 415 2312 415
GlifName: uni0908
Width: 1024
VWidth: 0
GlyphClass: 2
Flags: W
AnchorPoint: "abvm_deva" 780 1624 basechar 0
LayerCount: 2
Fore
SplineSet
184.981 1550 m 257
 162.415 1488 l 257
 1199.42 1488 l 257
 1221.98 1550 l 257
 184.981 1550 l 257
875.338 1529 m 257
 749.404 1183 l 257
 809.404 1183 l 257
 935.338 1529 l 257
 875.338 1529 l 257
236.14 1207 m 257
 213.938 1146 l 257
 795.938 1146 l 257
 818.14 1207 l 257
 236.14 1207 l 257
226.676 1181 m 257
 105.838 849 l 257
 165.838 849 l 257
 286.676 1181 l 257
 226.676 1181 l 257
117.485 881 m 257
 95.6465 821 l 257
 747.646 821 l 257
 769.485 881 l 257
 117.485 881 l 257
731.485 881 m 257
 514.559 285 l 257
 574.559 285 l 257
 791.485 881 l 257
 731.485 881 l 257
-116.71 298 m 257
 -138.912 237 l 257
 559.088 237 l 257
 581.29 298 l 257
 -116.71 298 l 257
-0.709961 298 m 257
 -197.981 -244 l 257
 -137.981 -244 l 257
 59.29 298 l 257
 -0.709961 298 l 257
619.812 1860 m 257
 737.981 1550 l 257
 841.981 1550 l 257
 715.282 1908 l 257
 619.812 1860 l 257
EndSplineSet
EndChar

StartChar: uni0909
Encoding: 416 2313 416
GlifName: uni0909
Width: 1024
VWidth: 0
GlyphClass: 2
Flags: W
AnchorPoint: "abvm_deva" 558 1606 basechar 0
LayerCount: 2
Fore
SplineSet
215.077 1550 m 257
 192.511 1488 l 257
 1217.51 1488 l 257
 1240.08 1550 l 257
 215.077 1550 l 257
830.797 1530 m 257
 638.257 1001 l 257
 697.257 1001 l 257
 889.797 1530 l 257
 830.797 1530 l 257
268.908 1044 m 257
 247.434 985 l 257
 889.434 985 l 257
 910.908 1044 l 257
 268.908 1044 l 257
833.709 994 m 257
 471.923 0 l 257
 530.923 0 l 257
 892.709 994 l 257
 833.709 994 l 257
-193.875 61 m 257
 -216.077 0 l 257
 520.923 0 l 257
 543.125 61 l 257
 -193.875 61 l 257
-90.1436 346 m 257
 -209.162 19 l 257
 -150.162 19 l 257
 -31.1436 346 l 257
 -90.1436 346 l 257
EndSplineSet
EndChar

StartChar: uni090A
Encoding: 417 2314 417
GlifName: uni090A_
Width: 1024
VWidth: 0
GlyphClass: 2
Flags: W
AnchorPoint: "abvm_deva" 516 1612 basechar 0
LayerCount: 2
Fore
SplineSet
257.077 1550 m 257
 234.511 1488 l 257
 1259.51 1488 l 257
 1282.08 1550 l 257
 257.077 1550 l 257
583.797 1530 m 257
 391.257 1001 l 257
 452.257 1001 l 257
 644.797 1530 l 257
 583.797 1530 l 257
226.908 1044 m 257
 204.706 983 l 257
 1009.71 983 l 257
 1031.91 1044 l 257
 226.908 1044 l 257
683.709 994 m 257
 333.934 33 l 257
 394.934 33 l 257
 744.709 994 l 257
 683.709 994 l 257
-235.875 61 m 257
 -258.077 0 l 257
 382.923 0 l 257
 405.125 61 l 257
 -235.875 61 l 257
-132.144 346 m 257
 -251.162 19 l 257
 -190.162 19 l 257
 -71.1436 346 l 257
 -132.144 346 l 257
964.265 1023 m 257
 663.625 197 l 257
 723.625 197 l 257
 1024.26 1023 l 257
 964.265 1023 l 257
EndSplineSet
EndChar

StartChar: uni090B
Encoding: 418 2315 418
GlifName: uni090B_
Width: 1024
VWidth: 0
GlyphClass: 2
Flags: W
AnchorPoint: "abvm_deva" 943 1600 basechar 0
LayerCount: 2
Fore
SplineSet
167.779 1550 m 257
 145.213 1488 l 257
 1162.21 1488 l 257
 1184.78 1550 l 257
 167.779 1550 l 257
669.592 1533 m 257
 111.625 0 l 257
 159.625 0 l 257
 721.959 1545 l 257
 669.592 1533 l 257
1.24609 1043 m 257
 -20.5918 983 l 257
 282.408 983 l 257
 304.246 1043 l 257
 1.24609 1043 l 257
304.055 471 m 257
 -160.779 422 l 257
 -92.5225 376 l 257
 319.4 417 l 257
 304.055 471 l 257
304.246 1043 m 257
 282.408 983 l 257
 486.926 902 l 257
 507.309 958 l 257
 304.246 1043 l 257
485.106 897 m 257
 463.269 837 l 257
 804.269 837 l 257
 826.106 897 l 257
 485.106 897 l 257
784.106 897 m 257
 554.077 265 l 257
 615.077 265 l 257
 845.106 897 l 257
 784.106 897 l 257
575.552 324 m 257
 553.713 264 l 257
 723.713 264 l 257
 745.552 324 l 257
 575.552 324 l 257
EndSplineSet
EndChar

StartChar: uni090C
Encoding: 419 2316 419
GlifName: uni090C_
Width: 1024
VWidth: 0
GlyphClass: 2
Flags: W
AnchorPoint: "abvm_deva" 1097 1588 basechar 0
LayerCount: 2
Fore
SplineSet
200.217 1550 m 257
 177.65 1488 l 257
 1216.65 1488 l 257
 1239.22 1550 l 257
 200.217 1550 l 257
913.217 1550 m 257
 625.315 759 l 257
 685.315 759 l 257
 973.217 1550 l 257
 913.217 1550 l 257
894.963 791 m 257
 -21.0371 791 l 257
 -42.875 731 l 257
 873.125 731 l 257
 894.963 791 l 257
-24.1328 777 m 257
 -215.217 252 l 257
 -155.217 252 l 257
 35.8672 777 l 257
 -24.1328 777 l 257
402.963 791 m 257
 272.661 433 l 257
 332.661 433 l 257
 462.963 791 l 257
 402.963 791 l 257
825.327 792 m 257
 563.633 73 l 257
 623.633 73 l 257
 885.327 792 l 257
 825.327 792 l 257
629.106 132 m 257
 606.904 71 l 257
 698.904 71 l 257
 721.106 132 l 257
 629.106 132 l 257
EndSplineSet
EndChar

StartChar: uni090D
Encoding: 420 2317 420
GlifName: uni090D_
Width: 1024
VWidth: 0
GlyphClass: 2
Flags: W
AnchorPoint: "abvm_deva" 1093 1634 basechar 0
LayerCount: 2
Fore
SplineSet
148.112 1550 m 257
 125.546 1488 l 257
 1160.55 1488 l 257
 1183.11 1550 l 257
 148.112 1550 l 257
1019.29 1545 m 257
 740.491 779 l 257
 800.491 779 l 257
 1079.29 1545 l 257
 1019.29 1545 l 257
528.329 839 m 257
 506.491 779 l 257
 800.491 779 l 257
 822.329 839 l 257
 528.329 839 l 257
292.2 1542 m 257
 -146.021 338 l 257
 -86.0205 338 l 257
 352.2 1542 l 257
 292.2 1542 l 257
-138.74 358 m 257
 -160.942 297 l 257
 439.058 297 l 257
 461.26 358 l 257
 -138.74 358 l 257
407.26 358 m 257
 241.289 -98 l 257
 301.289 -98 l 257
 467.26 358 l 257
 407.26 358 l 257
-38.873 -38 m 257
 -60.7109 -98 l 257
 299.289 -98 l 257
 321.127 -38 l 257
 -38.873 -38 l 257
518.031 2124 m 257
 341.505 1639 l 257
 401.505 1639 l 257
 578.031 2124 l 257
 518.031 2124 l 257
410.436 1702 m 257
 388.233 1641 l 257
 982.233 1641 l 257
 1004.44 1702 l 257
 410.436 1702 l 257
1124.94 2132 m 257
 946.233 1641 l 257
 1006.23 1641 l 257
 1184.94 2132 l 257
 1124.94 2132 l 257
EndSplineSet
EndChar

StartChar: uni090E
Encoding: 421 2318 421
GlifName: uni090E_
Width: 1024
VWidth: 0
GlyphClass: 2
Flags: W
AnchorPoint: "abvm_deva" 1211 1612 basechar 0
LayerCount: 2
Fore
SplineSet
130.52 1550 m 257
 107.953 1488 l 257
 1142.95 1488 l 257
 1165.52 1550 l 257
 130.52 1550 l 257
1001.7 1545 m 257
 722.898 779 l 257
 782.898 779 l 257
 1061.7 1545 l 257
 1001.7 1545 l 257
510.736 839 m 257
 488.898 779 l 257
 782.898 779 l 257
 804.736 839 l 257
 510.736 839 l 257
274.607 1542 m 257
 -163.613 338 l 257
 -103.613 338 l 257
 334.607 1542 l 257
 274.607 1542 l 257
-156.332 358 m 257
 -178.535 297 l 257
 421.465 297 l 257
 443.668 358 l 257
 -156.332 358 l 257
389.668 358 m 257
 223.697 -98 l 257
 283.697 -98 l 257
 449.668 358 l 257
 389.668 358 l 257
-56.4648 -38 m 257
 -78.3027 -98 l 257
 281.697 -98 l 257
 303.535 -38 l 257
 -56.4648 -38 l 257
591.873 2062 m 257
 504.883 1823 l 257
 564.883 1823 l 257
 651.873 2062 l 257
 591.873 2062 l 257
518.535 1866 m 257
 497.787 1809 l 257
 1181.79 1809 l 257
 1202.54 1866 l 257
 518.535 1866 l 257
1141.62 1858 m 257
 1025.88 1540 l 257
 1085.88 1540 l 257
 1201.62 1858 l 257
 1141.62 1858 l 257
EndSplineSet
EndChar

StartChar: uni090F
Encoding: 422 2319 422
GlifName: uni090F_
Width: 1024
VWidth: 0
GlyphClass: 2
Flags: W
AnchorPoint: "abvm_deva" 522 1630 basechar 0
LayerCount: 2
Fore
SplineSet
149.027 1550 m 257
 126.461 1488 l 257
 1161.46 1488 l 257
 1184.03 1550 l 257
 149.027 1550 l 257
1020.21 1545 m 257
 741.406 779 l 257
 801.406 779 l 257
 1080.21 1545 l 257
 1020.21 1545 l 257
529.244 839 m 257
 507.406 779 l 257
 801.406 779 l 257
 823.244 839 l 257
 529.244 839 l 257
293.115 1542 m 257
 -145.105 338 l 257
 -85.1055 338 l 257
 353.115 1542 l 257
 293.115 1542 l 257
-137.825 358 m 257
 -160.027 297 l 257
 439.973 297 l 257
 462.175 358 l 257
 -137.825 358 l 257
408.175 358 m 257
 242.204 -98 l 257
 302.204 -98 l 257
 468.175 358 l 257
 408.175 358 l 257
-37.958 -38 m 257
 -59.7959 -98 l 257
 300.204 -98 l 257
 322.042 -38 l 257
 -37.958 -38 l 257
EndSplineSet
EndChar

StartChar: uni0910
Encoding: 423 2320 423
GlifName: uni0910
Width: 1024
VWidth: 0
GlyphClass: 2
Flags: W
AnchorPoint: "abvm_deva" 936 1702 basechar 0
LayerCount: 2
Fore
SplineSet
148.846 1549 m 257
 127.008 1489 l 257
 1162.01 1489 l 257
 1183.85 1549 l 257
 148.846 1549 l 257
1018.39 1545 m 257
 739.588 779 l 257
 801.588 779 l 257
 1080.39 1545 l 257
 1018.39 1545 l 257
529.791 840 m 257
 507.588 779 l 257
 801.588 779 l 257
 823.791 840 l 257
 529.791 840 l 257
293.297 1542 m 257
 -144.924 338 l 257
 -84.9238 338 l 257
 353.297 1542 l 257
 293.297 1542 l 257
-137.279 359 m 257
 -159.846 297 l 257
 440.154 297 l 257
 462.721 359 l 257
 -137.279 359 l 257
422.357 358 m 257
 256.387 -98 l 257
 314.387 -98 l 257
 480.357 358 l 257
 422.357 358 l 257
-37.4121 -37 m 257
 -59.6133 -98 l 257
 300.387 -98 l 257
 322.588 -37 l 257
 -37.4121 -37 l 257
860.164 1962 m 257
 1008.21 1550 l 257
 1080.21 1550 l 257
 927.268 1998 l 257
 860.164 1962 l 257
EndSplineSet
EndChar

StartChar: uni0911
Encoding: 424 2321 424
GlifName: uni0911
Width: 1024
VWidth: 0
GlyphClass: 2
Flags: W
AnchorPoint: "abvm_deva" 774 2170 basechar 0
LayerCount: 2
Fore
SplineSet
720.351 1548 m 257
 698.513 1488 l 257
 1186.51 1488 l 257
 1208.35 1548 l 257
 720.351 1548 l 257
713.064 1506 m 257
 164.925 0 l 257
 226.925 0 l 257
 775.064 1506 l 257
 713.064 1506 l 257
211.079 1550 m 257
 188.513 1488 l 257
 548.513 1488 l 257
 571.079 1550 l 257
 211.079 1550 l 257
537.079 1550 m 257
 -16.1562 30 l 257
 43.8438 30 l 257
 597.079 1550 l 257
 537.079 1550 l 257
56.3145 894 m 257
 34.4756 834 l 257
 506.476 834 l 257
 528.314 894 l 257
 56.3145 894 l 257
-356.873 61 m 257
 -379.075 0 l 257
 32.9248 0 l 257
 55.127 61 l 257
 -356.873 61 l 257
980.336 1504 m 257
 432.925 0 l 257
 492.925 0 l 257
 1040.34 1504 l 257
 980.336 1504 l 257
905.803 2085 m 257
 743.472 1639 l 257
 805.472 1639 l 257
 967.803 2085 l 257
 905.803 2085 l 257
772.038 1701 m 257
 750.2 1641 l 257
 1242.2 1641 l 257
 1264.04 1701 l 257
 772.038 1701 l 257
1331.08 2083 m 257
 1170.2 1641 l 257
 1242.2 1641 l 257
 1403.08 2083 l 257
 1331.08 2083 l 257
EndSplineSet
EndChar

StartChar: uni0912
Encoding: 425 2322 425
GlifName: uni0912
Width: 1024
VWidth: 0
GlyphClass: 2
Flags: W
AnchorPoint: "abvm_deva" 1253 1576 basechar 0
LayerCount: 2
Fore
SplineSet
767.162 1553 m 257
 745.688 1494 l 257
 1246.69 1494 l 257
 1268.16 1553 l 257
 767.162 1553 l 257
955.422 1518 m 257
 402.916 0 l 257
 463.916 0 l 257
 1016.42 1518 l 257
 955.422 1518 l 257
300.07 1550 m 257
 277.139 1487 l 257
 600.139 1487 l 257
 623.07 1550 l 257
 300.07 1550 l 257
590.07 1550 m 257
 38.291 34 l 257
 97.291 34 l 257
 649.07 1550 l 257
 590.07 1550 l 257
145.305 894 m 257
 123.83 835 l 257
 731.83 835 l 257
 753.305 894 l 257
 145.305 894 l 257
-265.426 65 m 257
 -289.084 0 l 257
 84.916 0 l 257
 108.574 65 l 257
 -265.426 65 l 257
1138.42 1518 m 257
 585.916 0 l 257
 646.916 0 l 257
 1199.42 1518 l 257
 1138.42 1518 l 257
702.422 2062 m 257
 615.434 1823 l 257
 676.434 1823 l 257
 763.422 2062 l 257
 702.422 2062 l 257
630.084 1866 m 257
 609.338 1809 l 257
 1292.34 1809 l 257
 1313.08 1866 l 257
 630.084 1866 l 257
1251.99 1863 m 257
 1136.25 1545 l 257
 1196.25 1545 l 257
 1311.99 1863 l 257
 1251.99 1863 l 257
EndSplineSet
EndChar

StartChar: uni0913
Encoding: 426 2323 426
GlifName: uni0913
Width: 1024
VWidth: 0
GlyphClass: 2
Flags: W
AnchorPoint: "abvm_deva" 1032 1582 basechar 0
LayerCount: 2
Fore
SplineSet
796.895 1549 m 257
 775.057 1489 l 257
 1276.06 1489 l 257
 1297.89 1549 l 257
 796.895 1549 l 257
970.611 1518 m 257
 418.105 0 l 257
 479.105 0 l 257
 1031.61 1518 l 257
 970.611 1518 l 257
315.26 1550 m 257
 292.328 1487 l 257
 615.328 1487 l 257
 638.26 1550 l 257
 315.26 1550 l 257
605.26 1550 m 257
 53.4805 34 l 257
 112.48 34 l 257
 664.26 1550 l 257
 605.26 1550 l 257
160.494 894 m 257
 139.02 835 l 257
 747.02 835 l 257
 768.494 894 l 257
 160.494 894 l 257
-250.236 65 m 257
 -273.895 0 l 257
 100.105 0 l 257
 123.764 65 l 257
 -250.236 65 l 257
1153.61 1518 m 257
 601.105 0 l 257
 662.105 0 l 257
 1214.61 1518 l 257
 1153.61 1518 l 257
1056.8 1807 m 257
 1036.62 1529 l 257
 1120.26 1550 l 257
 1136.71 1826 l 257
 1056.8 1807 l 257
EndSplineSet
EndChar

StartChar: uni0914
Encoding: 427 2324 427
GlifName: uni0914
Width: 1024
VWidth: 0
GlyphClass: 2
Flags: W
AnchorPoint: "abvm_deva" 1227 1585 basechar 0
LayerCount: 2
Fore
SplineSet
789.623 1553 m 257
 768.148 1494 l 257
 1269.15 1494 l 257
 1290.62 1553 l 257
 789.623 1553 l 257
977.884 1518 m 257
 425.377 0 l 257
 486.377 0 l 257
 1038.88 1518 l 257
 977.884 1518 l 257
322.531 1550 m 257
 299.601 1487 l 257
 622.601 1487 l 257
 645.531 1550 l 257
 322.531 1550 l 257
612.531 1550 m 257
 60.752 34 l 257
 119.752 34 l 257
 671.531 1550 l 257
 612.531 1550 l 257
167.767 894 m 257
 146.292 835 l 257
 754.292 835 l 257
 775.767 894 l 257
 167.767 894 l 257
-242.965 65 m 257
 -266.623 0 l 257
 107.377 0 l 257
 131.035 65 l 257
 -242.965 65 l 257
1160.88 1518 m 257
 608.377 0 l 257
 669.377 0 l 257
 1221.88 1518 l 257
 1160.88 1518 l 257
686.513 1767 m 257
 976.432 1525 l 257
 1045.89 1540 l 257
 745.347 1816 l 257
 686.513 1767 l 257
985.74 1905 m 257
 1059.53 1550 l 257
 1140.53 1550 l 257
 1050.39 1937 l 257
 985.74 1905 l 257
EndSplineSet
EndChar

StartChar: uni0915
Encoding: 428 2325 428
GlifName: uni0915
Width: 1024
VWidth: 0
GlyphClass: 2
Flags: W
AnchorPoint: "abvm_deva" 636 1582 basechar 0
AnchorPoint: "blwm_deva" 173 -18 basechar 0
LayerCount: 2
Fore
SplineSet
104.811 1553 m 257
 82.6084 1492 l 257
 1106.61 1492 l 257
 1128.81 1553 l 257
 104.811 1553 l 257
686.796 1509 m 257
 137.564 0 l 257
 197.564 0 l 257
 746.796 1509 l 257
 686.796 1509 l 257
109.648 1069 m 257
 87.4463 1008 l 257
 446.446 1008 l 257
 468.648 1069 l 257
 109.648 1069 l 257
98.2842 1068 m 257
 -104.811 510 l 257
 -44.8105 510 l 257
 158.284 1068 l 257
 98.2842 1068 l 257
-67.2441 572 m 257
 -89.4463 511 l 257
 370.554 511 l 257
 392.756 572 l 257
 -67.2441 572 l 257
526.171 999 m 257
 503.969 938 l 257
 768.969 938 l 257
 791.171 999 l 257
 526.171 999 l 257
741.535 1000 m 257
 661.098 779 l 257
 723.098 779 l 257
 803.535 1000 l 257
 741.535 1000 l 257
EndSplineSet
EndChar

StartChar: uni0915_uni0930_uni094D.vatu
Encoding: 429 -1 429
GlifName: uni0915_uni0930_uni094D_.vatu
Width: 1024
VWidth: 0
GlyphClass: 3
Flags: W
LayerCount: 2
Fore
SplineSet
565.123 1553 m 257
 542.921 1492 l 257
 1566.92 1492 l 257
 1589.12 1553 l 257
 565.123 1553 l 257
1147.11 1509 m 257
 597.877 0 l 257
 657.877 0 l 257
 1207.11 1509 l 257
 1147.11 1509 l 257
569.961 1069 m 257
 547.759 1008 l 257
 891.759 1008 l 257
 913.961 1069 l 257
 569.961 1069 l 257
558.597 1068 m 257
 355.502 510 l 257
 415.502 510 l 257
 618.597 1068 l 257
 558.597 1068 l 257
393.068 572 m 257
 370.866 511 l 257
 830.866 511 l 257
 853.068 572 l 257
 393.068 572 l 257
986.483 999 m 257
 964.281 938 l 257
 1229.28 938 l 257
 1251.48 999 l 257
 986.483 999 l 257
1201.85 1000 m 257
 1121.41 779 l 257
 1183.41 779 l 257
 1263.85 1000 l 257
 1201.85 1000 l 257
56.877 0 m 257
 176.877 0 l 257
 732.131 215 l 257
 757.608 285 l 257
 56.877 0 l 257
EndSplineSet
Ligature2: "rkrfRakarVariantsinDevanagari2lookup0 subtable" uni0915 uni094D uni0930
EndChar

StartChar: uni0915_uni094D.half
Encoding: 430 -1 430
GlifName: uni0915_uni094D_.half
Width: 1024
VWidth: 0
GlyphClass: 2
Flags: W
LayerCount: 2
Fore
SplineSet
557.811 1553 m 257
 535.608 1492 l 257
 1559.61 1492 l 257
 1581.81 1553 l 257
 557.811 1553 l 257
1139.8 1509 m 257
 590.564 0 l 257
 650.564 0 l 257
 1199.8 1509 l 257
 1139.8 1509 l 257
562.648 1069 m 257
 540.446 1008 l 257
 894.446 1008 l 257
 916.648 1069 l 257
 562.648 1069 l 257
551.284 1068 m 257
 348.189 510 l 257
 408.189 510 l 257
 611.284 1068 l 257
 551.284 1068 l 257
385.756 572 m 257
 363.554 511 l 257
 823.554 511 l 257
 845.756 572 l 257
 385.756 572 l 257
979.171 999 m 257
 956.969 938 l 257
 1364.97 938 l 257
 1387.17 999 l 257
 979.171 999 l 257
EndSplineSet
Ligature2: "halfHalfFormsinDevanagari2lookup0 subtable" uni0915 uni094D
EndChar

StartChar: uni0915_uni094D.haln
Encoding: 431 -1 431
GlifName: uni0915_uni094D_.haln
Width: 1024
VWidth: 0
GlyphClass: 3
Flags: W
LayerCount: 2
Fore
SplineSet
602.375 1553 m 257
 580.173 1492 l 257
 1604.17 1492 l 257
 1626.38 1553 l 257
 602.375 1553 l 257
1184.36 1509 m 257
 635.13 0 l 257
 695.13 0 l 257
 1244.36 1509 l 257
 1184.36 1509 l 257
607.214 1069 m 257
 585.011 1008 l 257
 944.011 1008 l 257
 966.214 1069 l 257
 607.214 1069 l 257
595.85 1068 m 257
 392.754 510 l 257
 452.754 510 l 257
 655.85 1068 l 257
 595.85 1068 l 257
430.32 572 m 257
 408.118 511 l 257
 868.118 511 l 257
 890.32 572 l 257
 430.32 572 l 257
1023.74 999 m 257
 1001.53 938 l 257
 1266.53 938 l 257
 1288.74 999 l 257
 1023.74 999 l 257
1239.1 1000 m 257
 1158.66 779 l 257
 1220.66 779 l 257
 1301.1 1000 l 257
 1239.1 1000 l 257
496.426 -16 m 257
 474.224 -77 l 257
 818.224 -77 l 257
 840.426 -16 l 257
 496.426 -16 l 257
791.407 -71 m 257
 975.109 -418 l 257
 1024.04 -366 l 257
 840.79 -15 l 257
 791.407 -71 l 257
EndSplineSet
Ligature2: "halnHalantFormsinDevanagari2lookup0 subtable" uni0915 uni094D
EndChar

StartChar: uni0915_uni094D_uni0937.akhn
Encoding: 432 -1 432
GlifName: uni0915_uni094D__uni0937.akhn
Width: 1024
VWidth: 0
GlyphClass: 3
Flags: W
LayerCount: 2
Fore
SplineSet
837.867 1550 m 257
 816.393 1491 l 257
 1175.39 1491 l 257
 1196.87 1550 l 257
 837.867 1550 l 257
1020.67 1511 m 257
 470.713 0 l 257
 529.713 0 l 257
 1079.67 1511 l 257
 1020.67 1511 l 257
127.074 1078 m 257
 105.234 1018 l 257
 900.234 1018 l 257
 922.074 1078 l 257
 127.074 1078 l 257
107.055 1023 m 257
 167.055 1023 l 257
 312.279 1422 l 257
 252.279 1422 l 257
 107.055 1023 l 257
258.01 1435 m 257
 235.809 1374 l 257
 675.809 1374 l 257
 698.01 1435 l 257
 258.01 1435 l 257
632.279 1422 m 257
 489.604 1030 l 257
 549.604 1030 l 257
 692.279 1422 l 257
 632.279 1422 l 257
2.20117 647 m 257
 62.2012 647 l 257
 547.875 1028 l 257
 489.875 1028 l 257
 2.20117 647 l 257
2.20117 647 m 257
 -160.492 200 l 257
 -100.492 200 l 257
 62.2012 647 l 257
 2.20117 647 l 257
-151.029 226 m 257
 -172.867 166 l 257
 551.133 166 l 257
 572.971 226 l 257
 -151.029 226 l 257
EndSplineSet
Ligature2: "akhnAkhandinDevanagari2lookup0 subtable" uni0915 uni094D uni0937
EndChar

StartChar: uni0915_uni094D_uni0937.half
Encoding: 433 -1 433
GlifName: uni0915_uni094D__uni0937.half
Width: 1024
VWidth: 0
GlyphClass: 3
Flags: W
LayerCount: 2
Fore
SplineSet
837.867 1550 m 257
 816.393 1491 l 257
 1175.39 1491 l 257
 1196.87 1550 l 257
 837.867 1550 l 257
127.074 1078 m 257
 105.234 1018 l 257
 1000.23 1018 l 257
 1022.07 1078 l 257
 127.074 1078 l 257
107.055 1023 m 257
 167.055 1023 l 257
 312.279 1422 l 257
 252.279 1422 l 257
 107.055 1023 l 257
258.01 1435 m 257
 235.809 1374 l 257
 675.809 1374 l 257
 698.01 1435 l 257
 258.01 1435 l 257
632.279 1422 m 257
 489.604 1030 l 257
 549.604 1030 l 257
 692.279 1422 l 257
 632.279 1422 l 257
2.20117 647 m 257
 62.2012 647 l 257
 547.875 1028 l 257
 489.875 1028 l 257
 2.20117 647 l 257
2.20117 647 m 257
 -160.492 200 l 257
 -100.492 200 l 257
 62.2012 647 l 257
 2.20117 647 l 257
-151.029 226 m 257
 -172.867 166 l 257
 651.133 166 l 257
 672.971 226 l 257
 -151.029 226 l 257
EndSplineSet
Ligature2: "halfHalfFormsinDevanagari2lookup0 subtable" uni0915_uni094D_uni0937.akhn uni094D
EndChar

StartChar: uni0915_uni094D_uni0937_uni094D
Encoding: 434 -1 434
GlifName: uni0915_uni094D__uni0937_uni094D_
Width: 1024
VWidth: 0
GlyphClass: 2
Flags: W
LayerCount: 2
Fore
SplineSet
525.58 1550 m 257
 504.106 1491 l 257
 863.106 1491 l 257
 884.58 1550 l 257
 525.58 1550 l 257
708.386 1511 m 257
 158.427 0 l 257
 217.427 0 l 257
 767.386 1511 l 257
 708.386 1511 l 257
-185.213 1078 m 257
 -207.052 1018 l 257
 587.948 1018 l 257
 609.787 1078 l 257
 -185.213 1078 l 257
-205.231 1023 m 257
 -145.231 1023 l 257
 -0.00683594 1422 l 257
 -60.0068 1422 l 257
 -205.231 1023 l 257
-54.2764 1435 m 257
 -76.4775 1374 l 257
 363.522 1374 l 257
 385.724 1435 l 257
 -54.2764 1435 l 257
319.993 1422 m 257
 177.317 1030 l 257
 237.317 1030 l 257
 379.993 1422 l 257
 319.993 1422 l 257
-310.085 647 m 257
 -250.085 647 l 257
 235.589 1028 l 257
 177.589 1028 l 257
 -310.085 647 l 257
-310.085 647 m 257
 -472.778 200 l 257
 -412.778 200 l 257
 -250.085 647 l 257
 -310.085 647 l 257
-463.314 226 m 257
 -485.153 166 l 257
 238.847 166 l 257
 260.686 226 l 257
 -463.314 226 l 257
1000.01 -16 m 257
 977.808 -77 l 257
 1321.81 -77 l 257
 1344.01 -16 l 257
 1000.01 -16 l 257
1294.99 -71 m 257
 1478.69 -418 l 257
 1527.62 -366 l 257
 1344.37 -15 l 257
 1294.99 -71 l 257
EndSplineSet
Ligature2: "halnHalantFormsinDevanagari2lookup0 subtable" uni0915_uni094D_uni0937.akhn uni094D
EndChar

StartChar: uni0916
Encoding: 435 2326 435
GlifName: uni0916
Width: 1024
VWidth: 0
GlyphClass: 2
Flags: W
AnchorPoint: "abvm_deva" 1054 1667 basechar 0
AnchorPoint: "blwm_deva" 467 -32 basechar 0
LayerCount: 2
Fore
SplineSet
175.885 1553 m 257
 155.137 1496 l 257
 1181.14 1496 l 257
 1201.88 1553 l 257
 175.885 1553 l 257
993.689 1514 m 257
 442.639 0 l 257
 504.639 0 l 257
 1055.69 1514 l 257
 993.689 1514 l 257
380.965 979 m 257
 359.127 919 l 257
 621.127 919 l 257
 642.965 979 l 257
 380.965 979 l 257
350.965 979 m 257
 145.322 414 l 257
 205.322 414 l 257
 410.965 979 l 257
 350.965 979 l 257
150.781 429 m 257
 128.58 368 l 257
 592.58 368 l 257
 614.781 429 l 257
 150.781 429 l 257
346.232 1510 m 257
 -159.686 120 l 257
 -97.6855 120 l 257
 408.232 1510 l 257
 346.232 1510 l 257
-113.486 714 m 257
 -135.326 654 l 257
 94.6738 654 l 257
 116.514 714 l 257
 -113.486 714 l 257
-156.045 130 m 257
 -177.885 70 l 257
 466.115 70 l 257
 487.955 130 l 257
 -156.045 130 l 257
EndSplineSet
EndChar

StartChar: uni0916_uni0930_uni094D.vatu
Encoding: 436 -1 436
GlifName: uni0916_uni0930_uni094D_.vatu
Width: 1024
VWidth: 0
GlyphClass: 3
Flags: W
LayerCount: 2
Fore
SplineSet
-164.123 0 m 257
 -44.123 0 l 257
 511.131 215 l 257
 536.608 285 l 257
 -164.123 0 l 257
162.123 1553 m 257
 141.376 1496 l 257
 1167.38 1496 l 257
 1188.12 1553 l 257
 162.123 1553 l 257
979.928 1514 m 257
 428.877 0 l 257
 490.877 0 l 257
 1041.93 1514 l 257
 979.928 1514 l 257
476.395 1279 m 257
 454.557 1219 l 257
 716.557 1219 l 257
 738.395 1279 l 257
 476.395 1279 l 257
446.395 1279 m 257
 240.752 714 l 257
 300.752 714 l 257
 506.395 1279 l 257
 446.395 1279 l 257
246.211 729 m 257
 224.009 668 l 257
 688.009 668 l 257
 710.211 729 l 257
 246.211 729 l 257
332.472 1510 m 257
 -64.2559 420 l 257
 -2.25586 420 l 257
 394.472 1510 l 257
 332.472 1510 l 257
-18.0576 1014 m 257
 -39.8955 954 l 257
 190.104 954 l 257
 211.942 1014 l 257
 -18.0576 1014 l 257
-60.6162 430 m 257
 -82.4541 370 l 257
 561.546 370 l 257
 583.384 430 l 257
 -60.6162 430 l 257
EndSplineSet
Ligature2: "rkrfRakarVariantsinDevanagari2lookup0 subtable" uni0916 uni094D uni0930
EndChar

StartChar: uni0916_uni094D.half
Encoding: 437 -1 437
GlifName: uni0916_uni094D_.half
Width: 1024
VWidth: 0
GlyphClass: 2
Flags: W
LayerCount: 2
Fore
SplineSet
175.885 1553 m 257
 155.137 1496 l 257
 1181.14 1496 l 257
 1201.88 1553 l 257
 175.885 1553 l 257
380.965 979 m 257
 359.127 919 l 257
 796.127 919 l 257
 817.965 979 l 257
 380.965 979 l 257
350.965 979 m 257
 145.322 414 l 257
 205.322 414 l 257
 410.965 979 l 257
 350.965 979 l 257
150.781 429 m 257
 128.58 368 l 257
 768.58 368 l 257
 790.781 429 l 257
 150.781 429 l 257
346.232 1510 m 257
 -159.686 120 l 257
 -97.6855 120 l 257
 408.232 1510 l 257
 346.232 1510 l 257
-113.486 714 m 257
 -135.326 654 l 257
 94.6738 654 l 257
 116.514 714 l 257
 -113.486 714 l 257
-156.045 130 m 257
 -177.885 70 l 257
 642.115 70 l 257
 663.955 130 l 257
 -156.045 130 l 257
EndSplineSet
Ligature2: "halfHalfFormsinDevanagari2lookup0 subtable" uni0916 uni094D
EndChar

StartChar: uni0916_uni094D.haln
Encoding: 438 -1 438
GlifName: uni0916_uni094D_.haln
Width: 1024
VWidth: 0
GlyphClass: 3
Flags: W
LayerCount: 2
Fore
SplineSet
-119.478 1553 m 257
 -140.226 1496 l 257
 885.774 1496 l 257
 906.522 1553 l 257
 -119.478 1553 l 257
698.327 1514 m 257
 147.276 0 l 257
 209.276 0 l 257
 760.327 1514 l 257
 698.327 1514 l 257
85.6025 979 m 257
 63.7646 919 l 257
 325.765 919 l 257
 347.603 979 l 257
 85.6025 979 l 257
55.6025 979 m 257
 -150.04 414 l 257
 -90.04 414 l 257
 115.603 979 l 257
 55.6025 979 l 257
-144.581 429 m 257
 -166.782 368 l 257
 297.218 368 l 257
 319.419 429 l 257
 -144.581 429 l 257
50.8701 1510 m 257
 -455.048 120 l 257
 -393.048 120 l 257
 112.87 1510 l 257
 50.8701 1510 l 257
-408.849 714 m 257
 -430.688 654 l 257
 -200.688 654 l 257
 -178.849 714 l 257
 -408.849 714 l 257
-451.407 130 m 257
 -473.246 70 l 257
 170.754 70 l 257
 192.593 130 l 257
 -451.407 130 l 257
474.571 -16 m 257
 452.369 -77 l 257
 796.369 -77 l 257
 818.571 -16 l 257
 474.571 -16 l 257
769.554 -71 m 257
 953.256 -418 l 257
 1002.18 -366 l 257
 818.936 -15 l 257
 769.554 -71 l 257
EndSplineSet
Ligature2: "halnHalantFormsinDevanagari2lookup0 subtable" uni0916 uni094D
EndChar

StartChar: uni0917
Encoding: 439 2327 439
GlifName: uni0917
Width: 1024
VWidth: 0
GlyphClass: 2
Flags: W
AnchorPoint: "abvm_deva" 987 1610 basechar 0
AnchorPoint: "blwm_deva" 400 -89 basechar 0
LayerCount: 2
Fore
SplineSet
-62.9277 853 m 257
 7.07227 853 l 257
 76.5898 1044 l 257
 6.58984 1044 l 257
 -62.9277 853 l 257
-52.373 882 m 257
 -77.8516 812 l 257
 269.148 812 l 257
 294.627 882 l 257
 -52.373 882 l 257
468.852 1553 m 257
 199.148 812 l 257
 269.148 812 l 257
 538.852 1553 l 257
 468.852 1553 l 257
1101.85 1553 m 257
 350.852 1553 l 257
 330.104 1496 l 257
 1081.1 1496 l 257
 1101.85 1553 l 257
939.932 1523 m 257
 385.605 0 l 257
 455.605 0 l 257
 1009.93 1523 l 257
 939.932 1523 l 257
EndSplineSet
EndChar

StartChar: uni0917_uni0930_uni094D.vatu
Encoding: 440 -1 440
GlifName: uni0917_uni0930_uni094D_.vatu
Width: 1024
VWidth: 0
GlyphClass: 3
Flags: W
LayerCount: 2
Fore
SplineSet
-135.123 0 m 257
 -15.123 0 l 257
 540.131 215 l 257
 565.608 285 l 257
 -135.123 0 l 257
-5.65625 853 m 257
 64.3438 853 l 257
 133.862 1044 l 257
 63.8623 1044 l 257
 -5.65625 853 l 257
4.89844 882 m 257
 -20.5791 812 l 257
 326.421 812 l 257
 351.898 882 l 257
 4.89844 882 l 257
526.123 1553 m 257
 256.421 812 l 257
 326.421 812 l 257
 596.123 1553 l 257
 526.123 1553 l 257
1159.12 1553 m 257
 408.123 1553 l 257
 387.376 1496 l 257
 1138.38 1496 l 257
 1159.12 1553 l 257
997.204 1523 m 257
 442.877 0 l 257
 512.877 0 l 257
 1067.2 1523 l 257
 997.204 1523 l 257
EndSplineSet
Ligature2: "rkrfRakarVariantsinDevanagari2lookup0 subtable" uni0917 uni094D uni0930
EndChar

StartChar: uni0917_uni094D.half
Encoding: 441 -1 441
GlifName: uni0917_uni094D_.half
Width: 1024
VWidth: 0
GlyphClass: 3
Flags: W
LayerCount: 2
Fore
SplineSet
-62.9277 853 m 257
 7.07227 853 l 257
 76.5898 1044 l 257
 6.58984 1044 l 257
 -62.9277 853 l 257
-52.373 882 m 257
 -77.8516 812 l 257
 269.148 812 l 257
 294.627 882 l 257
 -52.373 882 l 257
468.852 1553 m 257
 199.148 812 l 257
 269.148 812 l 257
 538.852 1553 l 257
 468.852 1553 l 257
1101.85 1553 m 257
 350.852 1553 l 257
 330.104 1496 l 257
 1081.1 1496 l 257
 1101.85 1553 l 257
EndSplineSet
Ligature2: "halfHalfFormsinDevanagari2lookup0 subtable" uni0917 uni094D
EndChar

StartChar: uni0917_uni094D.haln
Encoding: 442 -1 442
GlifName: uni0917_uni094D_.haln
Width: 1024
VWidth: 0
GlyphClass: 3
Flags: W
LayerCount: 2
Fore
SplineSet
-493.323 853 m 257
 -423.323 853 l 257
 -353.806 1044 l 257
 -423.806 1044 l 257
 -493.323 853 l 257
-482.768 882 m 257
 -508.247 812 l 257
 -161.247 812 l 257
 -135.768 882 l 257
 -482.768 882 l 257
38.4561 1553 m 257
 -231.247 812 l 257
 -161.247 812 l 257
 108.456 1553 l 257
 38.4561 1553 l 257
671.456 1553 m 257
 -79.5439 1553 l 257
 -100.291 1496 l 257
 650.709 1496 l 257
 671.456 1553 l 257
509.536 1523 m 257
 -44.7891 0 l 257
 25.2109 0 l 257
 579.536 1523 l 257
 509.536 1523 l 257
298.506 -16 m 257
 276.304 -77 l 257
 620.304 -77 l 257
 642.506 -16 l 257
 298.506 -16 l 257
593.487 -71 m 257
 777.19 -418 l 257
 826.116 -366 l 257
 642.87 -15 l 257
 593.487 -71 l 257
EndSplineSet
Ligature2: "halnHalantFormsinDevanagari2lookup0 subtable" uni0917 uni094D
EndChar

StartChar: uni0918
Encoding: 443 2328 443
GlifName: uni0918
Width: 1024
VWidth: 0
GlyphClass: 2
Flags: W
AnchorPoint: "abvm_deva" 732 1618 basechar 0
AnchorPoint: "blwm_deva" 507 -179 basechar 0
LayerCount: 2
Fore
SplineSet
147.669 1553 m 257
 126.559 1495 l 257
 1148.56 1495 l 257
 1169.67 1553 l 257
 147.669 1553 l 257
978.386 1522 m 257
 429.154 13 l 257
 489.154 13 l 257
 1038.39 1522 l 257
 978.386 1522 l 257
307.838 1515 m 257
 69.0732 859 l 257
 127.073 859 l 257
 365.838 1515 l 257
 307.838 1515 l 257
115.985 867 m 257
 94.1465 807 l 257
 338.146 807 l 257
 359.985 867 l 257
 115.985 867 l 257
-118.195 328 m 257
 -139.669 269 l 257
 558.331 269 l 257
 579.805 328 l 257
 -118.195 328 l 257
-145.669 269 m 257
 -85.6689 269 l 257
 112.694 814 l 257
 52.6943 814 l 257
 -145.669 269 l 257
EndSplineSet
EndChar

StartChar: uni0918_uni0930_uni094D.vatu
Encoding: 444 -1 444
GlifName: uni0918_uni0930_uni094D_.vatu
Width: 1024
VWidth: 0
GlyphClass: 3
Flags: W
LayerCount: 2
Fore
SplineSet
-151.123 0 m 257
 -31.123 0 l 257
 524.131 215 l 257
 549.608 285 l 257
 -151.123 0 l 257
153.123 1553 m 257
 132.013 1495 l 257
 1154.01 1495 l 257
 1175.12 1553 l 257
 153.123 1553 l 257
983.84 1522 m 257
 434.608 13 l 257
 494.608 13 l 257
 1043.84 1522 l 257
 983.84 1522 l 257
313.292 1515 m 257
 74.5273 859 l 257
 132.527 859 l 257
 371.292 1515 l 257
 313.292 1515 l 257
121.439 867 m 257
 99.6006 807 l 257
 343.601 807 l 257
 365.439 867 l 257
 121.439 867 l 257
-112.741 328 m 257
 -134.215 269 l 257
 563.785 269 l 257
 585.259 328 l 257
 -112.741 328 l 257
-140.215 269 m 257
 -80.2148 269 l 257
 118.148 814 l 257
 58.1484 814 l 257
 -140.215 269 l 257
EndSplineSet
Ligature2: "rkrfRakarVariantsinDevanagari2lookup0 subtable" uni0918 uni094D uni0930
EndChar

StartChar: uni0918_uni094D.half
Encoding: 445 -1 445
GlifName: uni0918_uni094D_.half
Width: 1024
VWidth: 0
GlyphClass: 3
Flags: W
LayerCount: 2
Fore
SplineSet
147.669 1553 m 257
 126.559 1495 l 257
 1148.56 1495 l 257
 1169.67 1553 l 257
 147.669 1553 l 257
307.838 1515 m 257
 69.0732 859 l 257
 127.073 859 l 257
 365.838 1515 l 257
 307.838 1515 l 257
115.985 867 m 257
 94.1465 807 l 257
 338.146 807 l 257
 359.985 867 l 257
 115.985 867 l 257
-118.195 328 m 257
 -139.669 269 l 257
 758.331 269 l 257
 779.805 328 l 257
 -118.195 328 l 257
-145.669 269 m 257
 -85.6689 269 l 257
 112.694 814 l 257
 52.6943 814 l 257
 -145.669 269 l 257
EndSplineSet
Ligature2: "halfHalfFormsinDevanagari2lookup0 subtable" uni0918 uni094D
EndChar

StartChar: uni0918_uni094D.haln
Encoding: 446 -1 446
GlifName: uni0918_uni094D_.haln
Width: 1024
VWidth: 0
GlyphClass: 3
Flags: W
LayerCount: 2
Fore
SplineSet
-183.909 1553 m 257
 -205.019 1495 l 257
 816.981 1495 l 257
 838.091 1553 l 257
 -183.909 1553 l 257
646.809 1522 m 257
 97.5771 13 l 257
 157.577 13 l 257
 706.809 1522 l 257
 646.809 1522 l 257
-23.7393 1515 m 257
 -262.504 859 l 257
 -204.504 859 l 257
 34.2607 1515 l 257
 -23.7393 1515 l 257
-215.592 867 m 257
 -237.431 807 l 257
 6.56934 807 l 257
 28.4082 867 l 257
 -215.592 867 l 257
-449.772 328 m 257
 -471.246 269 l 257
 226.754 269 l 257
 248.228 328 l 257
 -449.772 328 l 257
-477.246 269 m 257
 -417.246 269 l 257
 -218.883 814 l 257
 -278.883 814 l 257
 -477.246 269 l 257
410.142 -16 m 257
 387.939 -77 l 257
 731.939 -77 l 257
 754.142 -16 l 257
 410.142 -16 l 257
705.123 -71 m 257
 888.825 -418 l 257
 937.752 -366 l 257
 754.506 -15 l 257
 705.123 -71 l 257
EndSplineSet
Ligature2: "halnHalantFormsinDevanagari2lookup0 subtable" uni0918 uni094D
EndChar

StartChar: uni0919
Encoding: 447 2329 447
GlifName: uni0919
Width: 1024
VWidth: 0
GlyphClass: 2
Flags: W
AnchorPoint: "abvm_deva" 630 1582 basechar 0
AnchorPoint: "blwm_deva" 202 -100 basechar 0
LayerCount: 2
Fore
SplineSet
224.623 1553 m 257
 203.148 1494 l 257
 1228.15 1494 l 257
 1249.62 1553 l 257
 224.623 1553 l 257
872.983 1543 m 257
 683.719 1023 l 257
 743.719 1023 l 257
 932.983 1543 l 257
 872.983 1543 l 257
757.648 1086 m 257
 294.648 1086 l 257
 271.719 1023 l 257
 734.719 1023 l 257
 757.648 1086 l 257
281.557 1083 m 257
 116.314 629 l 257
 188.314 629 l 257
 353.557 1083 l 257
 281.557 1083 l 257
140.877 680 m 257
 119.038 620 l 257
 674.038 620 l 257
 695.877 680 l 257
 140.877 680 l 257
632.877 680 m 257
 395.932 29 l 257
 458.932 29 l 257
 695.877 680 l 257
 632.877 680 l 257
-203.421 61 m 257
 -225.623 0 l 257
 449.377 0 l 257
 471.579 61 l 257
 -203.421 61 l 257
-152.101 202 m 257
 -222.711 8 l 257
 -162.711 8 l 257
 -92.1006 202 l 257
 -152.101 202 l 257
772.233 931 m 257
 737.292 835 l 257
 833.292 835 l 257
 868.233 931 l 257
 772.233 931 l 257
EndSplineSet
EndChar

StartChar: uni0919_uni0930_uni094D.vatu
Encoding: 448 -1 448
GlifName: uni0919_uni0930_uni094D_.vatu
Width: 1024
VWidth: 0
GlyphClass: 3
Flags: W
LayerCount: 2
Fore
SplineSet
121.24 220 m 257
 180.855 -119 l 257
 248.855 -119 l 257
 189.627 287 l 257
 121.24 220 l 257
189.627 287 m 257
 -213.414 -106 l 257
 -145.414 -106 l 257
 198.152 228 l 257
 189.627 287 l 257
212.414 1553 m 257
 190.939 1494 l 257
 1215.94 1494 l 257
 1237.41 1553 l 257
 212.414 1553 l 257
860.773 1543 m 257
 781.793 1326 l 257
 841.793 1326 l 257
 920.773 1543 l 257
 860.773 1543 l 257
854.631 1386 m 257
 391.631 1386 l 257
 369.793 1326 l 257
 832.793 1326 l 257
 854.631 1386 l 257
378.539 1383 m 257
 213.295 929 l 257
 285.295 929 l 257
 450.539 1383 l 257
 378.539 1383 l 257
237.857 980 m 257
 216.02 920 l 257
 771.02 920 l 257
 792.857 980 l 257
 237.857 980 l 257
729.857 980 m 257
 492.914 329 l 257
 555.914 329 l 257
 792.857 980 l 257
 729.857 980 l 257
-106.439 361 m 257
 -128.641 300 l 257
 546.359 300 l 257
 568.561 361 l 257
 -106.439 361 l 257
-55.1191 502 m 257
 -125.73 308 l 257
 -65.7305 308 l 257
 4.88086 502 l 257
 -55.1191 502 l 257
869.215 1231 m 257
 834.273 1135 l 257
 930.273 1135 l 257
 965.215 1231 l 257
 869.215 1231 l 257
EndSplineSet
Ligature2: "rkrfRakarVariantsinDevanagari2lookup0 subtable" uni0919 uni094D uni0930
EndChar

StartChar: uni0919_uni094D.half
Encoding: 449 -1 449
GlifName: uni0919_uni094D_.half
Width: 1024
VWidth: 0
GlyphClass: 3
Flags: W
LayerCount: 2
Fore
SplineSet
186.312 1550 m 257
 164.838 1491 l 257
 1186.84 1491 l 257
 1208.31 1550 l 257
 186.312 1550 l 257
832.765 1543 m 257
 643.5 1023 l 257
 703.5 1023 l 257
 892.765 1543 l 257
 832.765 1543 l 257
716.338 1083 m 257
 242.338 1083 l 257
 220.5 1023 l 257
 694.5 1023 l 257
 716.338 1083 l 257
241.338 1083 m 257
 76.0957 629 l 257
 143.096 629 l 257
 308.338 1083 l 257
 241.338 1083 l 257
98.2979 690 m 257
 72.8193 620 l 257
 633.819 620 l 257
 659.298 690 l 257
 98.2979 690 l 257
593.658 680 m 257
 438.606 254 l 257
 500.606 254 l 257
 655.658 680 l 257
 593.658 680 l 257
-162.475 284 m 257
 -184.312 224 l 257
 490.688 224 l 257
 512.525 284 l 257
 -162.475 284 l 257
-62.3828 559 m 257
 -181.037 233 l 257
 -120.037 233 l 257
 -1.38281 559 l 257
 -62.3828 559 l 257
787.481 968 m 257
 759.092 890 l 257
 834.092 890 l 257
 862.481 968 l 257
 787.481 968 l 257
13.5703 144 m 257
 -132.632 83 l 257
 224.368 83 l 257
 370.57 144 l 257
 13.5703 144 l 257
224.368 83 m 257
 487.394 -112 l 257
 532.037 -91 l 257
 370.57 144 l 257
 224.368 83 l 257
EndSplineSet
Ligature2: "halfHalfFormsinDevanagari2lookup0 subtable" uni0919 uni094D
EndChar

StartChar: uni0919_uni094D.haln
Encoding: 450 -1 450
GlifName: uni0919_uni094D_.haln
Width: 1024
VWidth: 0
GlyphClass: 3
Flags: W
LayerCount: 2
Fore
SplineSet
-58.001 1553 m 257
 -79.4746 1494 l 257
 945.525 1494 l 257
 966.999 1553 l 257
 -58.001 1553 l 257
590.359 1543 m 257
 401.096 1023 l 257
 461.096 1023 l 257
 650.359 1543 l 257
 590.359 1543 l 257
475.025 1086 m 257
 12.0254 1086 l 257
 -10.9043 1023 l 257
 452.096 1023 l 257
 475.025 1086 l 257
-1.06641 1083 m 257
 -166.309 629 l 257
 -94.3086 629 l 257
 70.9336 1083 l 257
 -1.06641 1083 l 257
-141.746 680 m 257
 -163.585 620 l 257
 391.415 620 l 257
 413.254 680 l 257
 -141.746 680 l 257
350.254 680 m 257
 113.31 29 l 257
 176.31 29 l 257
 413.254 680 l 257
 350.254 680 l 257
-486.044 61 m 257
 -508.246 0 l 257
 166.754 0 l 257
 188.956 61 l 257
 -486.044 61 l 257
-434.724 202 m 257
 -505.334 8 l 257
 -445.334 8 l 257
 -374.724 202 l 257
 -434.724 202 l 257
489.61 931 m 257
 454.669 835 l 257
 550.669 835 l 257
 585.61 931 l 257
 489.61 931 l 257
536.05 -16 m 257
 513.848 -77 l 257
 857.848 -77 l 257
 880.05 -16 l 257
 536.05 -16 l 257
831.031 -71 m 257
 1014.73 -418 l 257
 1063.66 -366 l 257
 880.414 -15 l 257
 831.031 -71 l 257
EndSplineSet
Ligature2: "halnHalantFormsinDevanagari2lookup0 subtable" uni0919 uni094D
EndChar

StartChar: uni091A
Encoding: 451 2330 451
GlifName: uni091A_
Width: 1024
VWidth: 0
GlyphClass: 2
Flags: W
AnchorPoint: "abvm_deva" 720 1624 basechar 0
AnchorPoint: "blwm_deva" 304 -122 basechar 0
LayerCount: 2
Fore
SplineSet
102.673 1553 m 257
 82.29 1497 l 257
 1105.29 1497 l 257
 1125.67 1553 l 257
 102.673 1553 l 257
880.673 1553 m 257
 315.427 0 l 257
 374.427 0 l 257
 939.673 1553 l 257
 880.673 1553 l 257
494.658 421 m 257
 516.133 480 l 257
 9.13281 480 l 257
 -12.3418 421 l 257
 494.658 421 l 257
139.07 837 m 257
 -12.3418 421 l 257
 46.6582 421 l 257
 198.07 837 l 257
 139.07 837 l 257
-79.4707 852 m 257
 -101.673 791 l 257
 323.327 791 l 257
 345.529 852 l 257
 -79.4707 852 l 257
EndSplineSet
EndChar

StartChar: uni091A_uni0930_uni094D.vatu
Encoding: 452 -1 452
GlifName: uni091A__uni0930_uni094D_.vatu
Width: 1024
VWidth: 0
GlyphClass: 2
Flags: W
LayerCount: 2
Fore
SplineSet
-178.123 0 m 257
 -58.123 0 l 257
 497.131 215 l 257
 522.608 285 l 257
 -178.123 0 l 257
179.123 1553 m 257
 158.74 1497 l 257
 1181.74 1497 l 257
 1202.12 1553 l 257
 179.123 1553 l 257
957.123 1553 m 257
 391.877 0 l 257
 450.877 0 l 257
 1016.12 1553 l 257
 957.123 1553 l 257
571.108 421 m 257
 592.583 480 l 257
 85.583 480 l 257
 64.1084 421 l 257
 571.108 421 l 257
215.521 837 m 257
 64.1084 421 l 257
 123.108 421 l 257
 274.521 837 l 257
 215.521 837 l 257
-3.02051 852 m 257
 -25.2227 791 l 257
 399.777 791 l 257
 421.979 852 l 257
 -3.02051 852 l 257
EndSplineSet
Ligature2: "rkrfRakarVariantsinDevanagari2lookup0 subtable" uni091A uni094D uni0930
EndChar

StartChar: uni091A_uni094D.half
Encoding: 453 -1 453
GlifName: uni091A__uni094D_.half
Width: 1024
VWidth: 0
GlyphClass: 3
Flags: W
LayerCount: 2
Fore
SplineSet
102.673 1553 m 257
 82.29 1497 l 257
 1105.29 1497 l 257
 1125.67 1553 l 257
 102.673 1553 l 257
794.658 421 m 257
 816.133 480 l 257
 9.13281 480 l 257
 -12.3418 421 l 257
 794.658 421 l 257
139.07 837 m 257
 -12.3418 421 l 257
 46.6582 421 l 257
 198.07 837 l 257
 139.07 837 l 257
-79.4707 852 m 257
 -101.673 791 l 257
 323.327 791 l 257
 345.529 852 l 257
 -79.4707 852 l 257
EndSplineSet
Ligature2: "halfHalfFormsinDevanagari2lookup0 subtable" uni091A uni094D
EndChar

StartChar: uni091A_uni094D.haln
Encoding: 454 -1 454
GlifName: uni091A__uni094D_.haln
Width: 1024
VWidth: 0
GlyphClass: 3
Flags: W
LayerCount: 2
Fore
SplineSet
-301.231 1553 m 257
 -321.614 1497 l 257
 701.386 1497 l 257
 721.769 1553 l 257
 -301.231 1553 l 257
476.769 1553 m 257
 -88.4775 0 l 257
 -29.4775 0 l 257
 535.769 1553 l 257
 476.769 1553 l 257
90.7539 421 m 257
 112.229 480 l 257
 -394.771 480 l 257
 -416.246 421 l 257
 90.7539 421 l 257
-264.834 837 m 257
 -416.246 421 l 257
 -357.246 421 l 257
 -205.834 837 l 257
 -264.834 837 l 257
-483.375 852 m 257
 -505.577 791 l 257
 -80.5771 791 l 257
 -58.375 852 l 257
 -483.375 852 l 257
292.817 -16 m 257
 270.615 -77 l 257
 614.615 -77 l 257
 636.817 -16 l 257
 292.817 -16 l 257
587.799 -71 m 257
 771.502 -418 l 257
 820.428 -366 l 257
 637.182 -15 l 257
 587.799 -71 l 257
EndSplineSet
Ligature2: "halnHalantFormsinDevanagari2lookup0 subtable" uni091A uni094D
EndChar

StartChar: uni091B
Encoding: 455 2331 455
GlifName: uni091B_
Width: 1024
VWidth: 0
GlyphClass: 2
Flags: W
AnchorPoint: "abvm_deva" 600 1600 basechar 0
AnchorPoint: "blwm_deva" 461 -65 basechar 0
LayerCount: 2
Fore
SplineSet
212.123 1553 m 257
 191.013 1495 l 257
 1214.01 1495 l 257
 1235.12 1553 l 257
 212.123 1553 l 257
594.436 1128 m 257
 209.436 1128 l 257
 187.961 1069 l 257
 572.961 1069 l 257
 594.436 1128 l 257
200.436 1128 m 257
 -14.3066 538 l 257
 45.6934 538 l 257
 260.436 1128 l 257
 200.436 1128 l 257
19.9688 547 m 257
 -1.86914 487 l 257
 361.131 487 l 257
 382.969 547 l 257
 19.9688 547 l 257
-28.7744 501 m 257
 -211.123 0 l 257
 -151.123 0 l 257
 31.2256 501 l 257
 -28.7744 501 l 257
-133.648 59 m 257
 -155.123 0 l 257
 479.877 0 l 257
 501.352 59 l 257
 -133.648 59 l 257
423.061 6 m 257
 482.061 6 l 257
 1031.29 1515 l 257
 972.292 1515 l 257
 423.061 6 l 257
629.167 869 m 257
 606.965 808 l 257
 944.965 808 l 257
 967.167 869 l 257
 629.167 869 l 257
907.803 868 m 257
 763.307 471 l 257
 822.307 471 l 257
 966.803 868 l 257
 907.803 868 l 257
EndSplineSet
EndChar

StartChar: uni091B_uni0930_uni094D.vatu
Encoding: 456 -1 456
GlifName: uni091B__uni0930_uni094D_.vatu
Width: 1024
VWidth: 0
GlyphClass: 3
Flags: W
LayerCount: 2
Fore
SplineSet
-178.123 0 m 257
 -58.123 0 l 257
 497.131 215 l 257
 522.608 285 l 257
 -178.123 0 l 257
179.123 1553 m 257
 158.013 1495 l 257
 1181.01 1495 l 257
 1202.12 1553 l 257
 179.123 1553 l 257
670.626 1428 m 257
 285.626 1428 l 257
 264.152 1369 l 257
 649.152 1369 l 257
 670.626 1428 l 257
276.626 1428 m 257
 61.8838 838 l 257
 121.884 838 l 257
 336.626 1428 l 257
 276.626 1428 l 257
96.1602 847 m 257
 74.3213 787 l 257
 437.321 787 l 257
 459.16 847 l 257
 96.1602 847 l 257
47.417 801 m 257
 -134.932 300 l 257
 -74.9316 300 l 257
 107.417 801 l 257
 47.417 801 l 257
-57.458 359 m 257
 -78.9316 300 l 257
 556.068 300 l 257
 577.542 359 l 257
 -57.458 359 l 257
387.877 0 m 257
 446.877 0 l 257
 992.104 1498 l 257
 933.104 1498 l 257
 387.877 0 l 257
705.358 1169 m 257
 683.156 1108 l 257
 1021.16 1108 l 257
 1043.36 1169 l 257
 705.358 1169 l 257
983.994 1168 m 257
 839.498 771 l 257
 898.498 771 l 257
 1042.99 1168 l 257
 983.994 1168 l 257
EndSplineSet
Ligature2: "rkrfRakarVariantsinDevanagari2lookup0 subtable" uni091B uni094D uni0930
EndChar

StartChar: uni091B_uni094D.half
Encoding: 457 -1 457
GlifName: uni091B__uni094D_.half
Width: 1024
VWidth: 0
GlyphClass: 3
Flags: W
LayerCount: 2
Fore
SplineSet
212.123 1553 m 257
 191.013 1495 l 257
 1214.01 1495 l 257
 1235.12 1553 l 257
 212.123 1553 l 257
594.436 1128 m 257
 209.436 1128 l 257
 187.961 1069 l 257
 572.961 1069 l 257
 594.436 1128 l 257
200.436 1128 m 257
 -14.3066 538 l 257
 45.6934 538 l 257
 260.436 1128 l 257
 200.436 1128 l 257
19.9688 547 m 257
 -1.86914 487 l 257
 361.131 487 l 257
 382.969 547 l 257
 19.9688 547 l 257
-28.7744 501 m 257
 -211.123 0 l 257
 -151.123 0 l 257
 31.2256 501 l 257
 -28.7744 501 l 257
-133.648 59 m 257
 -155.123 0 l 257
 779.877 0 l 257
 801.352 59 l 257
 -133.648 59 l 257
EndSplineSet
Ligature2: "halfHalfFormsinDevanagari2lookup0 subtable" uni091B uni094D
EndChar

StartChar: uni091B_uni094D.haln
Encoding: 458 -1 458
GlifName: uni091B__uni094D_.haln
Width: 1024
VWidth: 0
GlyphClass: 3
Flags: W
LayerCount: 2
Fore
SplineSet
-70.501 1553 m 257
 -91.6113 1495 l 257
 931.389 1495 l 257
 952.499 1553 l 257
 -70.501 1553 l 257
311.812 1128 m 257
 -73.1875 1128 l 257
 -94.6621 1069 l 257
 290.338 1069 l 257
 311.812 1128 l 257
-82.1875 1128 m 257
 -296.931 538 l 257
 -236.931 538 l 257
 -22.1875 1128 l 257
 -82.1875 1128 l 257
-262.654 547 m 257
 -284.492 487 l 257
 78.5078 487 l 257
 100.346 547 l 257
 -262.654 547 l 257
-311.397 501 m 257
 -493.746 0 l 257
 -433.746 0 l 257
 -251.397 501 l 257
 -311.397 501 l 257
-416.271 59 m 257
 -437.746 0 l 257
 197.254 0 l 257
 218.729 59 l 257
 -416.271 59 l 257
140.438 6 m 257
 199.438 6 l 257
 748.669 1515 l 257
 689.669 1515 l 257
 140.438 6 l 257
346.544 869 m 257
 324.342 808 l 257
 662.342 808 l 257
 684.544 869 l 257
 346.544 869 l 257
625.18 868 m 257
 480.684 471 l 257
 539.684 471 l 257
 684.18 868 l 257
 625.18 868 l 257
378.55 -7 m 257
 356.348 -68 l 257
 700.348 -68 l 257
 722.55 -7 l 257
 378.55 -7 l 257
673.532 -62 m 257
 857.234 -409 l 257
 906.161 -357 l 257
 722.913 -6 l 257
 673.532 -62 l 257
EndSplineSet
Ligature2: "halnHalantFormsinDevanagari2lookup0 subtable" uni091B uni094D
EndChar

StartChar: uni091C
Encoding: 459 2332 459
GlifName: uni091C_
Width: 1024
VWidth: 0
GlyphClass: 2
Flags: W
AnchorPoint: "abvm_deva" 762 1594 basechar 0
AnchorPoint: "blwm_deva" 446 -134 basechar 0
LayerCount: 2
Fore
SplineSet
135.129 1550 m 257
 114.019 1492 l 257
 1172.02 1492 l 257
 1193.13 1550 l 257
 135.129 1550 l 257
985.129 1550 m 257
 416.607 -12 l 257
 477.607 -12 l 257
 1046.13 1550 l 257
 985.129 1550 l 257
418.989 860 m 257
 397.515 801 l 257
 733.515 801 l 257
 754.989 860 l 257
 418.989 860 l 257
408.989 860 m 257
 282.327 512 l 257
 342.327 512 l 257
 468.989 860 l 257
 408.989 860 l 257
-147.654 567 m 257
 -169.129 508 l 257
 340.871 508 l 257
 362.346 567 l 257
 -147.654 567 l 257
-89.4189 727 m 257
 -168.765 509 l 257
 -108.765 509 l 257
 -29.4189 727 l 257
 -89.4189 727 l 257
EndSplineSet
EndChar

StartChar: uni091C_uni0930_uni094D.vatu
Encoding: 460 -1 460
GlifName: uni091C__uni0930_uni094D_.vatu
Width: 1024
VWidth: 0
GlyphClass: 2
Flags: W
LayerCount: 2
Fore
SplineSet
-186.577 0 m 257
 -66.5771 0 l 257
 535.677 215 l 257
 561.154 285 l 257
 -186.577 0 l 257
152.577 1550 m 257
 131.467 1492 l 257
 1189.47 1492 l 257
 1210.58 1550 l 257
 152.577 1550 l 257
1002.58 1550 m 257
 434.056 -12 l 257
 495.056 -12 l 257
 1063.58 1550 l 257
 1002.58 1550 l 257
436.438 860 m 257
 414.963 801 l 257
 750.963 801 l 257
 772.438 860 l 257
 436.438 860 l 257
426.438 860 m 257
 299.775 512 l 257
 359.775 512 l 257
 486.438 860 l 257
 426.438 860 l 257
-130.206 567 m 257
 -151.681 508 l 257
 358.319 508 l 257
 379.794 567 l 257
 -130.206 567 l 257
-71.9707 727 m 257
 -151.316 509 l 257
 -91.3164 509 l 257
 -11.9707 727 l 257
 -71.9707 727 l 257
EndSplineSet
Ligature2: "rkrfRakarVariantsinDevanagari2lookup0 subtable" uni091C uni094D uni0930
EndChar

StartChar: uni091C_uni094D.half
Encoding: 461 -1 461
GlifName: uni091C__uni094D_.half
Width: 1024
VWidth: 0
GlyphClass: 3
Flags: W
LayerCount: 2
Fore
SplineSet
135.129 1550 m 257
 114.019 1492 l 257
 1172.02 1492 l 257
 1193.13 1550 l 257
 135.129 1550 l 257
418.989 860 m 257
 397.515 801 l 257
 1033.51 801 l 257
 1054.99 860 l 257
 418.989 860 l 257
408.989 860 m 257
 282.327 512 l 257
 342.327 512 l 257
 468.989 860 l 257
 408.989 860 l 257
-147.654 567 m 257
 -169.129 508 l 257
 340.871 508 l 257
 362.346 567 l 257
 -147.654 567 l 257
-89.4189 727 m 257
 -168.765 509 l 257
 -108.765 509 l 257
 -29.4189 727 l 257
 -89.4189 727 l 257
EndSplineSet
Ligature2: "halfHalfFormsinDevanagari2lookup0 subtable" uni091C uni094D
EndChar

StartChar: uni091C_uni094D.haln
Encoding: 462 -1 462
GlifName: uni091C__uni094D_.haln
Width: 1024
VWidth: 0
GlyphClass: 3
Flags: W
LayerCount: 2
Fore
SplineSet
-239.396 1550 m 257
 -260.507 1492 l 257
 797.493 1492 l 257
 818.604 1550 l 257
 -239.396 1550 l 257
610.604 1550 m 257
 42.082 -12 l 257
 103.082 -12 l 257
 671.604 1550 l 257
 610.604 1550 l 257
44.4639 860 m 257
 22.9893 801 l 257
 358.989 801 l 257
 380.464 860 l 257
 44.4639 860 l 257
34.4639 860 m 257
 -92.1973 512 l 257
 -32.1973 512 l 257
 94.4639 860 l 257
 34.4639 860 l 257
-522.18 567 m 257
 -543.653 508 l 257
 -33.6533 508 l 257
 -12.1797 567 l 257
 -522.18 567 l 257
-463.944 727 m 257
 -543.29 509 l 257
 -483.29 509 l 257
 -403.944 727 l 257
 -463.944 727 l 257
372.744 -16 m 257
 350.542 -77 l 257
 694.542 -77 l 257
 716.744 -16 l 257
 372.744 -16 l 257
667.727 -71 m 257
 851.429 -418 l 257
 900.355 -366 l 257
 717.108 -15 l 257
 667.727 -71 l 257
EndSplineSet
Ligature2: "halnHalantFormsinDevanagari2lookup0 subtable" uni091C uni094D
EndChar

StartChar: uni091C_uni094D_uni091E.akhn
Encoding: 463 -1 463
GlifName: uni091C__uni094D__uni091E_.akhn
Width: 1024
VWidth: 0
GlyphClass: 3
Flags: W
LayerCount: 2
Fore
SplineSet
181.789 1550 m 257
 159.223 1488 l 257
 1196.22 1488 l 257
 1218.79 1550 l 257
 181.789 1550 l 257
1011.79 1550 m 257
 443.268 -12 l 257
 503.268 -12 l 257
 1071.79 1550 l 257
 1011.79 1550 l 257
340.648 860 m 257
 318.811 800 l 257
 758.811 800 l 257
 780.648 860 l 257
 340.648 860 l 257
294.648 860 m 257
 131.953 413 l 257
 190.953 413 l 257
 353.648 860 l 257
 294.648 860 l 257
-172.586 428 m 257
 -194.789 367 l 257
 174.211 367 l 257
 196.414 428 l 257
 -172.586 428 l 257
-194.424 368 m 257
 -153.068 75 l 257
 -64.0684 75 l 257
 -120.424 368 l 257
 -194.424 368 l 257
EndSplineSet
Ligature2: "akhnAkhandinDevanagari2lookup0 subtable" uni091C uni094D uni091E
EndChar

StartChar: uni091C_uni094D_uni091E.half
Encoding: 464 -1 464
GlifName: uni091C__uni094D__uni091E_.half
Width: 1024
VWidth: 0
GlyphClass: 3
Flags: W
LayerCount: 2
Fore
SplineSet
81.7891 1550 m 257
 59.2227 1488 l 257
 1096.22 1488 l 257
 1118.79 1550 l 257
 81.7891 1550 l 257
440.648 860 m 257
 418.811 800 l 257
 858.811 800 l 257
 880.648 860 l 257
 440.648 860 l 257
394.648 860 m 257
 231.953 413 l 257
 290.953 413 l 257
 453.648 860 l 257
 394.648 860 l 257
-72.5859 428 m 257
 -94.7891 367 l 257
 274.211 367 l 257
 296.414 428 l 257
 -72.5859 428 l 257
-94.4238 368 m 257
 -53.0684 75 l 257
 35.9316 75 l 257
 -20.4238 368 l 257
 -94.4238 368 l 257
EndSplineSet
Ligature2: "halfHalfFormsinDevanagari2lookup0 subtable" uni091C_uni094D_uni091E.akhn uni094D
EndChar

StartChar: uni091C_uni094D_uni091E_uni094D
Encoding: 465 -1 465
GlifName: uni091C__uni094D__uni091E__uni094D_
Width: 1024
VWidth: 0
GlyphClass: 2
Flags: W
LayerCount: 2
Fore
SplineSet
-134.798 1550 m 257
 -157.364 1488 l 257
 879.636 1488 l 257
 902.202 1550 l 257
 -134.798 1550 l 257
695.202 1550 m 257
 126.681 -12 l 257
 186.681 -12 l 257
 755.202 1550 l 257
 695.202 1550 l 257
24.0615 860 m 257
 2.22461 800 l 257
 442.225 800 l 257
 464.062 860 l 257
 24.0615 860 l 257
-21.9385 860 m 257
 -184.633 413 l 257
 -125.633 413 l 257
 37.0615 860 l 257
 -21.9385 860 l 257
-489.172 428 m 257
 -511.375 367 l 257
 -142.375 367 l 257
 -120.172 428 l 257
 -489.172 428 l 257
-511.011 368 m 257
 -469.654 75 l 257
 -380.654 75 l 257
 -437.011 368 l 257
 -511.011 368 l 257
842.71 -16 m 257
 820.508 -77 l 257
 1164.51 -77 l 257
 1186.71 -16 l 257
 842.71 -16 l 257
1137.69 -71 m 257
 1321.39 -418 l 257
 1370.32 -366 l 257
 1187.07 -15 l 257
 1137.69 -71 l 257
EndSplineSet
Ligature2: "halnHalantFormsinDevanagari2lookup0 subtable" uni091C_uni094D_uni091E.akhn uni094D
EndChar

StartChar: uni091D
Encoding: 466 2333 466
GlifName: uni091D_
Width: 1024
VWidth: 0
GlyphClass: 2
Flags: W
AnchorPoint: "abvm_deva" 762 1594 basechar 0
AnchorPoint: "blwm_deva" 519 -52 basechar 0
LayerCount: 2
Fore
SplineSet
230.557 1553 m 257
 209.082 1494 l 257
 1249.08 1494 l 257
 1270.56 1553 l 257
 230.557 1553 l 257
1066.56 1553 m 257
 499.49 -5 l 257
 561.49 -5 l 257
 1128.56 1553 l 257
 1066.56 1553 l 257
828.732 1537 m 257
 641.652 1023 l 257
 701.652 1023 l 257
 888.732 1537 l 257
 828.732 1537 l 257
201.854 1084 m 257
 179.652 1023 l 257
 701.652 1023 l 257
 723.854 1084 l 257
 201.854 1084 l 257
202.218 1085 m 257
 44.2549 651 l 257
 104.255 651 l 257
 262.218 1085 l 257
 202.218 1085 l 257
61.3613 698 m 257
 39.5234 638 l 257
 789.523 638 l 257
 811.361 698 l 257
 61.3613 698 l 257
492.814 691 m 257
 243.858 7 l 257
 303.858 7 l 257
 552.814 691 l 257
 492.814 691 l 257
-169.76 63 m 257
 -192.689 0 l 257
 301.311 0 l 257
 324.24 63 l 257
 -169.76 63 l 257
-169.76 63 m 257
 -246.557 -148 l 257
 -186.557 -148 l 257
 -109.76 63 l 257
 -169.76 63 l 257
EndSplineSet
EndChar

StartChar: uni091D_uni0930_uni094D.vatu
Encoding: 467 -1 467
GlifName: uni091D__uni0930_uni094D_.vatu
Width: 1024
VWidth: 0
GlyphClass: 3
Flags: W
LayerCount: 2
Fore
SplineSet
85.3105 0 m 257
 205.311 0 l 257
 626.564 215 l 257
 652.042 285 l 257
 85.3105 0 l 257
230.557 1553 m 257
 209.082 1494 l 257
 1249.08 1494 l 257
 1270.56 1553 l 257
 230.557 1553 l 257
1066.56 1553 m 257
 499.49 -5 l 257
 561.49 -5 l 257
 1128.56 1553 l 257
 1066.56 1553 l 257
828.732 1537 m 257
 641.652 1023 l 257
 701.652 1023 l 257
 888.732 1537 l 257
 828.732 1537 l 257
201.854 1084 m 257
 179.652 1023 l 257
 701.652 1023 l 257
 723.854 1084 l 257
 201.854 1084 l 257
202.218 1085 m 257
 44.2549 651 l 257
 104.255 651 l 257
 262.218 1085 l 257
 202.218 1085 l 257
61.3613 698 m 257
 39.5234 638 l 257
 789.523 638 l 257
 811.361 698 l 257
 61.3613 698 l 257
226.814 691 m 257
 -22.1416 7 l 257
 37.8584 7 l 257
 286.814 691 l 257
 226.814 691 l 257
-169.76 63 m 257
 -192.689 0 l 257
 35.3105 0 l 257
 58.2402 63 l 257
 -169.76 63 l 257
-169.76 63 m 257
 -246.557 -148 l 257
 -186.557 -148 l 257
 -109.76 63 l 257
 -169.76 63 l 257
EndSplineSet
Ligature2: "rkrfRakarVariantsinDevanagari2lookup0 subtable" uni091D uni094D uni0930
EndChar

StartChar: uni091D_uni094D.half
Encoding: 468 -1 468
GlifName: uni091D__uni094D_.half
Width: 1024
VWidth: 0
GlyphClass: 3
Flags: W
LayerCount: 2
Fore
SplineSet
230.557 1553 m 257
 209.082 1494 l 257
 1249.08 1494 l 257
 1270.56 1553 l 257
 230.557 1553 l 257
828.732 1537 m 257
 641.652 1023 l 257
 701.652 1023 l 257
 888.732 1537 l 257
 828.732 1537 l 257
201.854 1084 m 257
 179.652 1023 l 257
 701.652 1023 l 257
 723.854 1084 l 257
 201.854 1084 l 257
202.218 1085 m 257
 44.2549 651 l 257
 104.255 651 l 257
 262.218 1085 l 257
 202.218 1085 l 257
61.3613 698 m 257
 39.5234 638 l 257
 989.523 638 l 257
 1011.36 698 l 257
 61.3613 698 l 257
492.814 691 m 257
 243.858 7 l 257
 303.858 7 l 257
 552.814 691 l 257
 492.814 691 l 257
-169.76 63 m 257
 -192.689 0 l 257
 301.311 0 l 257
 324.24 63 l 257
 -169.76 63 l 257
-169.76 63 m 257
 -246.557 -148 l 257
 -186.557 -148 l 257
 -109.76 63 l 257
 -169.76 63 l 257
EndSplineSet
Ligature2: "halfHalfFormsinDevanagari2lookup0 subtable" uni091D uni094D
EndChar

StartChar: uni091D_uni094D.haln
Encoding: 469 -1 469
GlifName: uni091D__uni094D_.haln
Width: 1024
VWidth: 0
GlyphClass: 3
Flags: W
LayerCount: 2
Fore
SplineSet
-25.1328 1553 m 257
 -46.6074 1494 l 257
 993.393 1494 l 257
 1014.87 1553 l 257
 -25.1328 1553 l 257
810.867 1553 m 257
 243.802 -5 l 257
 305.802 -5 l 257
 872.867 1553 l 257
 810.867 1553 l 257
573.043 1537 m 257
 385.963 1023 l 257
 445.963 1023 l 257
 633.043 1537 l 257
 573.043 1537 l 257
-53.835 1084 m 257
 -76.0371 1023 l 257
 445.963 1023 l 257
 468.165 1084 l 257
 -53.835 1084 l 257
-53.4707 1085 m 257
 -211.434 651 l 257
 -151.434 651 l 257
 6.5293 1085 l 257
 -53.4707 1085 l 257
-194.327 698 m 257
 -216.166 638 l 257
 533.834 638 l 257
 555.673 698 l 257
 -194.327 698 l 257
237.125 691 m 257
 -11.8311 7 l 257
 48.1689 7 l 257
 297.125 691 l 257
 237.125 691 l 257
-425.448 63 m 257
 -448.379 0 l 257
 45.6211 0 l 257
 68.5518 63 l 257
 -425.448 63 l 257
-425.448 63 m 257
 -502.246 -148 l 257
 -442.246 -148 l 257
 -365.448 63 l 257
 -425.448 63 l 257
576.917 -16 m 257
 554.715 -77 l 257
 898.715 -77 l 257
 920.917 -16 l 257
 576.917 -16 l 257
871.898 -71 m 257
 1055.6 -418 l 257
 1104.53 -366 l 257
 921.28 -15 l 257
 871.898 -71 l 257
EndSplineSet
Ligature2: "halnHalantFormsinDevanagari2lookup0 subtable" uni091D uni094D
EndChar

StartChar: uni091E
Encoding: 470 2334 470
GlifName: uni091E_
Width: 1024
VWidth: 0
GlyphClass: 2
Flags: W
AnchorPoint: "abvm_deva" 834 1600 basechar 0
AnchorPoint: "blwm_deva" 546 -71 basechar 0
LayerCount: 2
Fore
SplineSet
197.307 1553 m 257
 175.469 1493 l 257
 1209.47 1493 l 257
 1231.31 1553 l 257
 197.307 1553 l 257
1071.85 1538 m 257
 509.148 -8 l 257
 569.148 -8 l 257
 1131.85 1538 l 257
 1071.85 1538 l 257
463.648 672 m 257
 441.811 612 l 257
 755.811 612 l 257
 777.648 672 l 257
 463.648 672 l 257
70.4727 960 m 257
 48.6348 900 l 257
 545.635 900 l 257
 567.473 960 l 257
 70.4727 960 l 257
537.473 960 m 257
 303.076 316 l 257
 363.076 316 l 257
 597.473 960 l 257
 537.473 960 l 257
-185.469 320 m 257
 -207.307 260 l 257
 342.693 260 l 257
 364.531 320 l 257
 -185.469 320 l 257
EndSplineSet
EndChar

StartChar: uni091E_uni0930_uni094D.vatu
Encoding: 471 -1 471
GlifName: uni091E__uni0930_uni094D_.vatu
Width: 1024
VWidth: 0
GlyphClass: 3
Flags: W
LayerCount: 2
Fore
SplineSet
-73.9395 0 m 257
 46.0605 0 l 257
 601.314 215 l 257
 626.793 285 l 257
 -73.9395 0 l 257
197.307 1553 m 257
 175.469 1493 l 257
 1209.47 1493 l 257
 1231.31 1553 l 257
 197.307 1553 l 257
1071.85 1538 m 257
 509.148 -8 l 257
 569.148 -8 l 257
 1131.85 1538 l 257
 1071.85 1538 l 257
463.648 672 m 257
 441.811 612 l 257
 755.811 612 l 257
 777.648 672 l 257
 463.648 672 l 257
70.4727 960 m 257
 48.6348 900 l 257
 545.635 900 l 257
 567.473 960 l 257
 70.4727 960 l 257
537.473 960 m 257
 303.076 316 l 257
 363.076 316 l 257
 597.473 960 l 257
 537.473 960 l 257
-185.469 320 m 257
 -207.307 260 l 257
 342.693 260 l 257
 364.531 320 l 257
 -185.469 320 l 257
EndSplineSet
Ligature2: "rkrfRakarVariantsinDevanagari2lookup0 subtable" uni091E uni094D uni0930
EndChar

StartChar: uni091E_uni094D.half
Encoding: 472 -1 472
GlifName: uni091E__uni094D_.half
Width: 1024
VWidth: 0
GlyphClass: 3
Flags: W
LayerCount: 2
Fore
SplineSet
197.307 1553 m 257
 175.469 1493 l 257
 1209.47 1493 l 257
 1231.31 1553 l 257
 197.307 1553 l 257
463.648 672 m 257
 441.811 612 l 257
 955.811 612 l 257
 977.648 672 l 257
 463.648 672 l 257
70.4727 960 m 257
 48.6348 900 l 257
 545.635 900 l 257
 567.473 960 l 257
 70.4727 960 l 257
537.473 960 m 257
 303.076 316 l 257
 363.076 316 l 257
 597.473 960 l 257
 537.473 960 l 257
-185.469 320 m 257
 -207.307 260 l 257
 342.693 260 l 257
 364.531 320 l 257
 -185.469 320 l 257
EndSplineSet
Ligature2: "halfHalfFormsinDevanagari2lookup0 subtable" uni091E uni094D
EndChar

StartChar: uni091E_uni094D.haln
Encoding: 473 -1 473
GlifName: uni091E__uni094D_.haln
Width: 1024
VWidth: 0
GlyphClass: 3
Flags: W
LayerCount: 2
Fore
SplineSet
-132.633 1553 m 257
 -154.471 1493 l 257
 879.529 1493 l 257
 901.367 1553 l 257
 -132.633 1553 l 257
741.908 1538 m 257
 179.21 -8 l 257
 239.21 -8 l 257
 801.908 1538 l 257
 741.908 1538 l 257
133.709 672 m 257
 111.871 612 l 257
 425.871 612 l 257
 447.709 672 l 257
 133.709 672 l 257
-259.466 960 m 257
 -281.305 900 l 257
 215.695 900 l 257
 237.534 960 l 257
 -259.466 960 l 257
207.534 960 m 257
 -26.8633 316 l 257
 33.1367 316 l 257
 267.534 960 l 257
 207.534 960 l 257
-515.408 320 m 257
 -537.245 260 l 257
 12.7549 260 l 257
 34.5918 320 l 257
 -515.408 320 l 257
466.418 -16 m 257
 444.216 -77 l 257
 788.216 -77 l 257
 810.418 -16 l 257
 466.418 -16 l 257
761.399 -71 m 257
 945.102 -418 l 257
 994.028 -366 l 257
 810.781 -15 l 257
 761.399 -71 l 257
EndSplineSet
Ligature2: "halnHalantFormsinDevanagari2lookup0 subtable" uni091E uni094D
EndChar

StartChar: uni091F
Encoding: 474 2335 474
GlifName: uni091F_
Width: 1024
VWidth: 0
GlyphClass: 2
Flags: W
AnchorPoint: "abvm_deva" 660 1582 basechar 0
AnchorPoint: "blwm_deva" 200 -65 basechar 0
LayerCount: 2
Fore
SplineSet
243.123 1553 m 257
 221.648 1494 l 257
 1235.65 1494 l 257
 1257.12 1553 l 257
 243.123 1553 l 257
933.023 1528 m 257
 736.479 988 l 257
 796.479 988 l 257
 993.023 1528 l 257
 933.023 1528 l 257
809.219 1023 m 257
 160.219 1023 l 257
 138.38 963 l 257
 787.38 963 l 257
 809.219 1023 l 257
139.219 1023 m 257
 -231.303 5 l 257
 -171.303 5 l 257
 199.219 1023 l 257
 139.219 1023 l 257
-211.285 60 m 257
 -233.123 0 l 257
 479.877 0 l 257
 501.715 60 l 257
 -211.285 60 l 257
EndSplineSet
EndChar

StartChar: uni091F_uni0930_uni094D.vatu
Encoding: 475 -1 475
GlifName: uni091F__uni0930_uni094D_.vatu
Width: 1024
VWidth: 0
GlyphClass: 3
Flags: W
LayerCount: 2
Fore
SplineSet
124.24 220 m 257
 183.855 -119 l 257
 251.855 -119 l 257
 192.627 287 l 257
 124.24 220 l 257
192.627 287 m 257
 -210.414 -106 l 257
 -142.414 -106 l 257
 201.152 228 l 257
 192.627 287 l 257
220.414 1553 m 257
 198.939 1494 l 257
 1212.94 1494 l 257
 1234.41 1553 l 257
 220.414 1553 l 257
910.314 1528 m 257
 713.77 988 l 257
 773.77 988 l 257
 970.314 1528 l 257
 910.314 1528 l 257
786.51 1023 m 257
 137.51 1023 l 257
 115.67 963 l 257
 764.67 963 l 257
 786.51 1023 l 257
116.51 1023 m 257
 -144.822 305 l 257
 -84.8223 305 l 257
 176.51 1023 l 257
 116.51 1023 l 257
-124.803 360 m 257
 -146.641 300 l 257
 566.359 300 l 257
 588.197 360 l 257
 -124.803 360 l 257
EndSplineSet
Ligature2: "rkrfRakarVariantsinDevanagari2lookup0 subtable" uni091F uni094D uni0930
EndChar

StartChar: uni091F_uni094D.haln
Encoding: 476 -1 476
GlifName: uni091F__uni094D_.haln
Width: 1024
VWidth: 0
GlyphClass: 3
Flags: W
LayerCount: 2
Fore
SplineSet
-39.501 1553 m 257
 -60.9746 1494 l 257
 953.025 1494 l 257
 974.499 1553 l 257
 -39.501 1553 l 257
650.4 1528 m 257
 453.856 988 l 257
 513.856 988 l 257
 710.4 1528 l 257
 650.4 1528 l 257
526.596 1023 m 257
 -122.404 1023 l 257
 -144.243 963 l 257
 504.757 963 l 257
 526.596 1023 l 257
-143.404 1023 m 257
 -513.926 5 l 257
 -453.926 5 l 257
 -83.4043 1023 l 257
 -143.404 1023 l 257
-493.908 60 m 257
 -515.746 0 l 257
 197.254 0 l 257
 219.092 60 l 257
 -493.908 60 l 257
549.55 -16 m 257
 527.348 -77 l 257
 871.348 -77 l 257
 893.55 -16 l 257
 549.55 -16 l 257
844.531 -71 m 257
 1028.23 -418 l 257
 1077.16 -366 l 257
 893.914 -15 l 257
 844.531 -71 l 257
EndSplineSet
Ligature2: "halnHalantFormsinDevanagari2lookup0 subtable" uni091F uni094D
EndChar

StartChar: uni0920
Encoding: 477 2336 477
GlifName: uni0920
Width: 1024
VWidth: 0
GlyphClass: 2
Flags: W
AnchorPoint: "abvm_deva" 552 1594 basechar 0
AnchorPoint: "blwm_deva" 220 -18 basechar 0
LayerCount: 2
Fore
SplineSet
245.577 1550 m 257
 223.738 1490 l 257
 1248.74 1490 l 257
 1270.58 1550 l 257
 245.577 1550 l 257
828.018 1510 m 257
 650.765 1023 l 257
 709.765 1023 l 257
 887.018 1510 l 257
 828.018 1510 l 257
137.765 1023 m 257
 115.926 963 l 257
 993.926 963 l 257
 1015.76 1023 l 257
 137.765 1023 l 257
124.765 1023 m 257
 -242.846 13 l 257
 -180.846 13 l 257
 186.765 1023 l 257
 124.765 1023 l 257
936.757 1001 m 257
 572.423 0 l 257
 643.423 0 l 257
 1007.76 1001 l 257
 936.757 1001 l 257
-225.467 58 m 257
 -246.577 0 l 257
 623.423 0 l 257
 644.533 58 l 257
 -225.467 58 l 257
EndSplineSet
EndChar

StartChar: uni0920_uni0930_uni094D.vatu
Encoding: 478 -1 478
GlifName: uni0920_uni0930_uni094D_.vatu
Width: 1024
VWidth: 0
GlyphClass: 3
Flags: W
LayerCount: 2
Fore
SplineSet
202.446 220 m 257
 262.061 -119 l 257
 330.061 -119 l 257
 270.832 287 l 257
 202.446 220 l 257
270.832 287 m 257
 -132.208 -106 l 257
 -64.208 -106 l 257
 279.358 228 l 257
 270.832 287 l 257
191.527 1550 m 257
 169.688 1490 l 257
 1194.69 1490 l 257
 1216.53 1550 l 257
 191.527 1550 l 257
686.968 1510 m 257
 509.715 1023 l 257
 568.715 1023 l 257
 745.968 1510 l 257
 686.968 1510 l 257
83.7148 1023 m 257
 61.876 963 l 257
 939.876 963 l 257
 961.715 1023 l 257
 83.7148 1023 l 257
70.7148 1023 m 257
 -187.704 313 l 257
 -125.704 313 l 257
 132.715 1023 l 257
 70.7148 1023 l 257
882.707 1001 m 257
 626.836 298 l 257
 697.836 298 l 257
 953.707 1001 l 257
 882.707 1001 l 257
-170.325 358 m 257
 -192.527 297 l 257
 677.473 297 l 257
 699.675 358 l 257
 -170.325 358 l 257
EndSplineSet
Ligature2: "rkrfRakarVariantsinDevanagari2lookup0 subtable" uni0920 uni094D uni0930
EndChar

StartChar: uni0920_uni094D.haln
Encoding: 479 -1 479
GlifName: uni0920_uni094D_.haln
Width: 1024
VWidth: 0
GlyphClass: 3
Flags: W
LayerCount: 2
Fore
SplineSet
-36.501 1550 m 257
 -58.3389 1490 l 257
 966.661 1490 l 257
 988.499 1550 l 257
 -36.501 1550 l 257
545.94 1510 m 257
 368.688 1023 l 257
 427.688 1023 l 257
 604.94 1510 l 257
 545.94 1510 l 257
-144.312 1023 m 257
 -166.151 963 l 257
 711.849 963 l 257
 733.688 1023 l 257
 -144.312 1023 l 257
-157.312 1023 m 257
 -524.923 13 l 257
 -462.923 13 l 257
 -95.3125 1023 l 257
 -157.312 1023 l 257
654.68 1001 m 257
 290.346 0 l 257
 361.346 0 l 257
 725.68 1001 l 257
 654.68 1001 l 257
-507.544 58 m 257
 -528.654 0 l 257
 341.346 0 l 257
 362.456 58 l 257
 -507.544 58 l 257
558.642 -16 m 257
 536.439 -77 l 257
 880.439 -77 l 257
 902.642 -16 l 257
 558.642 -16 l 257
853.623 -71 m 257
 1037.33 -418 l 257
 1086.25 -366 l 257
 903.006 -15 l 257
 853.623 -71 l 257
EndSplineSet
Ligature2: "halnHalantFormsinDevanagari2lookup0 subtable" uni0920 uni094D
EndChar

StartChar: uni0921
Encoding: 480 2337 480
GlifName: uni0921
Width: 1024
VWidth: 0
GlyphClass: 2
Flags: W
AnchorPoint: "abvm_deva" 864 1606 basechar 0
AnchorPoint: "blwm_deva" 214 -38 basechar 0
LayerCount: 2
Fore
SplineSet
249.713 1548 m 257
 227.875 1488 l 257
 1253.88 1488 l 257
 1275.71 1548 l 257
 249.713 1548 l 257
467.379 1091 m 257
 281.025 579 l 257
 341.025 579 l 257
 527.379 1091 l 257
 467.379 1091 l 257
287.577 597 m 257
 266.104 538 l 257
 809.104 538 l 257
 830.577 597 l 257
 287.577 597 l 257
754.927 554 m 257
 555.107 5 l 257
 615.107 5 l 257
 814.927 554 l 257
 754.927 554 l 257
-229.875 60 m 257
 -251.713 0 l 257
 613.287 0 l 257
 635.125 60 l 257
 -229.875 60 l 257
-131.238 331 m 257
 -249.893 5 l 257
 -188.893 5 l 257
 -70.2383 331 l 257
 -131.238 331 l 257
483.029 1134 m 257
 461.191 1074 l 257
 1004.19 1074 l 257
 1026.03 1134 l 257
 483.029 1134 l 257
1098.33 1503 m 257
 950.927 1098 l 257
 1012.93 1098 l 257
 1160.33 1503 l 257
 1098.33 1503 l 257
EndSplineSet
EndChar

StartChar: uni0921_uni0930_uni094D.vatu
Encoding: 481 -1 481
GlifName: uni0921_uni0930_uni094D_.vatu
Width: 1024
VWidth: 0
GlyphClass: 3
Flags: W
LayerCount: 2
Fore
SplineSet
158.75 136 m 257
 233.287 -162 l 257
 308.566 -142 l 257
 222.77 191 l 257
 158.75 136 l 257
222.77 191 m 257
 -154.43 -131 l 257
 -94.0723 -152 l 257
 235.299 143 l 257
 222.77 191 l 257
209.676 1548 m 257
 187.838 1488 l 257
 1213.84 1488 l 257
 1235.68 1548 l 257
 209.676 1548 l 257
427.342 1091 m 257
 321.062 799 l 257
 381.062 799 l 257
 487.342 1091 l 257
 427.342 1091 l 257
327.613 817 m 257
 306.141 758 l 257
 849.141 758 l 257
 870.613 817 l 257
 327.613 817 l 257
794.963 774 m 257
 595.145 225 l 257
 655.145 225 l 257
 854.963 774 l 257
 794.963 774 l 257
-189.838 280 m 257
 -211.676 220 l 257
 653.324 220 l 257
 675.162 280 l 257
 -189.838 280 l 257
-91.2012 551 m 257
 -209.855 225 l 257
 -148.855 225 l 257
 -30.2012 551 l 257
 -91.2012 551 l 257
442.992 1134 m 257
 421.154 1074 l 257
 964.154 1074 l 257
 985.992 1134 l 257
 442.992 1134 l 257
1058.3 1503 m 257
 910.891 1098 l 257
 972.891 1098 l 257
 1120.3 1503 l 257
 1058.3 1503 l 257
EndSplineSet
Ligature2: "rkrfRakarVariantsinDevanagari2lookup0 subtable" uni0921 uni094D uni0930
EndChar

StartChar: uni0921_uni094D.haln
Encoding: 482 -1 482
GlifName: uni0921_uni094D_.haln
Width: 1024
VWidth: 0
GlyphClass: 3
Flags: W
LayerCount: 2
Fore
SplineSet
-32 1548 m 257
 -53.8389 1488 l 257
 972.161 1488 l 257
 994 1548 l 257
 -32 1548 l 257
185.665 1091 m 257
 -0.6875 579 l 257
 59.3125 579 l 257
 245.665 1091 l 257
 185.665 1091 l 257
5.86426 597 m 257
 -15.6104 538 l 257
 527.39 538 l 257
 548.864 597 l 257
 5.86426 597 l 257
473.214 554 m 257
 273.394 5 l 257
 333.394 5 l 257
 533.214 554 l 257
 473.214 554 l 257
-511.588 60 m 257
 -533.426 0 l 257
 331.574 0 l 257
 353.412 60 l 257
 -511.588 60 l 257
-412.952 331 m 257
 -531.606 5 l 257
 -470.606 5 l 257
 -351.952 331 l 257
 -412.952 331 l 257
201.316 1134 m 257
 179.478 1074 l 257
 722.478 1074 l 257
 744.316 1134 l 257
 201.316 1134 l 257
816.621 1503 m 257
 669.213 1098 l 257
 731.213 1098 l 257
 878.621 1503 l 257
 816.621 1503 l 257
563.869 -16 m 257
 541.667 -77 l 257
 885.667 -77 l 257
 907.869 -16 l 257
 563.869 -16 l 257
858.852 -71 m 257
 1042.55 -418 l 257
 1091.48 -366 l 257
 908.233 -15 l 257
 858.852 -71 l 257
EndSplineSet
Ligature2: "halnHalantFormsinDevanagari2lookup0 subtable" uni0921 uni094D
EndChar

StartChar: uni0922
Encoding: 483 2338 483
GlifName: uni0922
Width: 1024
VWidth: 0
GlyphClass: 2
Flags: W
AnchorPoint: "abvm_deva" 696 1588 basechar 0
LayerCount: 2
Fore
SplineSet
232.577 1550 m 257
 210.011 1488 l 257
 1234.01 1488 l 257
 1256.58 1550 l 257
 232.577 1550 l 257
911.569 1528 m 257
 715.025 988 l 257
 797.025 988 l 257
 993.569 1528 l 257
 911.569 1528 l 257
809.765 1023 m 257
 160.765 1023 l 257
 138.562 962 l 257
 787.562 962 l 257
 809.765 1023 l 257
139.765 1023 m 257
 -230.757 5 l 257
 -170.757 5 l 257
 199.765 1023 l 257
 139.765 1023 l 257
-210.739 60 m 257
 -232.577 0 l 257
 480.423 0 l 257
 502.261 60 l 257
 -210.739 60 l 257
620.423 544 m 257
 422.423 0 l 257
 482.423 0 l 257
 680.423 544 l 257
 620.423 544 l 257
551.515 547 m 257
 529.677 487 l 257
 657.677 487 l 257
 679.515 547 l 257
 551.515 547 l 257
EndSplineSet
EndChar

StartChar: uni0922_uni0930_uni094D.vatu
Encoding: 484 -1 484
GlifName: uni0922_uni0930_uni094D_.vatu
Width: 1024
VWidth: 0
GlyphClass: 2
Flags: W
LayerCount: 2
Fore
SplineSet
147.287 220 m 257
 206.9 -119 l 257
 274.9 -119 l 257
 215.672 287 l 257
 147.287 220 l 257
215.672 287 m 257
 -187.367 -106 l 257
 -119.367 -106 l 257
 224.199 228 l 257
 215.672 287 l 257
187.367 1550 m 257
 164.801 1488 l 257
 1188.8 1488 l 257
 1211.37 1550 l 257
 187.367 1550 l 257
866.359 1528 m 257
 669.816 988 l 257
 751.816 988 l 257
 948.359 1528 l 257
 866.359 1528 l 257
764.555 1023 m 257
 115.555 1023 l 257
 93.3535 962 l 257
 742.354 962 l 257
 764.555 1023 l 257
94.5547 1023 m 257
 -166.775 305 l 257
 -106.775 305 l 257
 154.555 1023 l 257
 94.5547 1023 l 257
-146.758 360 m 257
 -168.596 300 l 257
 544.404 300 l 257
 566.242 360 l 257
 -146.758 360 l 257
684.404 844 m 257
 485.676 298 l 257
 545.676 298 l 257
 744.404 844 l 257
 684.404 844 l 257
615.496 847 m 257
 593.658 787 l 257
 721.658 787 l 257
 743.496 847 l 257
 615.496 847 l 257
EndSplineSet
Ligature2: "rkrfRakarVariantsinDevanagari2lookup0 subtable" uni0922 uni094D uni0930
EndChar

StartChar: uni0922_uni094D.haln
Encoding: 485 -1 485
GlifName: uni0922_uni094D_.haln
Width: 1024
VWidth: 0
GlyphClass: 3
Flags: W
LayerCount: 2
Fore
SplineSet
-49.501 1550 m 257
 -72.0664 1488 l 257
 951.934 1488 l 257
 974.499 1550 l 257
 -49.501 1550 l 257
629.492 1528 m 257
 432.948 988 l 257
 514.948 988 l 257
 711.492 1528 l 257
 629.492 1528 l 257
527.688 1023 m 257
 -121.312 1023 l 257
 -143.515 962 l 257
 505.485 962 l 257
 527.688 1023 l 257
-142.312 1023 m 257
 -512.834 5 l 257
 -452.834 5 l 257
 -82.3125 1023 l 257
 -142.312 1023 l 257
-492.816 60 m 257
 -514.654 0 l 257
 198.346 0 l 257
 220.184 60 l 257
 -492.816 60 l 257
338.346 544 m 257
 140.346 0 l 257
 200.346 0 l 257
 398.346 544 l 257
 338.346 544 l 257
269.438 547 m 257
 247.6 487 l 257
 375.6 487 l 257
 397.438 547 l 257
 269.438 547 l 257
545.642 -16 m 257
 523.439 -77 l 257
 867.439 -77 l 257
 889.642 -16 l 257
 545.642 -16 l 257
840.623 -71 m 257
 1024.33 -418 l 257
 1073.25 -366 l 257
 890.006 -15 l 257
 840.623 -71 l 257
EndSplineSet
Ligature2: "halnHalantFormsinDevanagari2lookup0 subtable" uni0922 uni094D
EndChar

StartChar: uni0923
Encoding: 486 2339 486
GlifName: uni0923
Width: 1024
VWidth: 0
GlyphClass: 2
Flags: W
AnchorPoint: "abvm_deva" 846 1588 basechar 0
LayerCount: 2
Fore
SplineSet
76.9395 1550 m 257
 54.373 1488 l 257
 1081.37 1488 l 257
 1103.94 1550 l 257
 76.9395 1550 l 257
928.659 1530 m 257
 371.785 0 l 257
 431.785 0 l 257
 988.659 1530 l 257
 928.659 1530 l 257
181.392 1543 m 257
 -69.0205 855 l 257
 -9.02051 855 l 257
 241.392 1543 l 257
 181.392 1543 l 257
671.932 1528 m 257
 422.976 844 l 257
 482.976 844 l 257
 731.932 1528 l 257
 671.932 1528 l 257
-58.1016 885 m 257
 -79.9395 825 l 257
 476.061 825 l 257
 497.898 885 l 257
 -58.1016 885 l 257
EndSplineSet
EndChar

StartChar: uni0923_uni0930_uni094D.vatu
Encoding: 487 -1 487
GlifName: uni0923_uni0930_uni094D_.vatu
Width: 1024
VWidth: 0
GlyphClass: 2
Flags: W
LayerCount: 2
Fore
SplineSet
-145.077 0 m 257
 -25.0771 0 l 257
 530.177 215 l 257
 555.654 285 l 257
 -145.077 0 l 257
142.077 1550 m 257
 119.511 1488 l 257
 1146.51 1488 l 257
 1169.08 1550 l 257
 142.077 1550 l 257
993.797 1530 m 257
 436.923 0 l 257
 496.923 0 l 257
 1053.8 1530 l 257
 993.797 1530 l 257
246.529 1543 m 257
 -3.88281 855 l 257
 56.1172 855 l 257
 306.529 1543 l 257
 246.529 1543 l 257
737.069 1528 m 257
 488.113 844 l 257
 548.113 844 l 257
 797.069 1528 l 257
 737.069 1528 l 257
7.03613 885 m 257
 -14.8018 825 l 257
 541.198 825 l 257
 563.036 885 l 257
 7.03613 885 l 257
EndSplineSet
Ligature2: "rkrfRakarVariantsinDevanagari2lookup0 subtable" uni0923 uni094D uni0930
EndChar

StartChar: uni0923_uni094D.half
Encoding: 488 -1 488
GlifName: uni0923_uni094D_.half
Width: 1024
VWidth: 0
GlyphClass: 3
Flags: W
LayerCount: 2
Fore
SplineSet
9.7832 1550 m 257
 -12.7832 1488 l 257
 1014.22 1488 l 257
 1036.78 1550 l 257
 9.7832 1550 l 257
314.235 1543 m 257
 63.8232 855 l 257
 123.823 855 l 257
 374.235 1543 l 257
 314.235 1543 l 257
804.775 1528 m 257
 555.819 844 l 257
 615.819 844 l 257
 864.775 1528 l 257
 804.775 1528 l 257
74.7422 885 m 257
 52.9043 825 l 257
 608.904 825 l 257
 630.742 885 l 257
 74.7422 885 l 257
EndSplineSet
Ligature2: "halfHalfFormsinDevanagari2lookup0 subtable" uni0923 uni094D
EndChar

StartChar: uni0923_uni094D.haln
Encoding: 489 -1 489
GlifName: uni0923_uni094D_.haln
Width: 1024
VWidth: 0
GlyphClass: 3
Flags: W
LayerCount: 2
Fore
SplineSet
-355.276 1550 m 257
 -377.843 1488 l 257
 649.157 1488 l 257
 671.724 1550 l 257
 -355.276 1550 l 257
496.444 1530 m 257
 -60.4297 0 l 257
 -0.429688 0 l 257
 556.444 1530 l 257
 496.444 1530 l 257
-250.824 1543 m 257
 -501.235 855 l 257
 -441.235 855 l 257
 -190.824 1543 l 257
 -250.824 1543 l 257
239.717 1528 m 257
 -9.23926 844 l 257
 50.7607 844 l 257
 299.717 1528 l 257
 239.717 1528 l 257
-490.316 885 m 257
 -512.154 825 l 257
 43.8457 825 l 257
 65.6836 885 l 257
 -490.316 885 l 257
239.866 -16 m 257
 217.664 -77 l 257
 561.664 -77 l 257
 583.866 -16 l 257
 239.866 -16 l 257
534.848 -71 m 257
 718.55 -418 l 257
 767.477 -366 l 257
 584.23 -15 l 257
 534.848 -71 l 257
EndSplineSet
Ligature2: "halnHalantFormsinDevanagari2lookup0 subtable" uni0923 uni094D
EndChar

StartChar: uni0924
Encoding: 490 2340 490
GlifName: uni0924
Width: 1024
VWidth: 0
GlyphClass: 2
Flags: W
AnchorPoint: "abvm_deva" 744 1582 basechar 0
LayerCount: 2
Fore
SplineSet
197.392 1553 m 257
 177.009 1497 l 257
 1227.01 1497 l 257
 1247.39 1553 l 257
 197.392 1553 l 257
990.476 1534 m 257
 432.146 0 l 257
 491.146 0 l 257
 1049.48 1534 l 257
 990.476 1534 l 257
732.954 788 m 257
 53.9541 788 l 257
 32.1162 728 l 257
 711.116 728 l 257
 732.954 788 l 257
45.9463 766 m 257
 -223.392 26 l 257
 -163.392 26 l 257
 105.946 766 l 257
 45.9463 766 l 257
EndSplineSet
EndChar

StartChar: uni0924_uni0930_uni094D.vatu
Encoding: 491 -1 491
GlifName: uni0924_uni0930_uni094D_.vatu
Width: 1024
VWidth: 0
GlyphClass: 3
Flags: W
LayerCount: 2
Fore
SplineSet
-163.83 117 m 257
 -43.8301 117 l 257
 552.916 446 l 257
 578.393 516 l 257
 -163.83 117 l 257
137.83 1553 m 257
 117.447 1497 l 257
 1167.45 1497 l 257
 1187.83 1553 l 257
 137.83 1553 l 257
930.914 1534 m 257
 372.584 0 l 257
 431.584 0 l 257
 989.914 1534 l 257
 930.914 1534 l 257
598.779 583 m 257
 -5.60742 788 l 257
 -27.4453 728 l 257
 576.941 523 l 257
 598.779 583 l 257
EndSplineSet
Ligature2: "rkrfRakarVariantsinDevanagari2lookup0 subtable" uni0924 uni094D uni0930
EndChar

StartChar: uni0924_uni094D.half
Encoding: 492 -1 492
GlifName: uni0924_uni094D_.half
Width: 1024
VWidth: 0
GlyphClass: 3
Flags: W
LayerCount: 2
Fore
SplineSet
47.3916 1553 m 257
 27.0088 1497 l 257
 1077.01 1497 l 257
 1097.39 1553 l 257
 47.3916 1553 l 257
882.954 788 m 257
 203.954 788 l 257
 182.116 728 l 257
 861.116 728 l 257
 882.954 788 l 257
195.946 766 m 257
 -73.3916 26 l 257
 -13.3916 26 l 257
 255.946 766 l 257
 195.946 766 l 257
EndSplineSet
Ligature2: "halfHalfFormsinDevanagari2lookup0 subtable" uni0924 uni094D
EndChar

StartChar: uni0924_uni094D.haln
Encoding: 493 -1 493
GlifName: uni0924_uni094D_.haln
Width: 1024
VWidth: 0
GlyphClass: 3
Flags: W
LayerCount: 2
Fore
SplineSet
-89.9629 1553 m 257
 -110.346 1497 l 257
 939.654 1497 l 257
 960.037 1553 l 257
 -89.9629 1553 l 257
703.121 1534 m 257
 144.792 0 l 257
 203.792 0 l 257
 762.121 1534 l 257
 703.121 1534 l 257
445.6 788 m 257
 -233.4 788 l 257
 -255.238 728 l 257
 423.762 728 l 257
 445.6 788 l 257
-241.407 766 m 257
 -510.745 26 l 257
 -450.745 26 l 257
 -181.407 766 l 257
 -241.407 766 l 257
517.087 -16 m 257
 494.885 -77 l 257
 838.885 -77 l 257
 861.087 -16 l 257
 517.087 -16 l 257
812.068 -71 m 257
 995.771 -418 l 257
 1044.7 -366 l 257
 861.45 -15 l 257
 812.068 -71 l 257
EndSplineSet
Ligature2: "halnHalantFormsinDevanagari2lookup0 subtable" uni0924 uni094D
EndChar

StartChar: uni0924_uni094D_uni0924.pres
Encoding: 494 -1 494
GlifName: uni0924_uni094D__uni0924.pres
Width: 1024
VWidth: 0
GlyphClass: 3
Flags: W
LayerCount: 2
Fore
SplineSet
132.535 1553 m 257
 110.695 1493 l 257
 1160.7 1493 l 257
 1182.54 1553 l 257
 132.535 1553 l 257
916.248 1511 m 257
 366.289 0 l 257
 426.289 0 l 257
 976.248 1511 l 257
 916.248 1511 l 257
668.098 788 m 257
 -10.9023 788 l 257
 -32.7402 728 l 257
 646.26 728 l 257
 668.098 788 l 257
-32.7402 728 m 257
 -158.535 -16 l 257
 -83.7031 22 l 257
 41.0898 766 l 257
 -32.7402 728 l 257
773.09 1038 m 257
 51.0898 1038 l 257
 29.252 978 l 257
 751.252 978 l 257
 773.09 1038 l 257
EndSplineSet
Ligature2: "presPreBaseSubstitutionsinDevanagari2lookup0 subtable" uni0924_uni094D.half uni0924
EndChar

StartChar: uni0925
Encoding: 495 2341 495
GlifName: uni0925
Width: 1024
VWidth: 0
GlyphClass: 2
Flags: W
AnchorPoint: "abvm_deva" 768 1600 basechar 0
LayerCount: 2
Fore
SplineSet
882.055 1550 m 257
 860.945 1492 l 257
 1244.95 1492 l 257
 1266.05 1550 l 257
 882.055 1550 l 257
1154.78 1541 m 257
 587.35 -18 l 257
 646.35 -18 l 257
 1213.78 1541 l 257
 1154.78 1541 l 257
270.055 1550 m 257
 248.217 1490 l 257
 693.217 1490 l 257
 715.055 1550 l 257
 270.055 1550 l 257
636.947 1503 m 257
 448.775 986 l 257
 508.775 986 l 257
 696.947 1503 l 257
 636.947 1503 l 257
521.422 1018 m 257
 80.4219 1018 l 257
 58.2207 957 l 257
 499.221 957 l 257
 521.422 1018 l 257
67.6836 983 m 257
 -242.055 132 l 257
 -183.055 132 l 257
 126.684 983 l 257
 67.6836 983 l 257
-220.58 191 m 257
 -242.055 132 l 257
 700.945 132 l 257
 722.42 191 l 257
 -220.58 191 l 257
EndSplineSet
EndChar

StartChar: uni0925_uni0930_uni094D.vatu
Encoding: 496 -1 496
GlifName: uni0925_uni0930_uni094D_.vatu
Width: 1024
VWidth: 0
GlyphClass: 3
Flags: W
LayerCount: 2
Fore
SplineSet
-45.6953 0 m 257
 74.3047 0 l 257
 628.104 211 l 257
 653.58 281 l 257
 -45.6953 0 l 257
827.459 1550 m 257
 806.35 1492 l 257
 1190.35 1492 l 257
 1211.46 1550 l 257
 827.459 1550 l 257
1100.18 1541 m 257
 532.754 -18 l 257
 591.754 -18 l 257
 1159.18 1541 l 257
 1100.18 1541 l 257
215.459 1550 m 257
 193.621 1490 l 257
 638.621 1490 l 257
 660.459 1550 l 257
 215.459 1550 l 257
582.352 1503 m 257
 394.18 986 l 257
 454.18 986 l 257
 642.352 1503 l 257
 582.352 1503 l 257
466.826 1018 m 257
 25.8262 1018 l 257
 3.625 957 l 257
 444.625 957 l 257
 466.826 1018 l 257
13.0879 983 m 257
 -187.459 432 l 257
 -128.459 432 l 257
 72.0879 983 l 257
 13.0879 983 l 257
-165.986 491 m 257
 -187.459 432 l 257
 755.541 432 l 257
 777.014 491 l 257
 -165.986 491 l 257
EndSplineSet
Ligature2: "rkrfRakarVariantsinDevanagari2lookup0 subtable" uni0925 uni094D uni0930
EndChar

StartChar: uni0925_uni094D.half
Encoding: 497 -1 497
GlifName: uni0925_uni094D_.half
Width: 1024
VWidth: 0
GlyphClass: 3
Flags: W
LayerCount: 2
Fore
SplineSet
890.145 1545 m 257
 871.219 1493 l 257
 1203.22 1493 l 257
 1222.14 1545 l 257
 890.145 1545 l 257
313.965 1550 m 257
 292.127 1490 l 257
 737.127 1490 l 257
 758.965 1550 l 257
 313.965 1550 l 257
680.857 1503 m 257
 492.686 986 l 257
 552.686 986 l 257
 740.857 1503 l 257
 680.857 1503 l 257
565.332 1018 m 257
 124.332 1018 l 257
 102.131 957 l 257
 543.131 957 l 257
 565.332 1018 l 257
111.594 983 m 257
 -198.145 132 l 257
 -139.145 132 l 257
 170.594 983 l 257
 111.594 983 l 257
-176.67 191 m 257
 -198.145 132 l 257
 744.855 132 l 257
 766.33 191 l 257
 -176.67 191 l 257
EndSplineSet
Ligature2: "halfHalfFormsinDevanagari2lookup0 subtable" uni0925 uni094D
EndChar

StartChar: uni0925_uni094D.haln
Encoding: 498 -1 498
GlifName: uni0925_uni094D_.haln
Width: 1024
VWidth: 0
GlyphClass: 3
Flags: W
LayerCount: 2
Fore
SplineSet
575.955 1550 m 257
 554.846 1492 l 257
 938.846 1492 l 257
 959.955 1550 l 257
 575.955 1550 l 257
848.68 1541 m 257
 281.251 -18 l 257
 340.251 -18 l 257
 907.68 1541 l 257
 848.68 1541 l 257
-36.0449 1550 m 257
 -57.8828 1490 l 257
 387.117 1490 l 257
 408.955 1550 l 257
 -36.0449 1550 l 257
330.849 1503 m 257
 142.676 986 l 257
 202.676 986 l 257
 390.849 1503 l 257
 330.849 1503 l 257
215.323 1018 m 257
 -225.677 1018 l 257
 -247.878 957 l 257
 193.122 957 l 257
 215.323 1018 l 257
-238.416 983 m 257
 -548.153 132 l 257
 -489.153 132 l 257
 -179.416 983 l 257
 -238.416 983 l 257
-526.68 191 m 257
 -548.153 132 l 257
 394.847 132 l 257
 416.32 191 l 257
 -526.68 191 l 257
545.098 -16 m 257
 522.896 -77 l 257
 866.896 -77 l 257
 889.098 -16 l 257
 545.098 -16 l 257
840.079 -71 m 257
 1023.78 -418 l 257
 1072.71 -366 l 257
 889.462 -15 l 257
 840.079 -71 l 257
EndSplineSet
Ligature2: "halnHalantFormsinDevanagari2lookup0 subtable" uni0925 uni094D
EndChar

StartChar: uni0926
Encoding: 499 2342 499
GlifName: uni0926
Width: 1024
VWidth: 0
GlyphClass: 2
Flags: W
AnchorPoint: "abvm_deva" 582 1594 basechar 0
LayerCount: 2
Fore
SplineSet
203.758 1553 m 257
 181.918 1493 l 257
 1201.92 1493 l 257
 1223.76 1553 l 257
 203.758 1553 l 257
811.926 1515 m 257
 612.107 966 l 257
 672.107 966 l 257
 871.926 1515 l 257
 811.926 1515 l 257
690.854 1023 m 257
 68.8535 1023 l 257
 47.0137 963 l 257
 669.014 963 l 257
 690.854 1023 l 257
64.4844 1011 m 257
 -187.746 318 l 257
 -127.746 318 l 257
 124.484 1011 l 257
 64.4844 1011 l 257
-177.555 346 m 257
 -199.758 285 l 257
 552.242 285 l 257
 574.445 346 l 257
 -177.555 346 l 257
506.801 325 m 257
 385.963 -7 l 257
 445.963 -7 l 257
 566.801 325 l 257
 506.801 325 l 257
EndSplineSet
EndChar

StartChar: uni0926_uni0930_uni094D.vatu
Encoding: 500 -1 500
GlifName: uni0926_uni0930_uni094D_.vatu
Width: 1024
VWidth: 0
GlyphClass: 3
Flags: W
LayerCount: 2
Fore
SplineSet
-176.623 0 m 257
 -56.623 0 l 257
 498.631 215 l 257
 524.108 285 l 257
 -176.623 0 l 257
180.623 1553 m 257
 158.784 1493 l 257
 1178.78 1493 l 257
 1200.62 1553 l 257
 180.623 1553 l 257
788.792 1515 m 257
 661.767 1166 l 257
 721.767 1166 l 257
 848.792 1515 l 257
 788.792 1515 l 257
740.513 1223 m 257
 118.513 1223 l 257
 96.6748 1163 l 257
 718.675 1163 l 257
 740.513 1223 l 257
114.145 1211 m 257
 -138.087 518 l 257
 -78.0869 518 l 257
 174.145 1211 l 257
 114.145 1211 l 257
-127.896 546 m 257
 -150.098 485 l 257
 601.902 485 l 257
 624.104 546 l 257
 -127.896 546 l 257
556.461 525 m 257
 362.829 -7 l 257
 422.829 -7 l 257
 616.461 525 l 257
 556.461 525 l 257
EndSplineSet
Ligature2: "rkrfRakarVariantsinDevanagari2lookup0 subtable" uni0926 uni094D uni0930
EndChar

StartChar: uni0926_uni094D.half
Encoding: 501 -1 501
GlifName: uni0926_uni094D_.half
Width: 1024
VWidth: 0
GlyphClass: 3
Flags: W
LayerCount: 2
Fore
SplineSet
167.36 1553 m 257
 145.521 1493 l 257
 1165.52 1493 l 257
 1187.36 1553 l 257
 167.36 1553 l 257
775.529 1515 m 257
 575.71 966 l 257
 635.71 966 l 257
 835.529 1515 l 257
 775.529 1515 l 257
654.456 1023 m 257
 32.4561 1023 l 257
 10.6172 963 l 257
 632.617 963 l 257
 654.456 1023 l 257
28.0879 1011 m 257
 -151.35 518 l 257
 -91.3496 518 l 257
 88.0879 1011 l 257
 28.0879 1011 l 257
-141.158 546 m 257
 -163.36 485 l 257
 588.64 485 l 257
 610.842 546 l 257
 -141.158 546 l 257
543.198 525 m 257
 422.36 193 l 257
 482.36 193 l 257
 603.198 525 l 257
 543.198 525 l 257
37.085 184 m 257
 14.8828 123 l 257
 358.883 123 l 257
 381.085 184 l 257
 37.085 184 l 257
332.066 129 m 257
 515.769 -218 l 257
 564.695 -166 l 257
 381.449 185 l 257
 332.066 129 l 257
EndSplineSet
Ligature2: "halfHalfFormsinDevanagari2lookup0 subtable" uni0926 uni094D
EndChar

StartChar: uni0926_uni094D.haln
Encoding: 502 -1 502
GlifName: uni0926_uni094D_.haln
Width: 1024
VWidth: 0
GlyphClass: 3
Flags: W
LayerCount: 2
Fore
SplineSet
-130.731 1553 m 257
 -152.571 1493 l 257
 867.429 1493 l 257
 889.269 1553 l 257
 -130.731 1553 l 257
477.437 1515 m 257
 277.618 966 l 257
 337.618 966 l 257
 537.437 1515 l 257
 477.437 1515 l 257
356.364 1023 m 257
 -265.636 1023 l 257
 -287.476 963 l 257
 334.524 963 l 257
 356.364 1023 l 257
-270.005 1011 m 257
 -522.234 318 l 257
 -462.234 318 l 257
 -210.005 1011 l 257
 -270.005 1011 l 257
-512.044 346 m 257
 -534.247 285 l 257
 217.753 285 l 257
 239.956 346 l 257
 -512.044 346 l 257
172.312 325 m 257
 51.4736 -7 l 257
 111.474 -7 l 257
 232.312 325 l 257
 172.312 325 l 257
463.317 -16 m 257
 441.115 -77 l 257
 785.115 -77 l 257
 807.317 -16 l 257
 463.317 -16 l 257
758.299 -71 m 257
 942.002 -418 l 257
 990.928 -366 l 257
 807.682 -15 l 257
 758.299 -71 l 257
EndSplineSet
Ligature2: "halnHalantFormsinDevanagari2lookup0 subtable" uni0926 uni094D
EndChar

StartChar: uni0926_uni094D_uni0926.pres
Encoding: 503 -1 503
GlifName: uni0926_uni094D__uni0926.pres
Width: 1024
VWidth: 0
GlyphClass: 3
Flags: W
LayerCount: 2
Fore
SplineSet
165.508 1550 m 257
 143.305 1489 l 257
 1158.3 1489 l 257
 1180.51 1550 l 257
 165.508 1550 l 257
768.584 1509 m 257
 643.014 1164 l 257
 702.014 1164 l 257
 827.584 1509 l 257
 768.584 1509 l 257
713.025 1197 m 257
 227.025 1197 l 257
 205.188 1137 l 257
 691.188 1137 l 257
 713.025 1197 l 257
219.291 1173 m 257
 60.2344 736 l 257
 119.234 736 l 257
 278.291 1173 l 257
 219.291 1173 l 257
-135.033 205 m 257
 -156.508 146 l 257
 456.492 146 l 257
 477.967 205 l 257
 -135.033 205 l 257
496.125 406 m 257
 345.805 -7 l 257
 404.805 -7 l 257
 555.125 406 l 257
 496.125 406 l 257
549.967 749 m 257
 113.967 749 l 257
 91.7637 688 l 257
 527.764 688 l 257
 549.967 749 l 257
47.4961 701 m 257
 -142.859 178 l 257
 -83.8594 178 l 257
 106.496 701 l 257
 47.4961 701 l 257
EndSplineSet
Ligature2: "presPreBaseSubstitutionsinDevanagari2lookup0 subtable" uni0926_uni094D.half uni0926
EndChar

StartChar: uni0926_uni094D_uni0927.pres
Encoding: 504 -1 504
GlifName: uni0926_uni094D__uni0927.pres
Width: 1024
VWidth: 0
GlyphClass: 3
Flags: W
LayerCount: 2
Fore
SplineSet
240.281 1550 m 257
 208.251 1462 l 257
 1236.25 1462 l 257
 1268.28 1550 l 257
 240.281 1550 l 257
997.358 1509 m 257
 805.91 983 l 257
 864.91 983 l 257
 1056.36 1509 l 257
 997.358 1509 l 257
878.469 1023 m 257
 429.469 1023 l 257
 406.175 959 l 257
 855.175 959 l 257
 878.469 1023 l 257
419.642 996 m 257
 116.818 164 l 257
 175.818 164 l 257
 478.642 996 l 257
 419.642 996 l 257
724.898 406 m 257
 574.579 -7 l 257
 633.579 -7 l 257
 783.898 406 l 257
 724.898 406 l 257
32.0898 978 m 257
 10.252 918 l 257
 312.252 918 l 257
 334.09 978 l 257
 32.0898 978 l 257
21.8984 950 m 257
 -62.542 718 l 257
 -3.54199 718 l 257
 80.8984 950 l 257
 21.8984 950 l 257
-67.1787 719 m 257
 -89.0166 659 l 257
 309.983 659 l 257
 331.821 719 l 257
 -67.1787 719 l 257
-48.5566 674 m 257
 -228.358 180 l 257
 -168.358 180 l 257
 11.4434 674 l 257
 -48.5566 674 l 257
-222.807 198 m 257
 -244.281 139 l 257
 643.719 139 l 257
 665.193 198 l 257
 -222.807 198 l 257
EndSplineSet
Ligature2: "presPreBaseSubstitutionsinDevanagari2lookup0 subtable" uni0926_uni094D.half uni0927
EndChar

StartChar: uni0926_uni094D_uni092F.pres
Encoding: 505 -1 505
GlifName: uni0926_uni094D__uni092F_.pres
Width: 1024
VWidth: 0
GlyphClass: 3
Flags: W
LayerCount: 2
Fore
SplineSet
1140.49 1531 m 257
 583.248 0 l 257
 643.248 0 l 257
 1200.49 1531 l 257
 1140.49 1531 l 257
420.071 288 m 257
 398.598 229 l 257
 632.192 107 l 257
 656.215 173 l 257
 420.071 288 l 257
200.402 1550 m 257
 178.2 1489 l 257
 1220.2 1489 l 257
 1242.4 1550 l 257
 200.402 1550 l 257
815.479 1509 m 257
 625.123 986 l 257
 684.123 986 l 257
 874.479 1509 l 257
 815.479 1509 l 257
420.071 288 m 257
 -196.929 288 l 257
 -218.402 229 l 257
 398.598 229 l 257
 420.071 288 l 257
60.7627 996 m 257
 -202.388 273 l 257
 -143.388 273 l 257
 119.763 996 l 257
 60.7627 996 l 257
697.59 1023 m 257
 69.5898 1023 l 257
 46.6592 960 l 257
 674.659 960 l 257
 697.59 1023 l 257
EndSplineSet
Ligature2: "presPreBaseSubstitutionsinDevanagari2lookup0 subtable" uni0926_uni094D.half uni092F
EndChar

StartChar: uni0926_uni094D_uni0935.pres
Encoding: 506 -1 506
GlifName: uni0926_uni094D__uni0935.pres
Width: 1024
VWidth: 0
GlyphClass: 3
Flags: W
LayerCount: 2
Fore
SplineSet
238.11 1550 m 257
 216.271 1490 l 257
 1231.27 1490 l 257
 1253.11 1550 l 257
 238.11 1550 l 257
839.188 1509 m 257
 725.629 1197 l 257
 786.629 1197 l 257
 900.188 1509 l 257
 839.188 1509 l 257
801.644 1241 m 257
 179.644 1241 l 257
 158.169 1182 l 257
 780.169 1182 l 257
 801.644 1241 l 257
176.371 1243 m 257
 -36.1875 659 l 257
 23.8125 659 l 257
 236.371 1243 l 257
 176.371 1243 l 257
-27.0879 684 m 257
 -48.5625 625 l 257
 703.438 625 l 257
 724.912 684 l 257
 -27.0879 684 l 257
727.875 846 m 257
 417.408 -7 l 257
 477.408 -7 l 257
 787.875 846 l 257
 727.875 846 l 257
-83.0664 478 m 257
 -219.919 102 l 257
 -159.919 102 l 257
 -23.0664 478 l 257
 -83.0664 478 l 257
-207.271 134 m 257
 -229.11 74 l 257
 505.89 74 l 257
 527.729 134 l 257
 -207.271 134 l 257
-69.9629 514 m 257
 -91.4375 455 l 257
 344.562 455 l 257
 366.037 514 l 257
 -69.9629 514 l 257
EndSplineSet
Ligature2: "presPreBaseSubstitutionsinDevanagari2lookup0 subtable" uni0926_uni094D.half uni0935
EndChar

StartChar: uni0927
Encoding: 507 2343 507
GlifName: uni0927
Width: 1024
VWidth: 0
GlyphClass: 2
Flags: W
AnchorPoint: "abvm_deva" 882 1600 basechar 0
LayerCount: 2
Fore
SplineSet
914.693 1553 m 257
 892.854 1493 l 257
 1194.85 1493 l 257
 1216.69 1553 l 257
 914.693 1553 l 257
1089.77 1512 m 257
 537.264 -6 l 257
 595.264 -6 l 257
 1147.77 1512 l 257
 1089.77 1512 l 257
294.693 1553 m 257
 272.49 1492 l 257
 664.49 1492 l 257
 686.693 1553 l 257
 294.693 1553 l 257
275.766 1501 m 257
 36.6367 844 l 257
 96.6367 844 l 257
 335.766 1501 l 257
 275.766 1501 l 257
48.4688 882 m 257
 26.9941 823 l 257
 426.994 823 l 257
 448.469 882 l 257
 48.4688 882 l 257
63.543 830 m 257
 -179.227 163 l 257
 -119.227 163 l 257
 123.543 830 l 257
 63.543 830 l 257
-170.855 186 m 257
 -192.693 126 l 257
 603.307 126 l 257
 625.145 186 l 257
 -170.855 186 l 257
EndSplineSet
EndChar

StartChar: uni0927_uni0930_uni094D.vatu
Encoding: 508 -1 508
GlifName: uni0927_uni0930_uni094D_.vatu
Width: 1024
VWidth: 0
GlyphClass: 3
Flags: W
LayerCount: 2
Fore
SplineSet
-83.0381 8 m 257
 36.9619 8 l 257
 592.215 223 l 257
 617.693 293 l 257
 -83.0381 8 l 257
878.296 1553 m 257
 856.457 1493 l 257
 1158.46 1493 l 257
 1180.3 1553 l 257
 878.296 1553 l 257
1053.37 1512 m 257
 500.866 -6 l 257
 558.866 -6 l 257
 1111.37 1512 l 257
 1053.37 1512 l 257
258.296 1553 m 257
 236.094 1492 l 257
 628.094 1492 l 257
 650.296 1553 l 257
 258.296 1553 l 257
239.369 1501 m 257
 73.0352 1044 l 257
 133.035 1044 l 257
 299.369 1501 l 257
 239.369 1501 l 257
84.8652 1082 m 257
 63.3916 1023 l 257
 463.392 1023 l 257
 484.865 1082 l 257
 84.8652 1082 l 257
99.9395 1030 m 257
 -142.829 363 l 257
 -82.8291 363 l 257
 159.939 1030 l 257
 99.9395 1030 l 257
-134.458 386 m 257
 -156.296 326 l 257
 639.704 326 l 257
 661.542 386 l 257
 -134.458 386 l 257
EndSplineSet
Ligature2: "rkrfRakarVariantsinDevanagari2lookup0 subtable" uni0927 uni094D uni0930
EndChar

StartChar: uni0927_uni094D.half
Encoding: 509 -1 509
GlifName: uni0927_uni094D_.half
Width: 1024
VWidth: 0
GlyphClass: 3
Flags: W
LayerCount: 2
Fore
SplineSet
559.693 1553 m 257
 537.49 1492 l 257
 929.49 1492 l 257
 951.693 1553 l 257
 559.693 1553 l 257
540.766 1501 m 257
 301.637 844 l 257
 361.637 844 l 257
 600.766 1501 l 257
 540.766 1501 l 257
313.469 882 m 257
 291.994 823 l 257
 691.994 823 l 257
 713.469 882 l 257
 313.469 882 l 257
328.543 830 m 257
 85.7734 163 l 257
 145.773 163 l 257
 388.543 830 l 257
 328.543 830 l 257
94.1445 186 m 257
 72.3066 126 l 257
 868.307 126 l 257
 890.145 186 l 257
 94.1445 186 l 257
EndSplineSet
Ligature2: "halfHalfFormsinDevanagari2lookup0 subtable" uni0927 uni094D
EndChar

